<?xml version="1.0" encoding="UTF-8" standalone="no"?>
<!-- Created with Inkscape (http://www.inkscape.org/) -->

<svg
   xmlns:dc="http://purl.org/dc/elements/1.1/"
   xmlns:cc="http://creativecommons.org/ns#"
   xmlns:rdf="http://www.w3.org/1999/02/22-rdf-syntax-ns#"
   xmlns:svg="http://www.w3.org/2000/svg"
   xmlns="http://www.w3.org/2000/svg"
   xmlns:sodipodi="http://sodipodi.sourceforge.net/DTD/sodipodi-0.dtd"
   xmlns:inkscape="http://www.inkscape.org/namespaces/inkscape"
   width="750"
   height="200"
   viewBox="0 0 198.4375 52.916668"
   version="1.1"
   id="svg8"
   inkscape:version="0.92.2 5c3e80d, 2017-08-06"
   sodipodi:docname="somnium-logo.svg">
  <defs
     id="defs2" />
  <sodipodi:namedview
     id="base"
     pagecolor="#545454"
     bordercolor="#666666"
     borderopacity="1.0"
     inkscape:pageopacity="0"
     inkscape:pageshadow="2"
     inkscape:zoom="0.34542647"
     inkscape:cx="933.3404"
     inkscape:cy="-414.81531"
     inkscape:document-units="px"
     inkscape:current-layer="layer1"
     showgrid="false"
     units="px" />
  <metadata
     id="metadata5">
    <rdf:RDF>
      <cc:Work
         rdf:about="">
        <dc:format>image/svg+xml</dc:format>
        <dc:type
           rdf:resource="http://purl.org/dc/dcmitype/StillImage" />
        <dc:title></dc:title>
      </cc:Work>
    </rdf:RDF>
  </metadata>
  <g
     inkscape:label="Layer 1"
     inkscape:groupmode="layer"
     id="layer1"
     transform="translate(0,-244.08333)">
    <g
       id="g1602"
       transform="translate(-1.9999978)">
      <path
         d="m 29.131864,261.2828 q -0.79165,-1.44562 -2.168432,-2.27169 -1.342362,-0.82607 -3.02892,-0.82607 -1.686558,0 -2.891241,1.06701 -1.170264,1.03258 -1.170264,2.85682 v 0.1721 q 0,2.16843 2.409367,3.95825 1.032586,0.75723 2.306109,1.51446 1.307943,0.72281 2.581467,1.58329 1.307942,0.82607 2.340529,1.78982 1.067006,0.92933 1.720977,2.30611 0.688391,1.37678 0.688391,3.02892 v 0.3442 q 0,3.26986 -2.237271,5.19735 -2.202851,1.9275 -5.472708,1.9275 -4.302442,0 -6.67739,-3.54522 V 278.527 q 0.894908,1.96191 2.615885,3.20101 1.755397,1.20469 4.336862,1.20469 2.581466,0 4.474541,-1.65214 1.893075,-1.65214 1.893075,-4.4057 v -0.20652 q 0,-1.72098 -0.894908,-3.13218 -0.894908,-1.44562 -2.237271,-2.34053 -1.342362,-0.92933 -2.925661,-1.92749 -1.5833,-0.99817 -2.92566,-1.85866 -1.342363,-0.86049 -2.237271,-2.16843 -0.894908,-1.30794 -0.894908,-2.85682 v -0.24094 q 0,-2.40937 1.548879,-3.68289 1.54888,-1.27352 3.820569,-1.27352 3.166598,0 5.025254,2.34052 z"
         style="font-style:normal;font-variant:normal;font-weight:normal;font-stretch:normal;font-size:25.39999962px;line-height:125%;font-family:'Poiret One';-inkscape-font-specification:'Poiret One';text-align:center;letter-spacing:-2.11666656px;word-spacing:0px;text-anchor:middle;fill:#f1f1f1;fill-opacity:1;stroke:none;stroke-width:0.26458332px;stroke-linecap:butt;stroke-linejoin:miter;stroke-opacity:1"
         id="path830"
         inkscape:connector-curvature="0" />
      <path
         inkscape:connector-curvature="0"
         id="path832"
         d="m 48.891496,257.18692 c -3.694364,0 -6.860847,1.31959 -9.499679,3.95842 -2.638832,2.61588 -3.958414,5.72501 -3.958414,9.32759 0,3.57964 1.296745,6.7116 3.889685,9.39633 2.615885,2.68472 5.702179,4.02714 9.258867,4.02714 h 0.516247 c 3.602577,0 6.700033,-1.33074 9.292973,-3.99252 2.592938,-2.68472 3.889685,-5.82837 3.889685,-9.43095 0,-3.62552 -1.307907,-6.74633 -3.923792,-9.36222 -2.615885,-2.61588 -5.771208,-3.92379 -9.465572,-3.92379 z m -0.03462,0.99787 c 3.396061,0 6.287468,1.21656 8.673888,3.64888 2.40937,2.40937 3.61425,5.31193 3.61425,8.70799 0,3.37312 -1.20488,6.27568 -3.61425,8.708 -2.409367,2.43231 -5.300774,3.64887 -8.673888,3.64887 -3.373115,0 -6.264005,-1.21656 -8.673373,-3.64887 -2.409368,-2.43232 -3.614249,-5.33488 -3.614249,-8.708 0,-3.39606 1.204881,-6.29862 3.614249,-8.70799 2.409368,-2.43232 5.300258,-3.64888 8.673373,-3.64888 z m -8.133871,8.82065 v 1.13534 h 16.268257 v -1.13534 z m 0,2.96882 v 1.13481 h 16.268257 v -1.13481 z m 0,2.96829 v 1.13533 h 16.268257 v -1.13533 z"
         style="font-style:normal;font-variant:normal;font-weight:normal;font-stretch:normal;font-size:25.39999962px;line-height:125%;font-family:'Poiret One';-inkscape-font-specification:'Poiret One';text-align:center;letter-spacing:-2.11666656px;word-spacing:0px;text-anchor:middle;fill:#f1f1f1;fill-opacity:1;stroke:none;stroke-width:0.26458332px;stroke-linecap:butt;stroke-linejoin:miter;stroke-opacity:1" />
      <path
         sodipodi:nodetypes="ccccccccccccc"
         d="m 93.063043,257.63433 v 36.36566 h -1.135845 v -35.0233 l -12.184516,24.95418 -12.11568,-24.95418 v 24.4723 h -1.032586 v -25.81466 h 1.652138 l 11.599387,23.81833 11.633803,-23.81833 z"
         style="font-style:normal;font-variant:normal;font-weight:normal;font-stretch:normal;font-size:25.39999962px;line-height:125%;font-family:'Poiret One';-inkscape-font-specification:'Poiret One';text-align:center;letter-spacing:-2.11666656px;word-spacing:0px;text-anchor:middle;fill:#f1f1f1;fill-opacity:1;stroke:none;stroke-width:0.26458332px;stroke-linecap:butt;stroke-linejoin:miter;stroke-opacity:1"
         id="path834"
         inkscape:connector-curvature="0" />
      <path
         sodipodi:nodetypes="ccccccccc"
         d="m 119.27617,247.08333 h 0.99817 v 36.74428 l -18.99958,-23.37088 v 22.99226 h -0.99817 v -26.19328 l 18.99958,23.33646 z"
         style="font-style:normal;font-variant:normal;font-weight:normal;font-stretch:normal;font-size:25.39999962px;line-height:125%;font-family:'Poiret One';-inkscape-font-specification:'Poiret One';text-align:center;letter-spacing:-2.11666656px;word-spacing:0px;text-anchor:middle;fill:#f1f1f1;fill-opacity:1;stroke:none;stroke-width:0.26458332px;stroke-linecap:butt;stroke-linejoin:miter;stroke-opacity:1"
         id="path836"
         inkscape:connector-curvature="0" />
      <path
         sodipodi:nodetypes="ccccc"
         d="m 127.4879,257.63433 h 1.13584 v 25.81466 h -1.13584 z"
         style="font-style:normal;font-variant:normal;font-weight:normal;font-stretch:normal;font-size:25.39999962px;line-height:125%;font-family:'Poiret One';-inkscape-font-specification:'Poiret One';text-align:center;letter-spacing:-2.11666656px;word-spacing:0px;text-anchor:middle;fill:#f1f1f1;fill-opacity:1;stroke:none;stroke-width:0.26458332px;stroke-linecap:butt;stroke-linejoin:miter;stroke-opacity:1"
         id="path838"
         inkscape:connector-curvature="0" />
      <path
         d="m 143.71936,283.93087 h -0.34419 q -3.1666,0 -5.36945,-2.20286 -2.16843,-2.20285 -2.16843,-5.54155 v -18.55213 h 1.13584 v 18.51771 q 0,2.92567 1.89308,4.85316 1.89307,1.9275 4.68106,1.9275 2.78798,0 4.64663,-1.89308 1.89308,-1.92749 1.89308,-4.88758 v -18.51771 h 1.13584 v 18.48329 q 0,3.37312 -2.20285,5.61039 -2.16843,2.20286 -5.30061,2.20286 z"
         style="font-style:normal;font-variant:normal;font-weight:normal;font-stretch:normal;font-size:25.39999962px;line-height:125%;font-family:'Poiret One';-inkscape-font-specification:'Poiret One';text-align:center;letter-spacing:-2.11666656px;word-spacing:0px;text-anchor:middle;fill:#f1f1f1;fill-opacity:1;stroke:none;stroke-width:0.26458332px;stroke-linecap:butt;stroke-linejoin:miter;stroke-opacity:1"
         id="path840"
         inkscape:connector-curvature="0" />
      <path
         d="m 184.90502,257.63433 v 25.81466 h -1.13585 v -24.4723 l -12.18452,24.95418 -12.11568,-24.95418 v 24.4723 h -1.03258 v -25.81466 h 1.65213 l 11.59939,23.81833 11.63381,-23.81833 z"
         style="font-style:normal;font-variant:normal;font-weight:normal;font-stretch:normal;font-size:25.39999962px;line-height:125%;font-family:'Poiret One';-inkscape-font-specification:'Poiret One';text-align:center;letter-spacing:-2.11666656px;word-spacing:0px;text-anchor:middle;fill:#f1f1f1;fill-opacity:1;stroke:none;stroke-width:0.26458332px;stroke-linecap:butt;stroke-linejoin:miter;stroke-opacity:1"
         id="path842"
         inkscape:connector-curvature="0" />
    </g>
  </g>
</svg>
