<svg width="256" height="256" version="1.1" viewBox="0 0 67.733 67.733" xmlns="http://www.w3.org/2000/svg">
 <path d="m33.866 1.3229a32.544 32.544 0 0 0-32.544 32.544 32.544 32.544 0 0 0 32.544 32.544 32.544 32.544 0 0 0 0.40876-0.015503v0.015503h25.522v-12.913a32.544 32.544 0 0 0 6.6125-19.63 32.544 32.544 0 0 0-32.544-32.544z" fill="none" stroke="#fff" stroke-linecap="round" stroke-linejoin="round" stroke-width="2.6459" style="paint-order:stroke fill markers"/>
 <g transform="translate(2.1505 -.89784)" fill="none" stroke="#fff" stroke-linecap="round" stroke-linejoin="round">
  <path d="m43.147 23.772v5.4221" stop-color="#000000" stroke-width="2.6459" style="-inkscape-stroke:none;font-variation-settings:normal;paint-order:stroke fill markers"/>
  <path d="m20.285 23.772v5.4221" stop-color="#000000" stroke-width="2.6459" style="-inkscape-stroke:none;font-variation-settings:normal;paint-order:stroke fill markers"/>
  <path d="m31.716 29.571v12.853" stop-color="#000000" stroke-width="2.6459" style="-inkscape-stroke:none;font-variation-settings:normal;paint-order:stroke fill markers"/>
  <path d="m18.348 49.211c8.9122 4.4062 17.824 4.5724 26.737 0" stop-color="#000000" stroke-width="2.6459" style="-inkscape-stroke:none;font-variation-settings:normal;paint-order:stroke fill markers"/>
 </g>
</svg>
