<svg width="256" height="256" version="1.1" viewBox="0 0 67.733 67.733" xmlns="http://www.w3.org/2000/svg" xmlns:xlink="http://www.w3.org/1999/xlink">
 <g transform="translate(0 -229.27)" fill="none" stroke="#eee" stroke-linecap="round" stroke-linejoin="round">
  <g stroke-width="2.6458">
   <path d="m22.347 274.83h-14.473m7.2367-7.2367v14.473"/>
   <path d="m14.287 289.35h-7.9893m3.9947-3.9947v7.9893"/>
   <path d="m34.852 286.12h-12.737m6.3683-6.3683v12.737"/>
   <path d="m63.683 252.02h-13.547m6.7736-6.7736v13.547"/>
   <path d="m47.01 238.53h-7.642m3.821-3.821v7.642"/>
  </g>
  <path d="m14.182 230.59a13.428 13.449 0 0 0-12.857 9.5908h12.347c2.1341 0 3.8522 1.7207 3.8522 3.8581 0 2.1375-1.718 3.8581-3.8522 3.8581h-12.342a13.428 13.449 0 0 0 12.852 9.5908 13.428 13.449 0 0 0 8.1651-2.7935l31.775 31.825c1.5091 1.5114 3.9396 1.5114 5.4486 0 1.5091-1.5114 1.5091-3.9447 0-5.4561l-32.681-32.731a13.428 13.449 0 0 0 0.72013-4.293 13.428 13.449 0 0 0-13.428-13.449z" stroke-width="2.6458" style="paint-order:normal"/>
 </g>
</svg>
