<svg width="256" height="256" version="1.1" viewBox="0 0 67.733 67.733" xmlns="http://www.w3.org/2000/svg" xmlns:xlink="http://www.w3.org/1999/xlink">
 <g transform="translate(0 -229.27)" fill="none" stroke-linecap="round" stroke-linejoin="round" stroke-width="2.6458">
  <path d="m19.9 230.59a13.428 13.449 0 0 0-12.857 9.5908h12.347c2.1341 0 3.8522 1.7207 3.8522 3.8581 0 2.1375-1.718 3.8581-3.8522 3.8581h-12.342a13.428 13.449 0 0 0 12.852 9.5908 13.428 13.449 0 0 0 8.1651-2.7935l31.775 31.825c1.5091 1.5114 3.9396 1.5114 5.4486 0 1.5091-1.5114 1.5091-3.9447 0-5.4561l-32.681-32.731a13.428 13.449 0 0 0 0.72013-4.293 13.428 13.449 0 0 0-13.428-13.449z" stroke="#eee" style="paint-order:normal"/>
  <g transform="translate(-88.948 -62.768)" stroke="#fff">
   <circle cx="109.13" cy="345.58" r="10.862" stop-color="#000000" style="font-variation-settings:normal;paint-order:markers stroke fill"/>
   <path d="m109.13 334.65v-4.8339" stop-color="#000000" style="font-variation-settings:normal;paint-order:markers stroke fill"/>
   <path d="m106.22 329.7h5.824" stop-color="#000000" style="font-variation-settings:normal;paint-order:markers stroke fill"/>
   <path d="m109.68 345.64 4.7274-4.9157" stop-color="#000000" style="font-variation-settings:normal;paint-order:markers stroke fill"/>
   <path d="m117.16 338.02 1.6016-1.4269" stop-color="#000000" style="font-variation-settings:normal;paint-order:markers stroke fill"/>
   <path d="m101.08 337.79-1.6016-1.4269" stop-color="#000000" style="font-variation-settings:normal;paint-order:markers stroke fill"/>
   <circle cx="109.13" cy="345.58" r="1.0271" stop-color="#000000" style="font-variation-settings:normal;paint-order:markers stroke fill"/>
  </g>
 </g>
</svg>
