<?xml version="1.0" encoding="UTF-8"?>
<svg width="256" height="256" version="1.1" viewBox="0 0 67.733 67.733" xmlns="http://www.w3.org/2000/svg" xmlns:cc="http://creativecommons.org/ns#" xmlns:dc="http://purl.org/dc/elements/1.1/" xmlns:rdf="http://www.w3.org/1999/02/22-rdf-syntax-ns#">
<metadata>
<rdf:RDF>
<cc:Work rdf:about="">
<dc:format>image/svg+xml</dc:format>
<dc:type rdf:resource="http://purl.org/dc/dcmitype/StillImage"/>
<dc:title/>
</cc:Work>
</rdf:RDF>
</metadata>
<g transform="translate(0 -280.07)">
<g transform="matrix(.99971 0 0 .99971 -.0041285 .081926)" fill="none" stroke="#fff" stroke-width="2.6466">
<path d="m8.2021 328.35c5.9446 13.835 20.937 20.976 35.461 17.098 3.6578-1.0115 6.8818-2.2471 9.9147-4.53m6.6146-7.276c5.5574-7.4228 7.2463-16.36 4.87-25.333-2.4213-8.9278-8.2924-15.984-16.776-19.646m-9.2604-2.6458c-3.776-0.4649-7.3836-0.12734-11.065 0.82762-14.499 3.8882-23.737 17.308-22.008 32.245" stroke-linejoin="round" style="paint-order:stroke fill markers"/>
<path d="m49.175 285.68c-0.82934-3.0951-3.9974-4.9241-7.0927-4.0947-3.0952 0.82937-4.9244 3.9974-4.0951 7.0925 0.82933 3.0951 3.9974 4.9241 7.0927 4.0947 3.0953-0.82939 4.9245-3.9974 4.0951-7.0925z"/>
<path d="m13.043 322.25c-0.82934-3.0951-3.9974-4.9241-7.0927-4.0947-3.0952 0.82937-4.9244 3.9974-4.0951 7.0925 0.82933 3.0951 3.9974 4.9241 7.0927 4.0947 3.0953-0.8294 4.9245-3.9974 4.0951-7.0925z"/>
<path d="m62.513 335.88c-0.82934-3.0951-3.9974-4.9241-7.0927-4.0947-3.0952 0.82938-4.9244 3.9974-4.0951 7.0925 0.82933 3.0951 3.9974 4.9241 7.0927 4.0947 3.0953-0.82939 4.9245-3.9974 4.0951-7.0925z"/>
</g>
</g>
</svg>
