<?xml version="1.0" encoding="UTF-8"?>
<svg width="256" height="256" version="1.1" viewBox="0 0 67.733 67.733" xmlns="http://www.w3.org/2000/svg" xmlns:cc="http://creativecommons.org/ns#" xmlns:dc="http://purl.org/dc/elements/1.1/" xmlns:rdf="http://www.w3.org/1999/02/22-rdf-syntax-ns#" xmlns:xlink="http://www.w3.org/1999/xlink">
<metadata>
<rdf:RDF>
<cc:Work rdf:about="">
<dc:format>image/svg+xml</dc:format>
<dc:type rdf:resource="http://purl.org/dc/dcmitype/StillImage"/>
<dc:title/>
</cc:Work>
</rdf:RDF>
</metadata>
<g transform="translate(0 -229.27)" fill="none" stroke="#fff">
<circle cx="33.867" cy="263.13" r="32.544" stroke-linecap="round" stroke-linejoin="round" stroke-width="2.6458" style="paint-order:markers stroke fill"/>
<path d="m33.867 230.06v66.146" stroke-width="2.6458"/>
<path transform="matrix(.26458 0 0 .26458 0 229.27)" d="m130 226 72.15 1e-5" stroke-linecap="round" stroke-linejoin="round" stroke-width="10"/>
<path transform="matrix(.26458 0 0 .26458 0 229.27)" d="m130 30 72.076-1e-6" stroke-linecap="round" stroke-linejoin="round" stroke-width="10"/>
<path transform="matrix(.26458 0 0 .26458 0 229.27)" d="m130 54.5h96.465" stroke-linecap="round" stroke-linejoin="round" stroke-width="10"/>
<path transform="matrix(.26458 0 0 .26458 0 229.27)" d="m130 79h110.66" stroke-linecap="round" stroke-linejoin="round" stroke-width="10"/>
<path transform="matrix(.26458 0 0 .26458 0 229.27)" d="m130 103.5h118.4" stroke-linecap="round" stroke-linejoin="round" stroke-width="10"/>
<path transform="matrix(.26458 0 0 .26458 0 229.27)" d="m130 128h121" stroke-linecap="round" stroke-linejoin="round" stroke-width="10"/>
<path transform="matrix(.26458 0 0 .26458 0 229.27)" d="m130 152.5h118.53" stroke-linecap="round" stroke-linejoin="round" stroke-width="10"/>
<path transform="matrix(.26458 0 0 .26458 0 229.27)" d="m130 177h110.76" stroke-linecap="round" stroke-linejoin="round" stroke-width="10"/>
<path transform="matrix(.26458 0 0 .26458 0 229.27)" d="m130 201.5h96.438" stroke-linecap="round" stroke-linejoin="round" stroke-width="10"/>
</g>
</svg>
