<?xml version="1.0" encoding="UTF-8"?>
<svg width="256" height="256" version="1.1" viewBox="0 0 67.733 67.733" xmlns="http://www.w3.org/2000/svg" xmlns:cc="http://creativecommons.org/ns#" xmlns:dc="http://purl.org/dc/elements/1.1/" xmlns:rdf="http://www.w3.org/1999/02/22-rdf-syntax-ns#" xmlns:xlink="http://www.w3.org/1999/xlink">
<metadata>
<rdf:RDF>
<cc:Work rdf:about="">
<dc:format>image/svg+xml</dc:format>
<dc:type rdf:resource="http://purl.org/dc/dcmitype/StillImage"/>
<dc:title/>
</cc:Work>
</rdf:RDF>
</metadata>
<g transform="translate(0 -229.27)" fill="none" stroke="#fff" stroke-linecap="round" stroke-linejoin="round">
<path transform="matrix(.26458 0 0 .26458 0 229.27)" d="m168 90.504h41.856c22.794 0 41.144 18.35 41.144 41.144v78.208c0 22.794-18.35 41.144-41.144 41.144h-163.71c-22.794 0-41.144-18.35-41.144-41.144v-78.208c0-22.794 18.35-41.144 41.144-41.144h41.856" stroke-width="10" style="paint-order:markers stroke fill"/>
<path d="m33.867 262.58v-31.974" stroke-width="2.6458"/>
<path d="m20.584 245.04 13.282-14.453 13.282 14.453" stroke-width="2.6458"/>
<path d="m2.6458 289.06 19.602-15.817 12.53 9.3271" stroke-width="2.6458"/>
<path d="m29.662 278.5 17.963-13.254 18.521 10.583" stroke-width="2.6458"/>
<circle cx="18.498" cy="263.23" r="3.9688" stroke-width="2.6458" style="paint-order:normal"/>
</g>
</svg>
