<?xml version="1.0" encoding="UTF-8"?>
<svg width="256" height="256" version="1.1" viewBox="0 0 67.733 67.733" xmlns="http://www.w3.org/2000/svg" xmlns:cc="http://creativecommons.org/ns#" xmlns:dc="http://purl.org/dc/elements/1.1/" xmlns:rdf="http://www.w3.org/1999/02/22-rdf-syntax-ns#" xmlns:xlink="http://www.w3.org/1999/xlink">
<metadata>
<rdf:RDF>
<cc:Work rdf:about="">
<dc:format>image/svg+xml</dc:format>
<dc:type rdf:resource="http://purl.org/dc/dcmitype/StillImage"/>
<dc:title/>
</cc:Work>
</rdf:RDF>
</metadata>
<g transform="translate(0 -229.27)" fill="none" stroke="#fff" stroke-linecap="round" stroke-linejoin="round">
<g transform="translate(-12.203)" stroke-width="2.6458">
<path d="m61.728 275.09 4.6823 2.3038-20.341 10.008-20.341-10.008 4.6824-2.3038" style="paint-order:markers stroke fill"/>
<path d="m50.236 261.21 16.175 7.9585-20.341 10.008-20.341-10.008 15.92-7.8329" style="paint-order:markers stroke fill"/>
<path d="m61.728 283.36 4.6823 2.3038-20.341 10.008-20.341-10.008 4.6824-2.3038" style="paint-order:markers stroke fill"/>
</g>
<path transform="matrix(.26458 0 0 .26458 0 229.27)" d="m61.529 71.6h-56.529v-66.6h100v8.5528" stroke-width="10" style="paint-order:normal"/>
<path transform="matrix(.26458 0 0 .26458 0 229.27)" d="m151 13.553v-8.5528h100v66.6h-56.529" stroke-width="10" style="paint-order:normal"/>
<rect x="20.638" y="237.04" width="26.458" height="17.621" stroke-width="2.6458" style="paint-order:normal"/>
<path d="m33.867 259.3v7.3656" stroke-width="2.6458"/>
<path d="m39.158 266.8-5.2917 5.2917-5.2917-5.2917" stroke-width="2.6458"/>
</g>
</svg>
