<?xml version="1.0" encoding="UTF-8"?>
<svg width="256" height="256" version="1.1" viewBox="0 0 67.733 67.733" xmlns="http://www.w3.org/2000/svg" xmlns:cc="http://creativecommons.org/ns#" xmlns:dc="http://purl.org/dc/elements/1.1/" xmlns:rdf="http://www.w3.org/1999/02/22-rdf-syntax-ns#" xmlns:xlink="http://www.w3.org/1999/xlink">
<style/>
<metadata>
<rdf:RDF>
<cc:Work rdf:about="">
<dc:format>image/svg+xml</dc:format>
<dc:type rdf:resource="http://purl.org/dc/dcmitype/StillImage"/>
<dc:title/>
</cc:Work>
</rdf:RDF>
</metadata>
<g transform="translate(0 -229.27)" stroke-linecap="round" stroke-linejoin="round">
<g transform="matrix(1.0979 0 0 1.0981 -.15003 14.143)" fill="none" stroke="#fefefe" stroke-width=".91073">
<g transform="matrix(.83859 0 0 .83923 3.6666 35.338)" stroke-width="2.8724">
<path d="m26.316 241.66h2.5245"/>
<path d="m24.868 234.94 2.4403-2.2692"/>
<path d="m25.068 247.73 2.4403 2.1582"/>
</g>
<path d="m21.657 238.19c0 3.5015-3.626 6.8187-4.0077 10.136h-6.1069c-0.38168-3.3172-4.0077-5.8973-4.0077-10.136 8e-7 -3.7659 3.1614-6.8187 7.0611-6.8187s7.0611 3.0528 7.0611 6.8187z" stroke-width="2.4096" style="paint-order:stroke fill markers"/>
<path d="m11.543 252.31h6.1069" stroke-width="2.4096"/>
<path d="m13.07 256.37h3.0535" stroke-width="2.4096"/>
<g transform="matrix(-.83859 0 0 .83923 25.526 35.338)" stroke-width="2.8724">
<path d="m26.316 241.66h2.5245"/>
<path d="m24.868 234.94 2.4403-2.2692"/>
<path d="m25.068 247.73 2.4403 2.1582"/>
</g>
</g>
<g transform="matrix(0 1.1833 -1.1879 0 327.58 228.71)" stroke="#fff">
<path d="m12.323 238.59 10.426 8.6808-10.419 8.6733" fill="none" stroke-width="2.2318"/>
<path d="m22.749 247.27h-21.167" fill="#d4af37" stroke-width="2.2316"/>
</g>
<g transform="matrix(.95652 0 0 .95652 -93.942 -4.0477)" fill="none" stroke="#fff" stroke-width="2.7661">
<rect x="137.21" y="282.92" width="30.427" height="30.427" style="paint-order:normal"/>
<circle cx="152.43" cy="298.13" r="10.274" stroke-dasharray="2.76609, 5.53219" style="paint-order:normal"/>
</g>
</g>
</svg>
