<svg width="24" height="24" version="1.1" viewBox="0 0 6.35 6.35" xmlns="http://www.w3.org/2000/svg">
 <path d="m3.1738 0c-1.7308 0-3.1348 1.4252-3.1348 3.1758 0 1.7506 1.404 3.1738 3.1348 3.1738 1.7308 0 3.1348-1.4233 3.1348-3.1738 0-1.7506-1.404-3.1758-3.1348-3.1758zm0 0.26562c1.5859 0 2.8711 1.3008 2.8711 2.9102 0 1.6094-1.2852 2.9082-2.8711 2.9082-1.5859 0-2.8691-1.2988-2.8691-2.9082 0-1.6094 1.2832-2.9102 2.8691-2.9102z" color="#000000" style="-inkscape-stroke:none;paint-order:stroke fill markers"/>
 <path d="m2.7536 3.3072-1.1207 0.99659h3.0773l-1.144-0.99659-0.33155 0.28807a0.11356 0.10904 0 0 1-0.00466 0.00476 0.11356 0.10904 0 0 1-0.00466 0 0.11356 0.10904 0 0 1-0.00466 0.00476 0.11356 0.10904 0 0 1-0.00466 0.00476 0.11356 0.10904 0 0 1-0.018679 0.00926 0.11356 0.10904 0 0 1-0.00931 0 0.11356 0.10904 0 0 1-0.028011 0.00476 0.11356 0.10904 0 0 1-0.00931 0 0.11356 0.10904 0 0 1-0.023336-0.00476 0.11356 0.10904 0 0 1-0.018679-0.0045 0.11356 0.10904 0 0 1-0.00466 0 0.11356 0.10904 0 0 1-0.00931-0.00926 0.11356 0.10904 0 0 1-0.00931-0.00476 0.11356 0.10904 0 0 1-0.00466-0.00476h-0.00466zm-1.2935-1.1478v2.0027l1.13-0.99659zm3.4274-0.00476-1.1534 1.0061 1.1534 1.006zm-3.2546-0.137 1.1721 1.0392a0.11356 0.10904 0 0 1 0.023362 0.014287l0.00931 0.00476 0.31752 0.2881 0.33155-0.2881 0.00931-0.00926a0.11356 0.10904 0 0 1 0.00466 0l1.2141-1.0486h-3.0818zm-0.30818-0.21725a0.11356 0.10904 0 0 1 0.00931 0 0.11356 0.10904 0 0 1 0.00931 0 0.11356 0.10904 0 0 1 0.00466 0 0.11356 0.10904 0 0 1 0.00931 0h3.647a0.11356 0.10904 0 0 1 0.013996 0 0.11356 0.10904 0 0 1 0.028014 0.00926 0.11356 0.10904 0 0 1 0.013996 0.0045 0.11356 0.10904 0 0 1 0.00466 0.00476 0.11356 0.10904 0 0 1 0.00466 0.00476 0.11356 0.10904 0 0 1 0.00466 0 0.11356 0.10904 0 0 1 0.00931 0.014023 0.11356 0.10904 0 0 1 0.00934 0.0045 0.11356 0.10904 0 0 1 0 0.00476 0.11356 0.10904 0 0 1 0.00466 0.00476 0.11356 0.10904 0 0 1 0 0.00476 0.11356 0.10904 0 0 1 0.00466 0 0.11356 0.10904 0 0 1 0 0.00476 0.11356 0.10904 0 0 1 0.00466 0.00476 0.11356 0.10904 0 0 1 0 0.0045 0.11356 0.10904 0 0 1 0.00466 0.00476 0.11356 0.10904 0 0 1 0 0.00476 0.11356 0.10904 0 0 1 0.00466 0.01905 0.11356 0.10904 0 0 1 0 0.00926 0.11356 0.10904 0 0 1 0 0.00476 0.11356 0.10904 0 0 1 0 0.014023v2.4703a0.11356 0.10904 0 0 1 0 0.014287 0.11356 0.10904 0 0 1 0 0.00926 0.11356 0.10904 0 0 1-0.00934 0.032914 0.11356 0.10904 0 0 1-0.00466 0.00926 0.11356 0.10904 0 0 1-0.00466 0.00476 0.11356 0.10904 0 0 1-0.00466 0.00952 0.11356 0.10904 0 0 1-0.00934 0.00926 0.11356 0.10904 0 0 1-0.00466 0.00476 0.11356 0.10904 0 0 1-0.00466 0 0.11356 0.10904 0 0 1-0.00466 0.00926 0.11356 0.10904 0 0 1-0.00931 0.00476 0.11356 0.10904 0 0 1-0.042026 0.014023 0.11356 0.10904 0 0 1-0.013996 0h-3.647a0.11356 0.10904 0 0 1-0.013996 0 0.11356 0.10904 0 0 1-0.018679 0 0.11356 0.10904 0 0 1-0.00466 0 0.11356 0.10904 0 0 1-0.00931-0.00476 0.11356 0.10904 0 0 1-0.018679-0.00926 0.11356 0.10904 0 0 1-0.018679-0.00926 0.11356 0.10904 0 0 1 0-0.00476 0.11356 0.10904 0 0 1-0.00934-0.00476 0.11356 0.10904 0 0 1-0.00931-0.00926 0.11356 0.10904 0 0 1-0.00466-0.00476 0.11356 0.10904 0 0 1 0-0.00476 0.11356 0.10904 0 0 1-0.00466-0.0045 0.11356 0.10904 0 0 1-0.014023-0.028284 0.11356 0.10904 0 0 1 0-0.00476 0.11356 0.10904 0 0 1 0-0.01905v-0.0045a0.11356 0.10904 0 0 1 0-0.00926v-2.4845a0.11356 0.10904 0 0 1 0-0.00476 0.11356 0.10904 0 0 1 0.00466-0.00476 0.11356 0.10904 0 0 1 0-0.023548 0.11356 0.10904 0 0 1 0.00466-0.00926 0.11356 0.10904 0 0 1 0.00466-0.014023 0.11356 0.10904 0 0 1 0.00466-0.00476 0.11356 0.10904 0 0 1 0.00466-0.00926 0.11356 0.10904 0 0 1 0.00934-0.00476 0.11356 0.10904 0 0 1 0.00931-0.00926 0.11356 0.10904 0 0 1 0.00931-0.0045 0.11356 0.10904 0 0 1 0-0.00476 0.11356 0.10904 0 0 1 0.018679-0.00926 0.11356 0.10904 0 0 1 0.00931-0.00476 0.11356 0.10904 0 0 1 0.013996-0.00476z" stroke-width=".079374" style="paint-order:markers stroke fill"/>
</svg>
