<?xml version="1.0" encoding="UTF-8"?>
<svg width="256" height="256" version="1.1" viewBox="0 0 67.733 67.733" xmlns="http://www.w3.org/2000/svg" xmlns:cc="http://creativecommons.org/ns#" xmlns:dc="http://purl.org/dc/elements/1.1/" xmlns:rdf="http://www.w3.org/1999/02/22-rdf-syntax-ns#">
<metadata>
<rdf:RDF>
<cc:Work rdf:about="">
<dc:format>image/svg+xml</dc:format>
<dc:type rdf:resource="http://purl.org/dc/dcmitype/StillImage"/>
<dc:title/>
</cc:Work>
</rdf:RDF>
</metadata>
<g transform="translate(0 -229.27)" fill="none" stroke="#fff" stroke-linecap="round" stroke-linejoin="round" stroke-width="2.6458">
<path d="m50.786 266.07v24.27c0 2.9558-2.3864 5.3353-5.3506 5.3353h-33.684c-2.9643 0-5.3506-2.3796-5.3506-5.3353v-54.421c0-2.9558 2.3864-5.3353 5.3506-5.3353h33.684c2.9643 0 5.3506 2.3796 5.3506 5.3353v4.1255" style="paint-order:stroke fill markers"/>
<path d="m14.234 241h31.331"/>
<path d="m14.234 247.95h26.109"/>
<path d="m14.234 254.89h18.276"/>
<path d="m14.234 261.83h10.444"/>
<path d="m63.841 238.4 1.8289 1.8582c1.0132 1.0294 0.99786 2.6715-0.03438 3.6819l-33.539 32.829c-1.0322 1.0104-1.8632 1.8238-8.3332 2.6843 0.98322-6.4349 1.8142-7.2483 2.8465-8.2587l33.539-32.829c1.0322-1.0104 2.6789-0.99511 3.6921 0.0363z" style="paint-order:stroke fill markers"/>
</g>
</svg>
