<?xml version="1.0" encoding="UTF-8"?>
<svg width="256" height="256" version="1.1" viewBox="0 0 67.733 67.733" xmlns="http://www.w3.org/2000/svg" xmlns:cc="http://creativecommons.org/ns#" xmlns:dc="http://purl.org/dc/elements/1.1/" xmlns:rdf="http://www.w3.org/1999/02/22-rdf-syntax-ns#" xmlns:xlink="http://www.w3.org/1999/xlink">
<metadata>
<rdf:RDF>
<cc:Work rdf:about="">
<dc:format>image/svg+xml</dc:format>
<dc:type rdf:resource="http://purl.org/dc/dcmitype/StillImage"/>
<dc:title/>
</cc:Work>
</rdf:RDF>
</metadata>
<g transform="translate(0 -229.27)">
<path d="m29.827 230.59a7.5223 7.5223 0 0 0-7.5225 7.5207 7.5223 7.5223 0 0 0 0 9.3e-4v5.0723h-16.466v16.466h5.0723a7.5223 7.5223 0 0 1 0.0017 0 7.5223 7.5223 0 0 1 7.5207 7.5225 7.5223 7.5223 0 0 1-7.522 7.5225h-5.0727v16.465h16.466v-5.0718a7.5223 7.5223 0 0 1 0-2e-3 7.5223 7.5223 0 0 1 7.5225-7.5207 7.5223 7.5223 0 0 1 7.5225 7.522v5.0723h16.466v-16.465h5.0727a7.5223 7.5223 0 0 0 7.522-7.5225 7.5223 7.5223 0 0 0-7.5207-7.5225 7.5223 7.5223 0 0 0-0.0018 0h-5.0722v-16.465h-16.466v-5.0723a7.5223 7.5223 0 0 0-7.5225-7.522z" fill="none" stroke="#fff" stroke-linecap="round" stroke-linejoin="round" stroke-width="2.6461" style="paint-order:normal"/>
</g>
</svg>
