<?xml version="1.0" encoding="UTF-8"?>
<svg width="256" height="256" version="1.1" viewBox="0 0 67.733 67.733" xmlns="http://www.w3.org/2000/svg" xmlns:cc="http://creativecommons.org/ns#" xmlns:dc="http://purl.org/dc/elements/1.1/" xmlns:rdf="http://www.w3.org/1999/02/22-rdf-syntax-ns#" xmlns:xlink="http://www.w3.org/1999/xlink">
<metadata>
<rdf:RDF>
<cc:Work rdf:about="">
<dc:format>image/svg+xml</dc:format>
<dc:type rdf:resource="http://purl.org/dc/dcmitype/StillImage"/>
<dc:title/>
</cc:Work>
</rdf:RDF>
</metadata>
<g transform="translate(0 -229.27)" fill="none" stroke="#fff" stroke-linecap="round" stroke-linejoin="round">
<circle cx="17.198" cy="246.46" r="4.4436" stroke-width="2.6458" style="paint-order:stroke fill markers"/>
<g transform="matrix(.59139 0 0 .59139 -2.8304 91.482)" stroke-width="4.4739">
<path d="m33.867 248.39v-13.139"/>
<path d="m33.867 288.88v-13.139"/>
</g>
<g transform="matrix(0 .59139 -.59139 0 172.18 226.44)" stroke-width="4.4739">
<path d="m33.867 248.39v-13.139"/>
<path d="m33.867 288.88v-13.139"/>
</g>
<path d="m22.93 252.15 4.2582 4.2582" stroke-width="2.6458"/>
<path d="m7.3051 236.52 4.1895 4.1895" stroke-width="2.6458"/>
<path d="m11.563 252.15-4.2582 4.2582" stroke-width="2.6458"/>
<path d="m27.188 236.52-4.1895 4.1895" stroke-width="2.6458"/>
<path d="m66.408 282.98c-0.1293 7.0129-5.6881 12.7-12.705 12.7-7.0166 0-12.705-5.686-12.705-12.7 3e-6 -4.0654 1.9108-7.6846 4.8836-10.009-0.05944 5.5274 1.6213 6.9498 3.321 7.0988 4.9739 0.43584 4.4587-10.621 1.3536-16.14 1.8501 0.94952 5.0676 2.9971 6.7968 6.2074 3.5565 6.6028-0.74735 13.953 3.0198 15.261 3.3034 1.1469 4.299-4.1559 4.9244-7.3968 0.37426 1.1975 1.1696 1.759 1.1102 4.9788z" stroke-width="2.6458" style="paint-order:markers stroke fill"/>
<path d="m60.279 236.69-52.824 52.882" stroke-dasharray="2.64583336, 5.29166672" stroke-width="2.6458"/>
</g>
</svg>
