<?xml version="1.0" encoding="UTF-8"?>
<svg width="256" height="256" version="1.1" viewBox="0 0 67.733 67.733" xmlns="http://www.w3.org/2000/svg" xmlns:cc="http://creativecommons.org/ns#" xmlns:dc="http://purl.org/dc/elements/1.1/" xmlns:rdf="http://www.w3.org/1999/02/22-rdf-syntax-ns#">
<metadata>
<rdf:RDF>
<cc:Work rdf:about="">
<dc:format>image/svg+xml</dc:format>
<dc:type rdf:resource="http://purl.org/dc/dcmitype/StillImage"/>
<dc:title/>
</cc:Work>
</rdf:RDF>
</metadata>
<g transform="translate(0 -229.27)">
<path d="m38.765 260.34a15.361 15.362 0 0 1 8.6002-2.6333 15.361 15.362 0 0 1 5.7714 1.1255m-22.008-2.5804a23.375 23.376 0 0 1 16.237-6.5598 23.375 23.376 0 0 1 10.256 2.3703m-37.707 5.4111c5.0834-9.4412 16.719-15.796 27.451-15.796 5.1304 0 10.183 1.2575 14.714 3.6625m-53.658 19.746c3.987-18.448 19.725-31.249 38.769-31.249 6.7223 0 13.333 1.7198 19.203 4.9959m-40.831 23.685c-5.5215 2e-3 -10.498 3.3307-12.608 8.4332-0.28923-0.0262-0.5794-0.0406-0.8698-0.0433-5.9435 1e-5 -10.762 4.8183-10.762 10.762 1e-5 5.9437 4.8181 10.762 10.762 10.762h27.334c4.8611-1e-5 8.8018-3.9409 8.8018-8.8022 2.67e-4 -4.8615-3.9405-8.8027-8.8018-8.8027-0.09501 2e-3 -0.18999 5e-3 -0.28489 0.0104-0.68412-6.9847-6.553-12.312-13.571-12.32z" fill="none" stroke="#fff" stroke-linecap="round" stroke-linejoin="round" stroke-width="2.6458" style="paint-order:stroke fill markers"/>
</g>
</svg>
