<?xml version="1.0" encoding="UTF-8"?>
<svg width="256" height="256" version="1.1" viewBox="0 0 67.733 67.733" xmlns="http://www.w3.org/2000/svg" xmlns:cc="http://creativecommons.org/ns#" xmlns:dc="http://purl.org/dc/elements/1.1/" xmlns:rdf="http://www.w3.org/1999/02/22-rdf-syntax-ns#" xmlns:xlink="http://www.w3.org/1999/xlink">
<metadata>
<rdf:RDF>
<cc:Work rdf:about="">
<dc:format>image/svg+xml</dc:format>
<dc:type rdf:resource="http://purl.org/dc/dcmitype/StillImage"/>
<dc:title/>
</cc:Work>
</rdf:RDF>
</metadata>
<g transform="translate(0 -229.27)">
<g transform="matrix(1.3124 0 0 1.3132 -14.53 -60.159)" fill="none" stroke="#fff" stroke-linecap="round" stroke-linejoin="round">
<g transform="rotate(45 28.998 246.04)" stroke-width="2.0154">
<path d="m52.168 230.59-4.5427 6.0498v16.922c0 4.3974-3.5401 7.9375-7.9375 7.9375h-15.875c-4.3974 0-7.9375-3.5401-7.9375-7.9375v-22.972z" style="paint-order:markers stroke fill"/>
<path d="m15.305 249.11a9.2604 9.2604 0 0 1-0.21662 3e-3 9.2604 9.2604 0 0 1-9.2604-9.2604 9.2604 9.2604 0 0 1 9.2604-9.2604 9.2604 9.2604 0 0 1 0.21686 3e-3" style="paint-order:markers stroke fill"/>
</g>
<path d="m61.673 265.04c0 2.6196-2.0206 4.7431-4.513 4.7431-2.4925 0-4.513-2.1236-4.513-4.7431 0-2.6196 3.0087-4.7432 4.513-8.1335 1.5043 3.3903 4.513 5.5139 4.513 8.1335z" stroke-width="2.0154" style="paint-order:markers stroke fill"/>
</g>
</g>
</svg>
