<?xml version="1.0" encoding="UTF-8"?>
<svg width="256" height="256" version="1.1" viewBox="0 0 67.733 67.733" xmlns="http://www.w3.org/2000/svg" xmlns:cc="http://creativecommons.org/ns#" xmlns:dc="http://purl.org/dc/elements/1.1/" xmlns:rdf="http://www.w3.org/1999/02/22-rdf-syntax-ns#" xmlns:xlink="http://www.w3.org/1999/xlink">
<metadata>
<rdf:RDF>
<cc:Work rdf:about="">
<dc:format>image/svg+xml</dc:format>
<dc:type rdf:resource="http://purl.org/dc/dcmitype/StillImage"/>
<dc:title/>
</cc:Work>
</rdf:RDF>
</metadata>
<g transform="translate(0 -229.27)" fill="none" stroke-linecap="round" stroke-linejoin="round">
<g transform="translate(38.541)">
<g transform="matrix(.83859 0 0 .83923 3.6666 35.338)" stroke="#ebebeb" stroke-width="3.1539">
<path d="m26.316 241.66h2.5245"/>
<path d="m24.868 234.94 2.4403-2.2692"/>
<path d="m25.068 247.73 2.4403 2.1582"/>
</g>
<path d="m21.657 238.19c0 3.5015-3.626 6.8187-4.0077 10.136h-6.1069c-0.38168-3.3172-4.0077-5.8973-4.0077-10.136 8e-7 -3.7659 3.1614-6.8187 7.0611-6.8187s7.0611 3.0528 7.0611 6.8187z" stroke="#fff" stroke-width="2.6458" style="paint-order:stroke fill markers"/>
<path d="m11.543 252.31h6.1069" stroke="#fff" stroke-width="2.6458"/>
<path d="m13.07 256.37h3.0535" stroke="#fff" stroke-width="2.6458"/>
<g transform="matrix(-.83859 0 0 .83923 25.526 35.338)" stroke="#ebebeb" stroke-width="3.1539">
<path d="m26.316 241.66h2.5245"/>
<path d="m24.868 234.94 2.4403-2.2692"/>
<path d="m25.068 247.73 2.4403 2.1582"/>
</g>
</g>
<g transform="matrix(.77746 .77637 -.77689 .77581 183.39 1.5899)" stroke-width="2.409">
<path d="m87.204 254.46a23.812 23.812 0 0 1 8.917 18.578 23.812 23.812 0 0 1-23.813 23.812 23.812 23.812 0 0 1-23.813-23.812 23.812 23.812 0 0 1 8.9151-18.577" stroke="#fff" style="paint-order:markers stroke fill"/>
<path d="m46.515 254.37 12.359-1.1235-1.1235 12.359" stroke="#f7f7f7"/>
</g>
</g>
</svg>
