<?xml version="1.0" encoding="UTF-8"?>
<svg width="256" height="256" version="1.1" viewBox="0 0 67.733 67.733" xmlns="http://www.w3.org/2000/svg" xmlns:cc="http://creativecommons.org/ns#" xmlns:dc="http://purl.org/dc/elements/1.1/" xmlns:rdf="http://www.w3.org/1999/02/22-rdf-syntax-ns#">
<metadata>
<rdf:RDF>
<cc:Work rdf:about="">
<dc:format>image/svg+xml</dc:format>
<dc:type rdf:resource="http://purl.org/dc/dcmitype/StillImage"/>
<dc:title/>
</cc:Work>
</rdf:RDF>
</metadata>
<g transform="translate(0 -229.27)" fill="none" stroke="#fff" stroke-linecap="round" stroke-linejoin="round">
<path d="m41.506 237.82c-0.02718 3.1311-2.7368 7.2105-3.5311 8.7046-1.1341 2.1331-1.8259 6.6692 2.4636 6.8158 1.8402 0.0629 3.0051-0.70181 5.502-0.49271 2.8973 0.24264 5.9512 3.3448 5.8304 6.5695h-35.809c-0.12079-3.2247 2.9331-6.3269 5.8304-6.5695 2.4968-0.2091 3.6617 0.55564 5.502 0.49271 4.2894-0.14668 3.5976-4.6828 2.4636-6.8158-0.79432-1.4941-3.5039-5.5735-3.5311-8.7046-0.03072-3.5387 2.7011-7.1355 7.6395-7.2264 4.9384 0.091 7.6702 3.6878 7.6395 7.2264z" stroke-width="2.6458"/>
<rect x="17.836" y="259.46" width="31.405" height="5.1718" stroke-dashoffset="5" stroke-width="2.6458" style="paint-order:markers stroke fill"/>
<g transform="matrix(.88017 0 0 .87549 3.9059 36.815)">
<path d="m55.279 278.93 6.3512 3.134-27.591 13.615-27.591-13.615 6.3512-3.134" stroke-width="3.0141" style="paint-order:markers stroke fill"/>
<path transform="matrix(.26458 0 0 .26458 0 229.27)" d="m194.8 138.45 38.137 18.818-104.28 51.457-104.28-51.457 38.135-18.818" stroke-width="11.392" style="paint-order:markers stroke fill"/>
</g>
</g>
</svg>
