<?xml version="1.0" encoding="UTF-8"?>
<svg width="256" height="256" version="1.1" viewBox="0 0 67.733 67.733" xmlns="http://www.w3.org/2000/svg" xmlns:cc="http://creativecommons.org/ns#" xmlns:dc="http://purl.org/dc/elements/1.1/" xmlns:rdf="http://www.w3.org/1999/02/22-rdf-syntax-ns#" xmlns:xlink="http://www.w3.org/1999/xlink">
<metadata>
<rdf:RDF>
<cc:Work rdf:about="">
<dc:format>image/svg+xml</dc:format>
<dc:type rdf:resource="http://purl.org/dc/dcmitype/StillImage"/>
<dc:title/>
</cc:Work>
</rdf:RDF>
</metadata>
<g transform="translate(0 -229.27)" fill="none" stroke="#fff" stroke-linecap="round" stroke-linejoin="round">
<path d="m36.132 236.04-3.8483 3.8483m-10.504 10.504-3.9114 3.9114m-2e-6 -18.264 3.8483 3.8483m10.504 10.504 3.9114 3.9114m-23.741-9.1319h7.1375m14.855 0h7.1375m-14.565 14.565v-7.1375m0-14.855v-7.1375m4.0818 14.565a4.0818 4.0818 0 0 1-4.0818 4.0818 4.0818 4.0818 0 0 1-4.0818-4.0818 4.0818 4.0818 0 0 1 4.0818-4.0818 4.0818 4.0818 0 0 1 4.0818 4.0818" stroke-width="2.6458"/>
<path d="m66.408 273.73c-0.11657 6.3356-5.1282 11.474-11.454 11.474-6.3259 0-11.454-5.1369-11.454-11.474 3e-6 -3.6727 1.7227-6.9424 4.4029-9.0424-0.05359 4.9935 1.4617 6.2786 2.9941 6.4131 4.4843 0.39375 4.0198-9.5948 1.2204-14.581 1.6679 0.85782 4.5687 2.7076 6.1277 5.6079 3.2064 5.9651-0.67378 12.605 2.7225 13.787 2.9783 1.0361 3.8758-3.7545 4.4396-6.6824 0.33742 1.0818 1.0545 1.5891 1.001 4.4979z" stroke-width="2.6458" style="paint-order:markers stroke fill"/>
<path d="m63.454 233.52-35.585 35.992" stroke-dasharray="2.64583, 5.29167" stroke-width="2.6458"/>
<circle cx="12.185" cy="284.82" r="10.862" stop-color="#000000" stroke-width="2.6458" style="font-variation-settings:normal;paint-order:markers stroke fill"/>
<path d="m12.185 273.88v-4.8339" stop-color="#000000" stroke-width="2.6458" style="font-variation-settings:normal;paint-order:markers stroke fill"/>
<path d="m9.2727 268.93h5.824" stop-color="#000000" stroke-width="2.6458" style="font-variation-settings:normal;paint-order:markers stroke fill"/>
<path d="m12.735 284.87 4.7274-4.9157" stop-color="#000000" stroke-width="2.6458" style="font-variation-settings:normal;paint-order:markers stroke fill"/>
<path d="m20.207 277.26 1.6016-1.4269" stop-color="#000000" stroke-width="2.6458" style="font-variation-settings:normal;paint-order:markers stroke fill"/>
<path d="m4.133 277.02-1.6016-1.4269" stop-color="#000000" stroke-width="2.6458" style="font-variation-settings:normal;paint-order:markers stroke fill"/>
<circle cx="12.185" cy="284.82" r="1.0271" stop-color="#000000" stroke-width="2.6458" style="font-variation-settings:normal;paint-order:markers stroke fill"/>
</g>
</svg>
