<?xml version="1.0" encoding="UTF-8"?>
<svg width="256" height="256" version="1.1" viewBox="0 0 67.733 67.733" xmlns="http://www.w3.org/2000/svg" xmlns:cc="http://creativecommons.org/ns#" xmlns:dc="http://purl.org/dc/elements/1.1/" xmlns:rdf="http://www.w3.org/1999/02/22-rdf-syntax-ns#" xmlns:xlink="http://www.w3.org/1999/xlink">
<metadata>
<rdf:RDF>
<cc:Work rdf:about="">
<dc:format>image/svg+xml</dc:format>
<dc:type rdf:resource="http://purl.org/dc/dcmitype/StillImage"/>
<dc:title/>
</cc:Work>
</rdf:RDF>
</metadata>
<g transform="translate(0 -229.27)" fill="none" stroke="#fff" stroke-linecap="round" stroke-linejoin="round">
<circle cx="33.867" cy="263.13" r="32.544" stroke-width="2.6458" style="paint-order:markers stroke fill"/>
<path d="m45.384 245.54 7.5406 7.5406-7.5406 7.5406" stroke-width="2.6458"/>
<path d="m52.924 253.08h-12.758c-2.9682 0-6.0932 0-7.35 5.0271l-2.5135 10.054c-1.2568 5.0271-4.5772 5.0271-7.6202 5.0271h-7.4611" stroke-width="2.6458"/>
<path d="m45.384 280.73 7.5406-7.5406-7.5406-7.5406" stroke-width="2.6458"/>
<path d="m29.012 255.2c-1.6067-2.1232-4.0459-2.1232-6.3291-2.1232h-7.4611" stroke-width="2.6458"/>
<path d="m52.924 273.19h-12.758c-2.2375 0-4.564 0-6.1122-2.1532" stroke-width="2.6458"/>
<path d="m21.167 280.73-7.5406-7.5406 7.5406-7.5406" stroke-width="2.6458"/>
<path d="m21.167 260.09-7.5406-7.5406 7.5406-7.5406" stroke-width="2.6458"/>
</g>
</svg>
