<?xml version="1.0" encoding="UTF-8"?>
<svg width="256" height="256" version="1.1" viewBox="0 0 67.733 67.733" xmlns="http://www.w3.org/2000/svg" xmlns:cc="http://creativecommons.org/ns#" xmlns:dc="http://purl.org/dc/elements/1.1/" xmlns:rdf="http://www.w3.org/1999/02/22-rdf-syntax-ns#" xmlns:xlink="http://www.w3.org/1999/xlink">
<style/>
<metadata>
<rdf:RDF>
<cc:Work rdf:about="">
<dc:format>image/svg+xml</dc:format>
<dc:type rdf:resource="http://purl.org/dc/dcmitype/StillImage"/>
<dc:title/>
</cc:Work>
</rdf:RDF>
</metadata>
<g transform="translate(0 -229.27)">
<path d="m52.466 257.96a9.1262 9.1275 0 0 1-12.906-2e-5 9.1262 9.1275 0 0 1-9e-6 -12.908 9.1262 9.1275 0 0 1 12.906 0 9.1262 9.1275 0 0 1-4e-6 12.908zm-39.978 16.102-6.4532 6.4541m16.778 3.8725-6.4532 6.4541m1.2906-11.617-9.6798 9.6812m57.384-57.094a38.786 38.792 0 0 0-36.411 10.301 38.786 38.792 0 0 0-6.4318 8.5757c-7.6839-4.3722-16.907 0.71144-21.189 13.796 5.1627-3.2162 11.371-3.9907 17.039-2.327a38.786 38.792 0 0 0-0.62767 4.4662l12.811 12.812a38.786 38.792 0 0 0 4.872-0.71286c1.569 5.6011 0.76899 11.705-2.3998 16.793 13.012-4.2595 18.111-13.407 13.865-21.067a38.786 38.792 0 0 0 8.1705-6.2241 38.786 38.792 0 0 0 10.302-36.414z" fill="none" stop-color="#000000" stroke="#fefefe" stroke-linecap="round" stroke-linejoin="round" stroke-width="2.6458" style="font-variation-settings:normal;paint-order:stroke fill markers"/>
</g>
</svg>
