<?xml version="1.0" encoding="UTF-8"?>
<svg width="256" height="256" version="1.1" viewBox="0 0 67.733 67.733" xmlns="http://www.w3.org/2000/svg" xmlns:cc="http://creativecommons.org/ns#" xmlns:dc="http://purl.org/dc/elements/1.1/" xmlns:rdf="http://www.w3.org/1999/02/22-rdf-syntax-ns#">
<metadata>
<rdf:RDF>
<cc:Work rdf:about="">
<dc:format>image/svg+xml</dc:format>
<dc:type rdf:resource="http://purl.org/dc/dcmitype/StillImage"/>
<dc:title/>
</cc:Work>
</rdf:RDF>
</metadata>
<g transform="translate(0 -229.27)">
<g transform="matrix(1.0254 0 0 1.0252 -.8594 -7.4516)" fill="none" stroke="#fff" stroke-linecap="round" stroke-linejoin="round">
<path d="m55.258 252.93v36.507c0 3.4589-2.7866 6.2434-6.2481 6.2434h-30.286c-3.4614 0-6.2481-2.7846-6.2481-6.2434v-36.507" stroke-width="2.5806" style="paint-order:stroke fill markers"/>
<rect x="6.7992" y="241.87" width="54.135" height="7.1426" rx="1.7269" ry="1.7272" stroke-width="2.5806" style="paint-order:stroke fill markers"/>
<path d="m21.726 238.07v-2.0542c0-2.1205 1.7084-3.8276 3.8304-3.8276h16.621c2.122 0 3.8304 1.7071 3.8304 3.8276v2.0542" stroke-width="2.5806" style="paint-order:stroke fill markers"/>
<rect x="18.047" y="256.48" width="6.5172" height="32.352" rx="2.4761" ry="2.4765" stroke-width="2.5806" style="paint-order:stroke fill markers"/>
<rect x="30.818" y="256.48" width="6.5172" height="32.352" rx="2.4761" ry="2.4765" stroke-width="2.5806" style="paint-order:stroke fill markers"/>
<rect x="43.59" y="256.48" width="6.5172" height="32.352" rx="2.4761" ry="2.4765" stroke-width="2.5806" style="paint-order:stroke fill markers"/>
</g>
</g>
</svg>
