<?xml version="1.0" encoding="UTF-8"?>
<svg version="1.1" viewBox="0 0 46 46" xmlns="http://www.w3.org/2000/svg" xmlns:cc="http://creativecommons.org/ns#" xmlns:dc="http://purl.org/dc/elements/1.1/" xmlns:rdf="http://www.w3.org/1999/02/22-rdf-syntax-ns#" xmlns:xlink="http://www.w3.org/1999/xlink">
<metadata>
<rdf:RDF>
<cc:Work rdf:about="">
<dc:format>image/svg+xml</dc:format>
<dc:type rdf:resource="http://purl.org/dc/dcmitype/StillImage"/>
<dc:title/>
</cc:Work>
</rdf:RDF>
</metadata>
<g transform="translate(0 -284.83)">
<path d="m23.059 284.95c-6.3299 0-11.755 2.261-16.277 6.7823-4.5213 4.482-6.7823 9.8092-6.7823 15.982 0 6.1333 2.2218 11.5 6.6645 16.1 4.482 4.6 9.77 6.9 15.864 6.9h0.88453c6.1726 0 11.48-2.2801 15.922-6.8407 4.4427-4.6 6.6645-9.9862 6.6645-16.159 0-6.2119-2.2409-11.559-6.723-16.041-4.482-4.482-9.8883-6.723-16.218-6.7229zm-0.05931 1.7097c5.8188 0 10.773 2.0844 14.862 6.2519 4.1282 4.1282 6.1926 9.1014 6.1926 14.92 0 5.7794-2.0644 10.753-6.1926 14.92-4.1282 4.1675-9.0823 6.2519-14.862 6.2519-5.7794 0-10.733-2.0844-14.861-6.2519-4.1282-4.1675-6.1926-9.1407-6.1926-14.92 0-5.8188 2.0644-10.792 6.1926-14.92 4.1282-4.1675 9.0814-6.2519 14.861-6.2519zm-13.936 14.172v1.9453h27.874v-1.9453zm0 6.0278v1.9444h27.874v-1.9444zm0 6.0269v1.9452h27.874v-1.9452z" fill="#ddd"/>
</g>
</svg>
