<?xml version="1.0" encoding="UTF-8"?>
<svg width="256" height="256" version="1.1" viewBox="0 0 67.733 67.733" xmlns="http://www.w3.org/2000/svg" xmlns:cc="http://creativecommons.org/ns#" xmlns:dc="http://purl.org/dc/elements/1.1/" xmlns:rdf="http://www.w3.org/1999/02/22-rdf-syntax-ns#" xmlns:xlink="http://www.w3.org/1999/xlink">
<metadata>
<rdf:RDF>
<cc:Work rdf:about="">
<dc:format>image/svg+xml</dc:format>
<dc:type rdf:resource="http://purl.org/dc/dcmitype/StillImage"/>
<dc:title/>
</cc:Work>
</rdf:RDF>
</metadata>
<g transform="translate(0 -229.27)">
<g transform="matrix(1.0784 0 0 1.0784 -3.902 -23.626)" fill="none" stroke="#fff" stroke-linecap="round" stroke-linejoin="round">
<path transform="matrix(.26458 0 0 .26458 0 229.27)" d="m132.37 24.465c-62.994 1.71e-4 -114.06 51.067-114.06 114.06 1.71e-4 62.994 51.067 114.06 114.06 114.06 62.994-1.8e-4 114.06-51.067 114.06-114.06-0.05-2.078-0.15682-4.1544-0.32031-6.2266-2.7001 1.1323-5.5975 1.7191-8.5254 1.7266-12.256-2e-5 -22.191-9.9354-22.191-22.191 7e-3 -0.90728 0.0696-1.8133 0.1875-2.7129-5.8805 3.4914-12.591 5.3389-19.43 5.3496-21.083 1.7e-4 -38.175-17.091-38.176-38.174 0.0217-4.4139 0.80879-8.7906 2.3262-12.936-8.9081-4.9943-14.426-14.408-14.432-24.621 0.0102-4.4902 1.0909-8.9133 3.1523-12.902-5.5098-0.86418-11.075-1.3231-16.652-1.373z" stroke-width="9.2732" style="paint-order:markers stroke fill"/>
<circle cx="19.052" cy="261.2" r="2.5457" stroke-width="2.4535" style="paint-order:markers stroke fill"/>
<circle cx="26.771" cy="249.37" r="2.5457" stroke-width="2.4535" style="paint-order:markers stroke fill"/>
<circle cx="28.659" cy="266.94" r="2.5457" stroke-width="2.4535" style="paint-order:markers stroke fill"/>
<circle cx="42.866" cy="264.32" r="2.5457" stroke-width="2.4535" style="paint-order:markers stroke fill"/>
<circle cx="52.227" cy="275.32" r="2.5457" stroke-width="2.4535" style="paint-order:markers stroke fill"/>
<circle cx="36.379" cy="282.46" r="2.5457" stroke-width="2.4535" style="paint-order:markers stroke fill"/>
<circle cx="22.911" cy="282.05" r="2.5457" stroke-width="2.4535" style="paint-order:markers stroke fill"/>
</g>
</g>
</svg>
