<?xml version="1.0" encoding="UTF-8"?>
<svg width="256" height="256" version="1.1" viewBox="0 0 67.733 67.733" xmlns="http://www.w3.org/2000/svg" xmlns:cc="http://creativecommons.org/ns#" xmlns:dc="http://purl.org/dc/elements/1.1/" xmlns:rdf="http://www.w3.org/1999/02/22-rdf-syntax-ns#">
<metadata>
<rdf:RDF>
<cc:Work rdf:about="">
<dc:format>image/svg+xml</dc:format>
<dc:type rdf:resource="http://purl.org/dc/dcmitype/StillImage"/>
<dc:title/>
</cc:Work>
</rdf:RDF>
</metadata>
<g transform="translate(0 -229.27)">
<g transform="matrix(4.0328 0 0 4.0328 -.2776 -900.46)" fill="none" stroke="#fff" stroke-width=".65608">
<path d="m8.4667 280.46c4.4563 0 8.0698 3.6135 8.0698 8.0698s-3.6135 8.0698-8.0698 8.0698c-0.74421 0-1.345-0.60075-1.345-1.345 0-0.34968 0.13002-0.66351 0.34969-0.90112 0.21071-0.23761 0.33624-0.54695 0.33624-0.89216 0-0.74421-0.60075-1.345-1.345-1.345h-1.5826c-2.4747 0-4.4832-2.0085-4.4832-4.4832 0-3.9632 3.6135-7.1731 8.0698-7.1731z"/>
<path d="m10.848 294.09c0.74421 0 1.345-0.60075 1.345-1.345 0-0.74421-0.60075-1.345-1.345-1.345s-1.345 0.60075-1.345 1.345c0 0.74422 0.60075 1.345 1.345 1.345z"/>
<path d="m11.409 285.76c0.74421 0 1.345-0.60075 1.345-1.345 0-0.7442-0.60075-1.345-1.345-1.345s-1.345 0.60076-1.345 1.345c0 0.74422 0.60075 1.345 1.345 1.345z"/>
<path d="m6.8469 285.06c0.74421 0 1.345-0.60075 1.345-1.345 0-0.7442-0.60075-1.345-1.345-1.345-0.74421 0-1.345 0.60076-1.345 1.345 0 0.74422 0.60075 1.345 1.345 1.345z"/>
<path d="m3.7351 288.53c0.74422 0 1.345-0.60075 1.345-1.345 0-0.74421-0.60075-1.345-1.345-1.345-0.74421 0-1.345 0.60075-1.345 1.345 0 0.74422 0.60075 1.345 1.345 1.345z"/>
</g>
</g>
</svg>
