<?xml version="1.0" encoding="UTF-8" standalone="no"?>
<!-- Created with Inkscape (http://www.inkscape.org/) -->

<svg
   xmlns:dc="http://purl.org/dc/elements/1.1/"
   xmlns:cc="http://creativecommons.org/ns#"
   xmlns:rdf="http://www.w3.org/1999/02/22-rdf-syntax-ns#"
   xmlns:svg="http://www.w3.org/2000/svg"
   xmlns="http://www.w3.org/2000/svg"
   xmlns:sodipodi="http://sodipodi.sourceforge.net/DTD/sodipodi-0.dtd"
   xmlns:inkscape="http://www.inkscape.org/namespaces/inkscape"
   width="512"
   height="512"
   viewBox="0 0 135.46666 135.46667"
   version="1.1"
   id="svg8"
   inkscape:version="0.92.2 5c3e80d, 2017-08-06"
   sodipodi:docname="icon-close.svg">
  <defs
     id="defs2" />
  <sodipodi:namedview
     id="base"
     pagecolor="#484848"
     bordercolor="#666666"
     borderopacity="1.0"
     inkscape:pageopacity="0"
     inkscape:pageshadow="2"
     inkscape:zoom="2.2714844"
     inkscape:cx="175.65606"
     inkscape:cy="256"
     inkscape:document-units="px"
     inkscape:current-layer="layer1"
     showgrid="false"
     units="px" />
  <metadata
     id="metadata5">
    <rdf:RDF>
      <cc:Work
         rdf:about="">
        <dc:format>image/svg+xml</dc:format>
        <dc:type
           rdf:resource="http://purl.org/dc/dcmitype/StillImage" />
        <dc:title />
      </cc:Work>
    </rdf:RDF>
  </metadata>
  <g
     inkscape:label="Layer 1"
     inkscape:groupmode="layer"
     id="layer1"
     transform="translate(0,-161.53332)">
    <path
       style="opacity:1;fill:#ffffff;fill-opacity:1;stroke:none;stroke-width:0.26499999;stroke-linecap:round;stroke-linejoin:round;stroke-miterlimit:4;stroke-dasharray:none;stroke-dashoffset:0;stroke-opacity:1;paint-order:stroke fill markers"
       d="M 135.46666,229.26665 A 67.73333,67.73333 0 0 0 67.733332,161.53332 67.73333,67.73333 0 0 0 0,229.26665 67.73333,67.73333 0 0 0 67.733332,296.99998 67.73333,67.73333 0 0 0 135.46666,229.26665 Z m -29.00029,12.26024 a 6.0005999,6.0005999 0 0 1 -1.81643,4.30464 l -32.673456,32.67191 a 6.0005999,6.0005999 0 0 1 -0.285255,0.26355 6.0005999,6.0005999 0 0 1 -0.172598,0.13952 6.0005999,6.0005999 0 0 1 -0.296622,0.23255 6.0005999,6.0005999 0 0 1 -0.199988,0.13074 6.0005999,6.0005999 0 0 1 -0.301791,0.1912 6.0005999,6.0005999 0 0 1 -0.220658,0.11524 6.0005999,6.0005999 0 0 1 -0.314711,0.15762 6.0005999,6.0005999 0 0 1 -0.233058,0.093 6.0005999,6.0005999 0 0 1 -0.321945,0.12299 6.0005999,6.0005999 0 0 1 -0.273368,0.0786 6.0005999,6.0005999 0 0 1 -0.300241,0.0816 6.0005999,6.0005999 0 0 1 -0.279053,0.0506 6.0005999,6.0005999 0 0 1 -0.317294,0.0527 6.0005999,6.0005999 0 0 1 -0.276468,0.0217 6.0005999,6.0005999 0 0 1 -0.314709,0.0207 6.0005999,6.0005999 0 0 1 -0.312126,-0.006 6.0005999,6.0005999 0 0 1 -0.285771,-0.0103 6.0005999,6.0005999 0 0 1 -0.314193,-0.0377 6.0005999,6.0005999 0 0 1 -0.279569,-0.0377 6.0005999,6.0005999 0 0 1 -0.312127,-0.0703 6.0005999,6.0005999 0 0 1 -0.273367,-0.0651 6.0005999,6.0005999 0 0 1 -0.316775,-0.1049 6.0005999,6.0005999 0 0 1 -0.245465,-0.0858 6.0005999,6.0005999 0 0 1 -0.325043,-0.14521 6.0005999,6.0005999 0 0 1 -0.220141,-0.10181 6.0005999,6.0005999 0 0 1 -0.310576,-0.17828 6.0005999,6.0005999 0 0 1 -0.208775,-0.12351 6.0005999,6.0005999 0 0 1 -0.286803,-0.20515 6.0005999,6.0005999 0 0 1 -0.198953,-0.14676 6.0005999,6.0005999 0 0 1 -0.280604,-0.24599 6.0005999,6.0005999 0 0 1 -0.163814,-0.14831 6.0005999,6.0005999 0 0 1 -0.04289,-0.0393 l -32.673458,-32.6721 a 6.0005999,6.0005999 0 1 1 8.486301,-8.48423 l 22.429639,22.42963 v -73.80686 a 6.0005999,6.0005999 0 1 1 11.999785,0 v 73.80686 L 96.163637,237.3473 a 6.0005999,6.0005999 0 0 1 10.302733,4.17959 z"
       id="path815"
       inkscape:connector-curvature="0" />
  </g>
</svg>
