<?xml version="1.0" encoding="UTF-8"?>
<svg width="256" height="256" version="1.1" viewBox="0 0 67.733 67.733" xmlns="http://www.w3.org/2000/svg" xmlns:cc="http://creativecommons.org/ns#" xmlns:dc="http://purl.org/dc/elements/1.1/" xmlns:rdf="http://www.w3.org/1999/02/22-rdf-syntax-ns#">
<metadata>
<rdf:RDF>
<cc:Work rdf:about="">
<dc:format>image/svg+xml</dc:format>
<dc:type rdf:resource="http://purl.org/dc/dcmitype/StillImage"/>
<dc:title/>
</cc:Work>
</rdf:RDF>
</metadata>
<g transform="translate(0 -229.27)" fill="none" stroke="#fff" stroke-linecap="round" stroke-linejoin="round">
<path d="m40.447 295.66c1.7617-11.895 2.2519-21.152 12.952-33.525 6.7204-7.7716 11.577-19.096 13.01-31.525" stroke-dasharray="2.64583336,5.29166672" stroke-dashoffset="1.3229" stroke-width="2.6458"/>
<path d="m1.3258 295.66c1.7617-11.895 2.2519-21.152 12.952-33.525 6.7204-7.7716 11.577-19.096 13.01-31.525" stroke-dasharray="2.64583336,5.29166672" stroke-dashoffset="1.3229" stroke-width="2.6458"/>
<path transform="matrix(.26458 0 0 .26458 0 229.27)" d="m130.53 119.6c25.4-29.373 41.114-67.552 46.529-114.53" stroke-width="10"/>
<path transform="matrix(.26458 0 0 .26458 0 229.27)" d="m78.941 250.93c5.5935-37.767 4.2735-61.674 28.808-98.261" stroke-width="10"/>
<path d="m26.656 261.64c3.9964 3.3395 5.6423 4.4734 10.296 6.9096" stroke-width="2.6458"/>
<path d="m23.067 264.62-0.97963-5.6856 6.0319-1.7509" stroke-width="2.6458"/>
<path d="m40.184 265.48 1.8655 5.4595-5.6795 2.6818" stroke-width="2.6458"/>
</g>
</svg>
