<?xml version="1.0" encoding="UTF-8" standalone="no"?>
<!-- Created with Inkscape (http://www.inkscape.org/) -->

<svg
   xmlns:dc="http://purl.org/dc/elements/1.1/"
   xmlns:cc="http://creativecommons.org/ns#"
   xmlns:rdf="http://www.w3.org/1999/02/22-rdf-syntax-ns#"
   xmlns:svg="http://www.w3.org/2000/svg"
   xmlns="http://www.w3.org/2000/svg"
   xmlns:sodipodi="http://sodipodi.sourceforge.net/DTD/sodipodi-0.dtd"
   xmlns:inkscape="http://www.inkscape.org/namespaces/inkscape"
   width="256"
   height="256"
   viewBox="0 0 67.733332 67.733336"
   version="1.1"
   id="svg8"
   inkscape:version="0.92.2 5c3e80d, 2017-08-06"
   sodipodi:docname="icon-palette.svg">
  <defs
     id="defs2" />
  <sodipodi:namedview
     id="base"
     pagecolor="#525252"
     bordercolor="#ffffff"
     borderopacity="1"
     inkscape:pageopacity="0"
     inkscape:pageshadow="2"
     inkscape:zoom="4.5429688"
     inkscape:cx="128"
     inkscape:cy="128"
     inkscape:document-units="px"
     inkscape:current-layer="layer1"
     showgrid="true"
     units="px">
    <inkscape:grid
       type="xygrid"
       id="grid992"
       empspacing="1"
       spacingx="0.13229167"
       spacingy="0.13229167"
       empcolor="#10ff00"
       empopacity="0.25098039"
       color="#ff0031"
       opacity="0.1254902" />
  </sodipodi:namedview>
  <metadata
     id="metadata5">
    <rdf:RDF>
      <cc:Work
         rdf:about="">
        <dc:format>image/svg+xml</dc:format>
        <dc:type
           rdf:resource="http://purl.org/dc/dcmitype/StillImage" />
        <dc:title></dc:title>
      </cc:Work>
    </rdf:RDF>
  </metadata>
  <g
     inkscape:label="Layer 1"
     inkscape:groupmode="layer"
     id="layer1"
     transform="translate(0,-229.26665)">
    <g
       id="g5183"
       transform="matrix(4.032787,0,0,4.0327871,-0.2775958,-900.46013)"
       style="stroke-width:0.24796747">
      <path
         inkscape:connector-curvature="0"
         id="path1154"
         d="m 8.4666667,280.46353 c 4.4563183,0 8.0697913,3.61347 8.0697913,8.06979 0,4.45632 -3.613473,8.06979 -8.0697913,8.06979 -0.744214,0 -1.344966,-0.60075 -1.344966,-1.34497 0,-0.34968 0.130015,-0.66351 0.349691,-0.90112 0.210711,-0.23761 0.336242,-0.54695 0.336242,-0.89216 0,-0.74421 -0.600751,-1.34496 -1.3449646,-1.34496 h -1.582577 c -2.474736,0 -4.483217,-2.00849 -4.483217,-4.48323 0,-3.96315 3.613474,-7.17314 8.0697916,-7.17314 z"
         style="fill:none;stroke:#ffffff;stroke-width:0.65608054;stroke-miterlimit:4;stroke-dasharray:none;stroke-opacity:1" />
      <path
         inkscape:connector-curvature="0"
         id="path1152"
         d="m 10.847917,294.08957 c 0.744214,0 1.344965,-0.60075 1.344965,-1.34497 0,-0.74421 -0.600751,-1.34496 -1.344965,-1.34496 -0.744214,0 -1.3449651,0.60075 -1.3449651,1.34496 0,0.74422 0.6007511,1.34497 1.3449651,1.34497 z"
         style="fill:none;stroke:#ffffff;stroke-width:0.65608054;stroke-miterlimit:4;stroke-dasharray:none;stroke-opacity:1" />
      <path
         inkscape:connector-curvature="0"
         id="path1150"
         d="m 11.409375,285.75519 c 0.744214,0 1.344966,-0.60075 1.344966,-1.34497 0,-0.7442 -0.600752,-1.34496 -1.344966,-1.34496 -0.744214,0 -1.344965,0.60076 -1.344965,1.34496 0,0.74422 0.600751,1.34497 1.344965,1.34497 z"
         style="fill:none;stroke:#ffffff;stroke-width:0.65608054;stroke-miterlimit:4;stroke-dasharray:none;stroke-opacity:1" />
      <path
         inkscape:connector-curvature="0"
         id="path1148"
         d="m 6.8468752,285.06144 c 0.7442146,0 1.3449646,-0.60075 1.3449646,-1.34497 0,-0.7442 -0.60075,-1.34496 -1.3449646,-1.34496 -0.744213,0 -1.344965,0.60076 -1.344965,1.34496 0,0.74422 0.600752,1.34497 1.344965,1.34497 z"
         style="fill:none;stroke:#ffffff;stroke-width:0.65608054;stroke-miterlimit:4;stroke-dasharray:none;stroke-opacity:1" />
      <path
         inkscape:connector-curvature="0"
         id="path1128"
         d="m 3.7351271,288.53332 c 0.744215,0 1.344965,-0.60075 1.344965,-1.34497 0,-0.74421 -0.60075,-1.34496 -1.344965,-1.34496 -0.744214,0 -1.344965,0.60075 -1.344965,1.34496 0,0.74422 0.600751,1.34497 1.344965,1.34497 z"
         style="fill:none;stroke:#ffffff;stroke-width:0.65608054;stroke-miterlimit:4;stroke-dasharray:none;stroke-opacity:1" />
    </g>
  </g>
</svg>
