<svg width="24" height="24" version="1.1" viewBox="0 0 6.35 6.35" xmlns="http://www.w3.org/2000/svg">
 <g transform="matrix(.26458 0 0 .26458 -63.54 -6.5205e-6)" fill="#fff">
  <path d="m252.15 0.0039062c-6.5416 0-11.85 5.3797-11.85 11.996 0 6.6164 5.308 11.996 11.85 11.996s11.848-5.3797 11.848-11.996c0-6.6164-5.306-11.996-11.848-11.996zm0 1c5.9941 1e-7 10.848 4.9132 10.848 10.996 0 6.0829-4.8535 10.996-10.848 10.996s-10.85-4.9132-10.85-10.996c0-6.0829 4.8555-10.996 10.85-10.996z" color="#000000" stroke-linecap="round" stroke-linejoin="round" style="-inkscape-stroke:none;paint-order:stroke fill markers"/>
  <path d="m244.67 7.2v9.4079h4.8326s2.95 0.095 2.95-2.7768c0 0 0.12898-2.336-1.7391-2.336 0 0 1.417-0.1069 1.417-1.7902s-1.1594-2.5049-2.6279-2.5049h-2.7825zm9.7191 0.5539v1.1589h3.8314v-1.1589zm-7.5897 1.118h2.7033s0.65698 0 0.65698 0.9789c0 0.9787-0.38626 1.1207-0.82445 1.1207h-2.5358zm9.5877 0.7217c-3.5713 0-3.568 3.6146-3.568 3.6146s-0.24509 3.5963 3.568 3.5963c0 0 3.1776 0.184 3.1776-2.5017h-1.6341s0.0542 1.0117-1.4892 1.0117c0 0-1.6344 0.111-1.6344-1.6371h4.812s0.52656-4.0838-3.2321-4.0838zm0.0362 1.3779c1.4345 0 1.4164 1.4502 1.4164 1.4502h-3.0504s0.19954-1.4502 1.6341-1.4502zm-9.6238 1.4502h2.7033s0.97901-0.013 0.97901 1.2918c0 1.1232-0.76105 1.2176-1.1381 1.2223h-2.5442z"/>
 </g>
</svg>
