<?xml version="1.0" encoding="UTF-8"?>
<svg width="256" height="256" version="1.1" viewBox="0 0 67.733 67.733" xmlns="http://www.w3.org/2000/svg" xmlns:cc="http://creativecommons.org/ns#" xmlns:dc="http://purl.org/dc/elements/1.1/" xmlns:rdf="http://www.w3.org/1999/02/22-rdf-syntax-ns#" xmlns:xlink="http://www.w3.org/1999/xlink">
<metadata>
<rdf:RDF>
<cc:Work rdf:about="">
<dc:format>image/svg+xml</dc:format>
<dc:type rdf:resource="http://purl.org/dc/dcmitype/StillImage"/>
<dc:title/>
</cc:Work>
</rdf:RDF>
</metadata>
<g transform="translate(0 -229.27)" fill="none" stroke="#fff" stroke-linecap="round" stroke-linejoin="round">
<path d="m1.9846 230.59h63.764c0.36655 0 0.66164 0.29509 0.66164 0.66165v63.772c0 0.36655-0.29509 0.66164-0.66164 0.66164h-63.764c-0.36655 0-0.66164-0.29509-0.66164-0.66164v-63.772c0-0.36656 0.29509-0.66165 0.66164-0.66165" stroke-width="2.6458"/>
<path transform="matrix(.26458 0 0 .26458 0 229.27)" d="m164.37 215.81 14.566 35.166" stroke-width="10"/>
<path transform="matrix(.26458 0 0 .26458 0 229.27)" d="m77.061 5.0218 14.566 35.166" stroke-width="10"/>
<path transform="matrix(.26458 0 0 .26458 0 229.27)" d="m128 223.13 3e-5 27.85" stroke-width="10"/>
<path transform="matrix(.26458 0 0 .26458 0 229.27)" d="m128 5.022 4e-5 27.85" stroke-width="10"/>
<path transform="matrix(.26458 0 0 .26458 0 229.27)" d="m91.608 215.86-14.548 35.121" stroke-width="10"/>
<path transform="matrix(.26458 0 0 .26458 0 229.27)" d="m178.94 5.0212-14.548 35.121" stroke-width="10"/>
<path transform="matrix(.26458 0 0 .26458 0 229.27)" d="m60.775 195.22-55.014 55.014" stroke-width="10"/>
<path transform="matrix(.26458 0 0 .26458 0 229.27)" d="m250.24 5.7611-55.014 55.014" stroke-width="10"/>
<path transform="matrix(.26458 0 0 .26458 0 229.27)" d="m40.188 164.37-35.152 14.561" stroke-width="10"/>
<path transform="matrix(.26458 0 0 .26458 0 229.27)" d="m250.96 77.066-35.152 14.561" stroke-width="10"/>
<path transform="matrix(.26458 0 0 .26458 0 229.27)" d="m32.871 128-27.836 3e-5" stroke-width="10"/>
<path transform="matrix(.26458 0 0 .26458 0 229.27)" d="m250.96 128-27.836 3e-5" stroke-width="10"/>
<path transform="matrix(.26458 0 0 .26458 0 229.27)" d="m195.22 195.22 55.014 55.014" stroke-width="10"/>
<path transform="matrix(.26458 0 0 .26458 0 229.27)" d="m5.7611 5.7614 55.014 55.014" stroke-width="10"/>
<path transform="matrix(.26458 0 0 .26458 0 229.27)" d="m40.142 91.608-35.107-14.542" stroke-width="10"/>
<path transform="matrix(.26458 0 0 .26458 0 229.27)" d="m250.97 178.93-35.107-14.542" stroke-width="10"/>
</g>
</svg>
