<?xml version="1.0" encoding="UTF-8"?>
<svg width="512" height="512" version="1.1" viewBox="0 0 135.47 135.47" xmlns="http://www.w3.org/2000/svg" xmlns:cc="http://creativecommons.org/ns#" xmlns:dc="http://purl.org/dc/elements/1.1/" xmlns:rdf="http://www.w3.org/1999/02/22-rdf-syntax-ns#">
<metadata>
<rdf:RDF>
<cc:Work rdf:about="">
<dc:format>image/svg+xml</dc:format>
<dc:type rdf:resource="http://purl.org/dc/dcmitype/StillImage"/>
<dc:title/>
</cc:Work>
</rdf:RDF>
</metadata>
<g transform="translate(0 -161.53)">
<path d="m135.47 229.27a67.733 67.733 0 0 0-67.733-67.733 67.733 67.733 0 0 0-67.733 67.733 67.733 67.733 0 0 0 67.733 67.733 67.733 67.733 0 0 0 67.733-67.733zm-29 12.26a6.0006 6.0006 0 0 1-1.8164 4.3046l-32.673 32.672a6.0006 6.0006 0 0 1-0.28526 0.26355 6.0006 6.0006 0 0 1-0.1726 0.13952 6.0006 6.0006 0 0 1-0.29662 0.23255 6.0006 6.0006 0 0 1-0.19999 0.13074 6.0006 6.0006 0 0 1-0.30179 0.1912 6.0006 6.0006 0 0 1-0.22066 0.11524 6.0006 6.0006 0 0 1-0.31471 0.15762 6.0006 6.0006 0 0 1-0.23306 0.093 6.0006 6.0006 0 0 1-0.32194 0.12299 6.0006 6.0006 0 0 1-0.27337 0.0786 6.0006 6.0006 0 0 1-0.30024 0.0816 6.0006 6.0006 0 0 1-0.27905 0.0506 6.0006 6.0006 0 0 1-0.31729 0.0527 6.0006 6.0006 0 0 1-0.27647 0.0217 6.0006 6.0006 0 0 1-0.31471 0.0207 6.0006 6.0006 0 0 1-0.31213-6e-3 6.0006 6.0006 0 0 1-0.28577-0.0103 6.0006 6.0006 0 0 1-0.31419-0.0377 6.0006 6.0006 0 0 1-0.27957-0.0377 6.0006 6.0006 0 0 1-0.31213-0.0703 6.0006 6.0006 0 0 1-0.27337-0.0651 6.0006 6.0006 0 0 1-0.31678-0.1049 6.0006 6.0006 0 0 1-0.24546-0.0858 6.0006 6.0006 0 0 1-0.32504-0.14521 6.0006 6.0006 0 0 1-0.22014-0.10181 6.0006 6.0006 0 0 1-0.31058-0.17828 6.0006 6.0006 0 0 1-0.20878-0.12351 6.0006 6.0006 0 0 1-0.2868-0.20515 6.0006 6.0006 0 0 1-0.19895-0.14676 6.0006 6.0006 0 0 1-0.2806-0.24599 6.0006 6.0006 0 0 1-0.16381-0.14831 6.0006 6.0006 0 0 1-0.04289-0.0393l-32.673-32.672a6.0006 6.0006 0 1 1 8.4863-8.4842l22.43 22.43v-73.807a6.0006 6.0006 0 1 1 12 0v73.807l22.43-22.43a6.0006 6.0006 0 0 1 10.303 4.1796z" fill="#fff" style="paint-order:stroke fill markers"/>
</g>
</svg>
