<?xml version="1.0" encoding="UTF-8"?>
<svg width="256" height="256" version="1.1" viewBox="0 0 67.733 67.733" xmlns="http://www.w3.org/2000/svg" xmlns:cc="http://creativecommons.org/ns#" xmlns:dc="http://purl.org/dc/elements/1.1/" xmlns:rdf="http://www.w3.org/1999/02/22-rdf-syntax-ns#">
<metadata>
<rdf:RDF>
<cc:Work rdf:about="">
<dc:format>image/svg+xml</dc:format>
<dc:type rdf:resource="http://purl.org/dc/dcmitype/StillImage"/>
<dc:title/>
</cc:Work>
</rdf:RDF>
</metadata>
<g transform="translate(0 -229.27)" fill="none" stroke="#fff" stroke-linecap="round" stroke-linejoin="round">
<ellipse transform="matrix(.99999 .004952 -.0049575 .99999 0 0)" cx="14.685" cy="281.83" rx="1.3237" ry="1.3229" stroke-width="2.6458" style="paint-order:stroke fill markers"/>
<rect transform="matrix(.70731 .7069 -.70731 .7069 0 0)" x="197.14" y="136.47" width="17.711" height="59.529" rx="1.1542" ry="1.4826" stroke-width="2.6458" style="paint-order:stroke fill markers"/>
<rect transform="matrix(.70731 .7069 -.70731 .7069 0 0)" x="201.15" y="140.71" width="9.692" height="9.692" rx="1.1542" ry="1.4826" stroke-width="2.6458" style="paint-order:stroke fill markers"/>
<rect transform="matrix(.70731 .7069 -.70731 .7069 0 0)" x="201.15" y="154.81" width="9.692" height="9.692" rx="1.1542" ry="1.4826" stroke-width="2.6458" style="paint-order:stroke fill markers"/>
<rect transform="matrix(.70731 .7069 -.70731 .7069 0 0)" x="201.15" y="168.91" width="9.692" height="9.692" rx="1.1542" ry="1.4826" stroke-width="2.6458" style="paint-order:stroke fill markers"/>
<path d="m48.049 284.97v0.45098c0 0.59429-0.61495 1.0727-1.3788 1.0727h-4.3103m19.791-5.2996v4.2269c0 0.59429-0.61496 1.0727-1.3788 1.0727h-6.9372c-0.76387 0-1.3788-0.47843-1.3788-1.0727l2e-6 -1.631m13.936-3.7318v9.3712c0 0.59429-0.61496 1.0727-1.3788 1.0727h-43.738" stroke-width="2.6458" style="paint-order:stroke fill markers"/>
<path d="m46.884 275.23 0.11679 0.43562c0.1539 0.57403-0.31619 1.1952-1.054 1.3928l-4.1635 1.1149m17.744-10.238 1.0946 4.0829c0.1539 0.57403-0.3162 1.1952-1.054 1.3928l-6.7008 1.7944c-0.73784 0.19759-1.4557-0.10547-1.6096-0.67951l-0.42238-1.5754m12.495-7.2095 2.4269 9.0519c0.1539 0.57404-0.31542 1.1982-1.054 1.3928l-39.184 10.326" stroke-width="2.6458" style="paint-order:stroke fill markers"/>
<path d="m43.455 266.17 0.22562 0.39057c0.29731 0.51466 0.0041 1.2363-0.65743 1.618l-3.7329 2.1539m14.488-14.479 2.1147 3.6606c0.29732 0.51465 0.0041 1.2363-0.65743 1.618l-6.0078 3.4666c-0.66153 0.38171-1.4335 0.27467-1.7308-0.24l-0.81599-1.4125m10.202-10.196 4.6883 8.1157c0.29732 0.51467 0.0041 1.2363-0.65742 1.618l-30.943 17.398" stroke-width="2.6458" style="paint-order:stroke fill markers"/>
</g>
</svg>
