<?xml version="1.0" encoding="UTF-8"?>
<svg width="256" height="256" version="1.1" viewBox="0 0 67.733 67.733" xmlns="http://www.w3.org/2000/svg" xmlns:cc="http://creativecommons.org/ns#" xmlns:dc="http://purl.org/dc/elements/1.1/" xmlns:rdf="http://www.w3.org/1999/02/22-rdf-syntax-ns#">
<metadata>
<rdf:RDF>
<cc:Work rdf:about="">
<dc:format>image/svg+xml</dc:format>
<dc:type rdf:resource="http://purl.org/dc/dcmitype/StillImage"/>
<dc:title/>
</cc:Work>
</rdf:RDF>
</metadata>
<g transform="translate(0 -229.27)" fill="none" stroke="#fff" stroke-linecap="round" stroke-linejoin="round">
<path d="m55.279 278.93 6.3512 3.134-27.591 13.615-27.591-13.615 6.3512-3.134" stroke-width="2.6458" style="paint-order:markers stroke fill"/>
<path transform="matrix(.26458 0 0 .26458 0 229.27)" d="m150.01 116.35 82.922 40.918-104.28 51.457-104.28-51.457 81.613-40.272" stroke-width="10" style="paint-order:markers stroke fill"/>
<path d="m21.095 230.6c-4.6592 1.4754-9.5514 2.5432-14.677 3.2032 3.9021 3.1256 7.3383 6.7753 10.309 10.774m17.156 26.249c0-19.974-4.4651-27.509-14.909-32.964" stroke-width="2.6458"/>
<path d="m46.638 230.6c4.6592 1.4754 9.5514 2.5432 14.677 3.2032-3.9021 3.1256-7.3383 6.7753-10.309 10.774m-17.156 26.249c0-19.974 4.4651-27.509 14.909-32.964" stroke-width="2.6458"/>
</g>
</svg>
