<?xml version="1.0" encoding="UTF-8"?>
<svg width="256" height="256" version="1.1" viewBox="0 0 67.733 67.733" xmlns="http://www.w3.org/2000/svg">
<g transform="translate(0 -229.27)" fill="none" stroke="#fff" stroke-linecap="round" stroke-linejoin="round" stroke-width="2.6458">
<path d="m41.181 245.02a14.432 14.432 0 0 1-14.432 14.432 14.432 14.432 0 0 1-14.432-14.432 14.432 14.432 0 0 1 14.432-14.432 14.432 14.432 0 0 1 14.432 14.432zm-12.585 17.582a14.432 14.432 0 0 1-12.84 7.8431 14.432 14.432 0 0 1-14.432-14.432 14.432 14.432 0 0 1 7.8504-12.844m6.9129-1.5845a14.432 14.432 0 0 1 14.098 14.096" style="paint-order:markers stroke fill"/>
<rect x="35.983" y="265.25" width="30.427" height="30.427" style="paint-order:normal"/>
<circle cx="51.197" cy="280.46" r="10.274" stroke-dasharray="2.64583336,5.29166672" style="paint-order:normal"/>
<path d="m56.436 257.14-5.2917-5.2917m-5.2917-10.583c7.9375 0 10.583 2.6458 10.583 15.875l5.2917-5.2917"/>
</g>
</svg>
