<?xml version="1.0" encoding="UTF-8"?>
<svg width="256" height="256" version="1.1" viewBox="0 0 67.733 67.733" xmlns="http://www.w3.org/2000/svg" xmlns:cc="http://creativecommons.org/ns#" xmlns:dc="http://purl.org/dc/elements/1.1/" xmlns:rdf="http://www.w3.org/1999/02/22-rdf-syntax-ns#" xmlns:xlink="http://www.w3.org/1999/xlink">
<metadata>
<rdf:RDF>
<cc:Work rdf:about="">
<dc:format>image/svg+xml</dc:format>
<dc:type rdf:resource="http://purl.org/dc/dcmitype/StillImage"/>
<dc:title/>
</cc:Work>
</rdf:RDF>
</metadata>
<g transform="translate(0 -229.27)">
<path d="m1.9846 230.59h63.764c0.36655 0 0.66164 0.29509 0.66164 0.66165v63.772c0 0.36655-0.29509 0.66164-0.66164 0.66164h-63.764c-0.36655 0-0.66164-0.29509-0.66164-0.66164v-63.772c0-0.36656 0.29509-0.66165 0.66164-0.66165v0" fill="none" stroke="#fff" stroke-linecap="round" stroke-linejoin="round" stroke-width="2.646"/>
<circle cx="57.079" cy="250.77" r="1.3229" fill="#fff" style="paint-order:normal"/>
<circle cx="37.261" cy="246.04" r="1.3229" fill="#fff" style="paint-order:normal"/>
<circle cx="26.27" cy="249.37" r="1.3229" fill="#fff" style="paint-order:normal"/>
<circle cx="15.782" cy="252.24" r="1.3229" fill="#fff" style="paint-order:normal"/>
<circle cx="51.596" cy="260.16" r="1.3229" fill="#fff" style="paint-order:normal"/>
<circle cx="23.178" cy="272.82" r="1.3229" fill="#fff" style="paint-order:normal"/>
<circle cx="46.998" cy="271.76" r="1.3229" fill="#fff" style="paint-order:normal"/>
<circle cx="33.912" cy="256.15" r="1.3229" fill="#fff" style="paint-order:normal"/>
<circle cx="46.231" cy="237.81" r="1.3229" fill="#fff" style="paint-order:normal"/>
<circle cx="27.889" cy="237.86" r="1.3229" fill="#fff" style="paint-order:normal"/>
<circle cx="12.204" cy="238.9" r="1.3229" fill="#fff" style="paint-order:normal"/>
<circle cx="9.4468" cy="246.02" r="1.3229" fill="#fff" style="paint-order:normal"/>
<circle cx="57.467" cy="238.47" r="1.3229" fill="#fff" style="paint-order:normal"/>
<circle cx="13.799" cy="266.14" r="1.3229" fill="#fff" style="paint-order:normal"/>
<circle cx="10.518" cy="284.53" r="1.3229" fill="#fff" style="paint-order:normal"/>
<circle cx="37.154" cy="236.47" r="1.3229" fill="#fff" style="paint-order:normal"/>
<circle cx="57.502" cy="266.77" r="1.3229" fill="#fff" style="paint-order:normal"/>
<circle cx="42.471" cy="262.45" r="1.3229" fill="#fff" style="paint-order:normal"/>
<circle cx="23.52" cy="260.9" r="1.3229" fill="#fff" style="paint-order:normal"/>
<circle cx="12.147" cy="274.74" r="1.3229" fill="#fff" style="paint-order:normal"/>
<circle cx="55.721" cy="276.38" r="1.3229" fill="#fff" style="paint-order:normal"/>
<circle cx="27.801" cy="287.51" r="1.3229" fill="#fff" style="paint-order:normal"/>
<circle cx="41.105" cy="279.52" r="1.3229" fill="#fff" style="paint-order:normal"/>
<circle cx="31.334" cy="278.4" r="1.3229" fill="#fff" style="paint-order:normal"/>
<circle cx="34.022" cy="267.67" r="1.3229" fill="#fff" style="paint-order:normal"/>
<circle cx="19.174" cy="282.5" r="1.3229" fill="#fff" style="paint-order:normal"/>
<circle cx="37.939" cy="288.63" r="1.3229" fill="#fff" style="paint-order:normal"/>
<circle cx="58.874" cy="286.1" r="1.3229" fill="#fff" style="paint-order:normal"/>
<circle cx="9.4867" cy="257.95" r="1.3229" fill="#fff" style="paint-order:normal"/>
<circle cx="44.594" cy="252.83" r="1.3229" fill="#fff" style="paint-order:normal"/>
<circle cx="19.187" cy="242.96" r="1.3229" fill="#fff" style="paint-order:normal"/>
<circle cx="49.599" cy="244.56" r="1.3229" fill="#fff" style="paint-order:normal"/>
<circle cx="49.657" cy="286.24" r="1.3229" fill="#fff" style="paint-order:normal"/>
</g>
</svg>
