<svg width="24" height="24" version="1.1" viewBox="0 0 6.35 6.35" xmlns="http://www.w3.org/2000/svg">
 <g transform="matrix(.26458 0 0 .26458 -38.108 -6.5205e-6)" fill="#fff">
  <path d="m156.03 0.0039062c-6.5416 0-11.848 5.3797-11.848 11.996 0 6.6164 5.306 11.996 11.848 11.996 6.5416 0 11.85-5.3797 11.85-11.996 0-6.6164-5.308-11.996-11.85-11.996zm0 1c5.9941 1e-7 10.85 4.9132 10.85 10.996s-4.8555 10.996-10.85 10.996-10.848-4.9132-10.848-10.996 4.8535-10.996 10.848-10.996z" color="#000000" stroke-linecap="round" stroke-linejoin="round" style="-inkscape-stroke:none;paint-order:stroke fill markers"/>
  <path d="m148.68 14.3c0.95584 0.8941 3.4102 1.7403 5.4075-0.24-0.35916 0.057-0.65905-0.013-0.8867-0.2401-0.21612-0.2164-0.22792-0.4404-0.11229-0.6441 0.094-0.1659 0.29221-0.2826 0.48704-0.4042-0.35346 0.066-0.65487 0.032-0.92417-0.1069-0.36155-0.187-0.71322-0.3837-0.81175-0.7895 0.22112-0.2355 0.46701-0.4456 0.99912-0.3662-0.50053-0.1692-0.94904-0.3897-1.2739-0.7201-0.31628-0.3218-0.34887-0.5311-0.39962-0.7833 0.27621-0.1042 0.56473-0.1574 0.8742-0.1258-0.69983-0.3619-0.99695-0.8597-1.1614-1.4021-0.0495-0.164-0.0588-0.32-0.0375-0.4801 2.8348 1.0824 4.1623 1.8602 4.8954 2.5896 0.32973-0.8876 1.0985-2.8976 2.248-3.5875 5e-3 0.1095-0.0375 0.2273-0.12496 0.3537 0.34023-0.1917 0.60593-0.4989 1.074-0.4926-0.0539 0.2238-0.20883 0.4032-0.51203 0.5179 0.30584-0.1191 0.61562-0.219 0.93664-0.278 0.2976-0.054 0.2933 0.183 0.12483 0.3031-0.3418 0.244-0.70505 0.2743-1.0615 0.3917 1.093 0.027 1.9869 0.551 2.685 1.6927 0.23201 0.3794 0.38775 0.7588 0.4246 1.1749 0.46625 0.1325 0.93015 0.1594 1.3987 0.076 0.1283-0.024 0.24796-0.047 0.36216-0.1014-0.18215 0.2764-0.39248 0.5035-0.68682 0.6063-0.28138 0.099-0.56326 0.1941-0.8742 0.2022 0.50605 0.1937 1.0638 0.2044 1.636 0.1641-0.69999 0.6815-1.2357 0.665-1.7734 0.6569-0.23577 1.007-0.7178 2.0113-1.7359 2.9308-1.3356 1.206-2.7732 1.7814-4.2585 1.9075-1.3926 0.1176-2.739 0.1014-4.2086-0.5938-1.0897-0.5157-2.003-1.2256-2.71-2.2106z"/>
 </g>
</svg>
