<svg width="24" height="24" version="1.1" viewBox="0 0 6.35 6.35" xmlns="http://www.w3.org/2000/svg">
 <g transform="matrix(.26458 0 0 .26458 -44.466 -6.5205e-6)" stroke="#fff">
  <ellipse cx="180.06" cy="12" rx="11.349" ry="11.497" fill="none" stroke-linecap="round" stroke-linejoin="round" style="paint-order:stroke fill markers"/>
  <path d="m178.47 12.5-4.2357 3.7667h11.631l-4.324-3.7667-1.2531 1.0888a0.42922 0.41214 0 0 1-0.0176 0.018 0.42922 0.41214 0 0 1-0.0176 0 0.42922 0.41214 0 0 1-0.0176 0.018 0.42922 0.41214 0 0 1-0.0176 0.018 0.42922 0.41214 0 0 1-0.0706 0.035 0.42922 0.41214 0 0 1-0.0352 0 0.42922 0.41214 0 0 1-0.10587 0.018 0.42922 0.41214 0 0 1-0.0352 0 0.42922 0.41214 0 0 1-0.0882-0.018 0.42922 0.41214 0 0 1-0.0706-0.017 0.42922 0.41214 0 0 1-0.0176 0 0.42922 0.41214 0 0 1-0.0352-0.035 0.42922 0.41214 0 0 1-0.0352-0.018 0.42922 0.41214 0 0 1-0.0176-0.018h-0.0176zm-4.8888-4.3383v7.5694l4.271-3.7667zm12.954-0.018-4.3593 3.8026 4.3593 3.8024zm-12.301-0.5178 4.4299 3.9276a0.42922 0.41214 0 0 1 0.0883 0.054l0.0352 0.018 1.2001 1.0889 1.2531-1.0889 0.0352-0.035a0.42922 0.41214 0 0 1 0.0176 0l4.5887-3.9633h-11.648zm-1.1648-0.8211a0.42922 0.41214 0 0 1 0.0352 0 0.42922 0.41214 0 0 1 0.0352 0 0.42922 0.41214 0 0 1 0.0176 0 0.42922 0.41214 0 0 1 0.0352 0h13.784a0.42922 0.41214 0 0 1 0.0529 0 0.42922 0.41214 0 0 1 0.10588 0.035 0.42922 0.41214 0 0 1 0.0529 0.017 0.42922 0.41214 0 0 1 0.0176 0.018 0.42922 0.41214 0 0 1 0.0176 0.018 0.42922 0.41214 0 0 1 0.0176 0 0.42922 0.41214 0 0 1 0.0352 0.053 0.42922 0.41214 0 0 1 0.0353 0.017 0.42922 0.41214 0 0 1 0 0.018 0.42922 0.41214 0 0 1 0.0176 0.018 0.42922 0.41214 0 0 1 0 0.018 0.42922 0.41214 0 0 1 0.0176 0 0.42922 0.41214 0 0 1 0 0.018 0.42922 0.41214 0 0 1 0.0176 0.018 0.42922 0.41214 0 0 1 0 0.017 0.42922 0.41214 0 0 1 0.0176 0.018 0.42922 0.41214 0 0 1 0 0.018 0.42922 0.41214 0 0 1 0.0176 0.072 0.42922 0.41214 0 0 1 0 0.035 0.42922 0.41214 0 0 1 0 0.018 0.42922 0.41214 0 0 1 0 0.053v9.3368a0.42922 0.41214 0 0 1 0 0.054 0.42922 0.41214 0 0 1 0 0.035 0.42922 0.41214 0 0 1-0.0353 0.1244 0.42922 0.41214 0 0 1-0.0176 0.035 0.42922 0.41214 0 0 1-0.0176 0.018 0.42922 0.41214 0 0 1-0.0176 0.036 0.42922 0.41214 0 0 1-0.0353 0.035 0.42922 0.41214 0 0 1-0.0176 0.018 0.42922 0.41214 0 0 1-0.0176 0 0.42922 0.41214 0 0 1-0.0176 0.035 0.42922 0.41214 0 0 1-0.0352 0.018 0.42922 0.41214 0 0 1-0.15884 0.053 0.42922 0.41214 0 0 1-0.0529 0h-13.784a0.42922 0.41214 0 0 1-0.0529 0 0.42922 0.41214 0 0 1-0.0706 0 0.42922 0.41214 0 0 1-0.0176 0 0.42922 0.41214 0 0 1-0.0352-0.018 0.42922 0.41214 0 0 1-0.0706-0.035 0.42922 0.41214 0 0 1-0.0706-0.035 0.42922 0.41214 0 0 1 0-0.018 0.42922 0.41214 0 0 1-0.0353-0.018 0.42922 0.41214 0 0 1-0.0352-0.035 0.42922 0.41214 0 0 1-0.0176-0.018 0.42922 0.41214 0 0 1 0-0.018 0.42922 0.41214 0 0 1-0.0176-0.017 0.42922 0.41214 0 0 1-0.053-0.1069 0.42922 0.41214 0 0 1 0-0.018 0.42922 0.41214 0 0 1 0-0.072v-0.017a0.42922 0.41214 0 0 1 0-0.035v-9.3904a0.42922 0.41214 0 0 1 0-0.018 0.42922 0.41214 0 0 1 0.0176-0.018 0.42922 0.41214 0 0 1 0-0.089 0.42922 0.41214 0 0 1 0.0176-0.035 0.42922 0.41214 0 0 1 0.0176-0.053 0.42922 0.41214 0 0 1 0.0176-0.018 0.42922 0.41214 0 0 1 0.0176-0.035 0.42922 0.41214 0 0 1 0.0353-0.018 0.42922 0.41214 0 0 1 0.0352-0.035 0.42922 0.41214 0 0 1 0.0352-0.017 0.42922 0.41214 0 0 1 0-0.018 0.42922 0.41214 0 0 1 0.0706-0.035 0.42922 0.41214 0 0 1 0.0352-0.018 0.42922 0.41214 0 0 1 0.0529-0.018z" stroke-width=".3" style="paint-order:markers stroke fill"/>
 </g>
</svg>
