<?xml version="1.0" encoding="UTF-8"?>
<svg width="256" height="256" version="1.1" viewBox="0 0 67.733 67.733" xmlns="http://www.w3.org/2000/svg" xmlns:cc="http://creativecommons.org/ns#" xmlns:dc="http://purl.org/dc/elements/1.1/" xmlns:rdf="http://www.w3.org/1999/02/22-rdf-syntax-ns#" xmlns:xlink="http://www.w3.org/1999/xlink">
<metadata>
<rdf:RDF>
<cc:Work rdf:about="">
<dc:format>image/svg+xml</dc:format>
<dc:type rdf:resource="http://purl.org/dc/dcmitype/StillImage"/>
<dc:title/>
</cc:Work>
</rdf:RDF>
</metadata>
<g transform="translate(0 -229.27)">
<g transform="translate(-.10677)" fill="none" stroke="#fff" stroke-linecap="round" stroke-linejoin="round">
<g transform="matrix(1.183 0 0 1.18 -9.6715 -43.969)">
<path d="m37.158 279.67-19.173-11.07c-0.31735-0.18322-0.44049-0.59546-0.24211-0.90356l22.339-34.693c0.19842-0.30808 0.58621-0.42533 0.90356-0.24211l15.709 9.0696c0.31735 0.18322 0.40973 0.57771 0.24211 0.90356l-18.875 36.693c-0.16759 0.32587-0.58621 0.42532-0.90356 0.2421z" stroke-width="2.2395" style="paint-order:markers stroke fill"/>
<path d="m21.084 270.44 12.931 7.4656c0.21402 0.12357 0.3662 0.28186 0.31802 0.34137l-5.4248 6.6984c-0.0482 0.0595-0.24062 0.0188-0.45464-0.10472l-10.594-6.1167c-0.21402-0.12356-0.34546-0.26988-0.31801-0.34137l3.0886-8.0472c0.02741-0.0715 0.24062-0.0188 0.45464 0.10472z" stroke-width="2.2395" style="paint-order:markers stroke fill"/>
<path d="m20.882 280.43 4.5827 2.6458-2.5566 4.7692h-6.3072z" stroke-width="2.2395" style="paint-order:markers stroke fill"/>
</g>
<path d="m28.858 295.68h29.104" stroke-width="2.6458"/>
</g>
</g>
</svg>
