<svg width="24" height="24" version="1.1" viewBox="0 0 6.35 6.35" xmlns="http://www.w3.org/2000/svg">
 <g transform="matrix(.26458 0 0 .26458 -31.747 -6.5205e-6)" fill="#fff">
  <path d="m131.99 0.0039062c-6.5416 0-11.85 5.3797-11.85 11.996 0 6.6164 5.308 11.996 11.85 11.996 6.5416 0 11.85-5.3797 11.85-11.996 0-6.6164-5.308-11.996-11.85-11.996zm0 1c5.9941 1e-7 10.85 4.9132 10.85 10.996s-4.8555 10.996-10.85 10.996-10.85-4.9132-10.85-10.996 4.8555-10.996 10.85-10.996z" color="#000000" stroke-linecap="round" stroke-linejoin="round" style="-inkscape-stroke:none;paint-order:stroke fill markers"/>
  <path d="m133.83 4.5h1.8386v2.4797h-1.4747c-0.94829 0-0.97674 0.5709-0.97674 1.2397v1.2398h2.4514l-0.42135 2.4798h-2.0301v7.4391h-3.0643v-7.4391h-1.8386v-2.4798h1.8386v-1.8597c0-2.0915 1.2416-3.0995 3.6772-3.0995z" color="#000000"/>
 </g>
</svg>
