<?xml version="1.0" encoding="UTF-8"?>
<svg width="256" height="256" version="1.1" viewBox="0 0 67.733 67.733" xmlns="http://www.w3.org/2000/svg" xmlns:cc="http://creativecommons.org/ns#" xmlns:dc="http://purl.org/dc/elements/1.1/" xmlns:rdf="http://www.w3.org/1999/02/22-rdf-syntax-ns#" xmlns:xlink="http://www.w3.org/1999/xlink">
<style/>
<metadata>
<rdf:RDF>
<cc:Work rdf:about="">
<dc:format>image/svg+xml</dc:format>
<dc:type rdf:resource="http://purl.org/dc/dcmitype/StillImage"/>
<dc:title/>
</cc:Work>
</rdf:RDF>
</metadata>
<g transform="translate(0 -229.27)" fill="none" stroke="#fefefe" stroke-linecap="round" stroke-linejoin="round" stroke-width="2.6458">
<path d="m4.7491 234.02a11.749 11.749 0 0 0-0.11178 16.488l-0.00793 8e-3 0.11971 0.11971 6.1301 6.1301a28.873 24.803 45 0 0 8.2867 26.714l35.043-35.043a28.873 24.803 45 0 0-26.714-8.2867l-6.2499-6.2499-0.0079 8e-3a11.749 11.749 0 0 0-16.488 0.11177z" stop-color="#000000" style="font-variation-settings:normal;paint-order:stroke fill markers"/>
<path d="m54.41 254.14 12 2.7692m-17.268 6.732 13.108 7.5692m-19.963 0.34454 12.185 12.185m-19.569-4.8 7.5692 13.108m-17.6-8.3689 2.7692 12" stop-color="#000000" style="font-variation-settings:normal;paint-order:stroke fill markers"/>
</g>
</svg>
