<?xml version="1.0" encoding="UTF-8"?>
<svg width="256" height="256" version="1.1" viewBox="0 0 67.733 67.733" xmlns="http://www.w3.org/2000/svg">
<g transform="translate(0 -229.27)">
<g transform="matrix(1.0192 0 0 1.019 -3.5596 -5.3367)" fill="none" stroke="#fff" stroke-linecap="round" stroke-linejoin="round">
<path transform="matrix(.26458 0 0 .26458 0 229.27)" d="m148.24 127.44 79.109-115.33c2.6212-3.8214 7.8079-4.7875 11.629-2.1663 3.8214 2.6213 4.7875 7.8079 2.1663 11.629l-79.194 115.45z" stroke-width="9.8126" style="paint-order:markers stroke fill"/>
<g stroke-width="2.5962">
<path d="m40.701 268.7c-4.954 8.2103-5.7259 18.652-5.8127 26.686-9.5902-2.6014-20.171-7.6489-25.626-17.414 7.4761-1.4548 21.884-5.3356 27.771-11.835z"/>
<path d="m15.028 284.76c3.4764-1.6698 6.46-3.2574 8.9509-5.502"/>
<path d="m23.322 290.35c2.792-1.9435 5.0092-4.626 6.6516-7.8013"/>
</g>
</g>
</g>
</svg>
