<?xml version="1.0" encoding="UTF-8"?>
<svg width="256" height="256" version="1.1" viewBox="0 0 67.733 67.733" xmlns="http://www.w3.org/2000/svg" xmlns:cc="http://creativecommons.org/ns#" xmlns:dc="http://purl.org/dc/elements/1.1/" xmlns:rdf="http://www.w3.org/1999/02/22-rdf-syntax-ns#">
<metadata>
<rdf:RDF>
<cc:Work rdf:about="">
<dc:format>image/svg+xml</dc:format>
<dc:type rdf:resource="http://purl.org/dc/dcmitype/StillImage"/>
<dc:title/>
</cc:Work>
</rdf:RDF>
</metadata>
<g transform="translate(0 -229.27)">
<g transform="matrix(4.0328 0 0 4.0328 -.2776 -900.46)" fill="none" stroke="#fff" stroke-linecap="round" stroke-linejoin="round">
<path transform="matrix(.26458 0 0 .26458 0 280.07)" d="m32 1.5a30.5 30.5 0 0 0-17.576 5.5977l8.9355 12.66c-0.68644 0.48646-1.3513 1.0192-1.9668 1.6348s-1.1503 1.2804-1.6367 1.9668l-12.643-8.9258a30.5 30.5 0 0 0-5.6133 17.566 30.5 30.5 0 0 0 5.5977 17.576l12.658-8.9355c0.48646 0.68644 1.0212 1.3513 1.6367 1.9668s1.2804 1.1483 1.9668 1.6348l-8.9258 12.645a30.5 30.5 0 0 0 17.566 5.6133 30.5 30.5 0 0 0 17.576-5.5977l-8.9355-12.658c0.68644-0.48646 1.3513-1.0212 1.9668-1.6367s1.1483-1.2804 1.6348-1.9668l12.645 8.9258a30.5 30.5 0 0 0 5.6133-17.566 30.5 30.5 0 0 0-5.6133-17.566l-12.643 8.9258c-0.48646-0.68644-1.0212-1.3513-1.6367-1.9668s-1.2804-1.1483-1.9668-1.6348l8.9355-12.66a30.5 30.5 0 0 0-17.576-5.5977z" stroke-width="2.4797" style="paint-order:stroke fill markers"/>
<path transform="matrix(.26458 0 0 .26458 0 280.07)" d="m32 15.5a16.5 16.5 0 0 0-9.5078 3.0293l0.86719 1.2285c-0.68644 0.48646-1.3513 1.0192-1.9668 1.6348s-1.1503 1.2804-1.6367 1.9668l-1.2207-0.86133a16.5 16.5 0 0 0-3.0352 9.502 16.5 16.5 0 0 0 3.0273 9.5078l1.2285-0.86719c0.48646 0.68644 1.0212 1.3513 1.6367 1.9668s1.2804 1.1483 1.9668 1.6348l-0.86328 1.2227a16.5 16.5 0 0 0 9.5039 3.0352 16.5 16.5 0 0 0 9.5078-3.0273l-0.86719-1.2285c0.68644-0.48646 1.3513-1.0212 1.9668-1.6367s1.1483-1.2804 1.6348-1.9668l1.2227 0.86328a16.5 16.5 0 0 0 3.0352-9.5039 16.5 16.5 0 0 0-3.0352-9.502l-1.2207 0.86133c-0.48646-0.68644-1.0212-1.3513-1.6367-1.9668s-1.2804-1.1483-1.9668-1.6348l0.86719-1.2285a16.5 16.5 0 0 0-9.5078-3.0293z" stroke-width="2.4797" style="paint-order:stroke fill markers"/>
<path d="m1.5506 293.41c0.27406 0.38769 0.5823 0.75842 0.92923 1.1054 0.34693 0.34694 0.71766 0.65518 1.1054 0.92924l2.5951-3.6767c-0.18162-0.1287-0.35711-0.27014-0.51998-0.433-0.16286-0.16286-0.3043-0.33836-0.43301-0.51998z" color="#000000" color-rendering="auto" dominant-baseline="auto" image-rendering="auto" shape-rendering="auto" solid-color="#000000" stroke-width=".65608" style="font-feature-settings:normal;font-variant-alternates:normal;font-variant-caps:normal;font-variant-ligatures:normal;font-variant-numeric:normal;font-variant-position:normal;isolation:auto;mix-blend-mode:normal;paint-order:stroke fill markers;shape-padding:0;text-decoration-color:#000000;text-decoration-line:none;text-decoration-style:solid;text-indent:0;text-orientation:mixed;text-transform:none;white-space:normal"/>
<path d="m13.348 281.62-2.5951 3.6767c0.18162 0.12871 0.35711 0.27015 0.51998 0.43301s0.3043 0.33835 0.43301 0.51997l3.6767-2.5951c-0.27406-0.3877-0.5823-0.75843-0.92923-1.1054-0.34693-0.34694-0.71766-0.65518-1.1054-0.92923z" color="#000000" color-rendering="auto" dominant-baseline="auto" image-rendering="auto" shape-rendering="auto" solid-color="#000000" stroke-width=".65608" style="font-feature-settings:normal;font-variant-alternates:normal;font-variant-caps:normal;font-variant-ligatures:normal;font-variant-numeric:normal;font-variant-position:normal;isolation:auto;mix-blend-mode:normal;paint-order:stroke fill markers;shape-padding:0;text-decoration-color:#000000;text-decoration-line:none;text-decoration-style:solid;text-indent:0;text-orientation:mixed;text-transform:none;white-space:normal"/>
<path d="m13.348 295.45c0.38769-0.27406 0.75842-0.5823 1.1054-0.92923 0.34694-0.34694 0.65518-0.71766 0.92924-1.1054l-3.6767-2.5951c-0.1287 0.18161-0.27014 0.35711-0.433 0.51997s-0.33836 0.3043-0.51998 0.43301z" color="#000000" color-rendering="auto" dominant-baseline="auto" image-rendering="auto" shape-rendering="auto" solid-color="#000000" stroke-width=".65608" style="font-feature-settings:normal;font-variant-alternates:normal;font-variant-caps:normal;font-variant-ligatures:normal;font-variant-numeric:normal;font-variant-position:normal;isolation:auto;mix-blend-mode:normal;paint-order:stroke fill markers;shape-padding:0;text-decoration-color:#000000;text-decoration-line:none;text-decoration-style:solid;text-indent:0;text-orientation:mixed;text-transform:none;white-space:normal"/>
<path d="m1.5506 283.65 3.6767 2.5951c0.12871-0.18162 0.27015-0.35711 0.43301-0.51997 0.16286-0.16286 0.33835-0.3043 0.51997-0.43301l-2.5951-3.6767c-0.3877 0.27406-0.75843 0.5823-1.1054 0.92923-0.34694 0.34694-0.65518 0.71766-0.92923 1.1054z" color="#000000" color-rendering="auto" dominant-baseline="auto" image-rendering="auto" shape-rendering="auto" solid-color="#000000" stroke-width=".65608" style="font-feature-settings:normal;font-variant-alternates:normal;font-variant-caps:normal;font-variant-ligatures:normal;font-variant-numeric:normal;font-variant-position:normal;isolation:auto;mix-blend-mode:normal;paint-order:stroke fill markers;shape-padding:0;text-decoration-color:#000000;text-decoration-line:none;text-decoration-style:solid;text-indent:0;text-orientation:mixed;text-transform:none;white-space:normal"/>
</g>
</g>
</svg>
