<svg width="24" height="24" version="1.1" viewBox="0 0 6.35 6.35" xmlns="http://www.w3.org/2000/svg">
 <g transform="matrix(.26458 0 0 .26458 -57.182 -6.5205e-6)" fill="#fff">
  <path d="m228.12 0.0039062c-6.5416 0-11.848 5.3797-11.848 11.996 0 6.6164 5.306 11.996 11.848 11.996s11.85-5.3797 11.85-11.996c0-6.6164-5.308-11.996-11.85-11.996zm0 1c5.9941 1e-7 10.85 4.9132 10.85 10.996s-4.8555 10.996-10.85 10.996-10.848-4.9132-10.848-10.996 4.8535-10.996 10.848-10.996z" color="#000000" stroke-linecap="round" stroke-linejoin="round" style="-inkscape-stroke:none;paint-order:stroke fill markers"/>
  <path d="m228.12 6.1816c-2e-3 -7.6e-6 -1.155-0.00624-2.4609 0.027344-1.307 0.033609-2.6871 0.076062-3.4609 0.27734h-2e-3c-0.84846 0.22456-1.6213 0.84963-1.8652 1.7578-0.18563 0.68625-0.2464 1.5863-0.2793 2.3516-0.0326 0.75766-0.0255 1.3571-0.0254 1.3691v0.0078 0.0059c-1.4e-4 0.01204-7e-3 0.6115 0.0254 1.3691 0.0329 0.76521 0.0936 1.6653 0.2793 2.3516 0.24592 0.91262 1.0253 1.5308 1.8633 1.7559 0.77995 0.20927 2.1575 0.24884 3.4648 0.28125 1.3074 0.03241 2.4648 0.02539 2.4648 0.02539 5e-3 2.2e-5 1.1532 0.0042 2.457-0.0293 1.307-0.03361 2.6871-0.07411 3.4609-0.27539h2e-3l2e-3 -2e-3c0.85127-0.22531 1.6027-0.86036 1.8438-1.7578 0.1845-0.67858 0.25482-1.5774 0.29492-2.3418 0.0402-0.76564 0.041-1.3848 0.041-1.3848v-2e-3s-4e-3 -0.61669-0.0469-1.3809c-0.02891-0.51768-0.12138-1.056-0.20314-1.5878h0.10742l-0.20312-0.75586c-0.22742-0.84654-0.89528-1.5121-1.75-1.7383h-2e-3c-0.77433-0.20149-2.1738-0.24871-3.5019-0.28711-1.327-0.038367-2.5021-0.037109-2.5039-0.037109zm-2e-3 1.1992h2e-3s1.1651-6.938e-4 2.4727 0.037109c1.3067 0.03778 2.8323 0.1448 3.2305 0.24805 0.44055 0.1166 0.78301 0.46097 0.89843 0.89062 0.13009 0.48165 0.21897 1.3666 0.25977 2.0977s0.043 1.3203 0.043 1.3203c0 0.0035-7.8e-4 0.58864-0.0391 1.3184-0.0384 0.73188-0.12481 1.6185-0.2539 2.0918v2e-3c-0.10174 0.37874-0.55023 0.79071-0.99414 0.9082-0.3998 0.10329-1.9013 0.20526-3.1856 0.23828-1.2858 0.03307-2.4297 0.02734-2.4297 0.02734h-6e-3s-1.1424 0.0084-2.4277-0.02344c-1.2854-0.03186-2.7922-0.1352-3.1836-0.24023-0.43759-0.11755-0.91625-0.54751-1.0137-0.91016-0.12864-0.47554-0.2108-1.3619-0.24218-2.0918-0.0314-0.72994-0.0234-1.3164-0.0234-1.3164v-0.0137s-8e-3 -0.58839 0.0234-1.3184c0.0314-0.72997 0.11355-1.6143 0.24218-2.0898v-0.00195c0.0987-0.36762 0.56348-0.78944 1.0098-0.9082 0.39758-0.10342 1.9017-0.20326 3.1875-0.23633 1.2858-0.033065 2.4297-0.029297 2.4297-0.029297z" color="#000000" style="-inkscape-stroke:none"/>
  <polygon transform="matrix(.14463 0 0 .14463 216.76 4)" points="63.9 30.8 63.9 79.2 103.2 55" stroke-width="6.9143"/>
 </g>
</svg>
