<?xml version="1.0" encoding="UTF-8"?>
<svg width="256" height="256" version="1.1" viewBox="0 0 67.733 67.733" xmlns="http://www.w3.org/2000/svg" xmlns:cc="http://creativecommons.org/ns#" xmlns:dc="http://purl.org/dc/elements/1.1/" xmlns:rdf="http://www.w3.org/1999/02/22-rdf-syntax-ns#" xmlns:xlink="http://www.w3.org/1999/xlink">
<metadata>
<rdf:RDF>
<cc:Work rdf:about="">
<dc:format>image/svg+xml</dc:format>
<dc:type rdf:resource="http://purl.org/dc/dcmitype/StillImage"/>
<dc:title/>
</cc:Work>
</rdf:RDF>
</metadata>
<g transform="translate(0 -229.27)" fill="none" stroke="#fff" stroke-linecap="round" stroke-linejoin="round">
<rect x="1.3229" y="230.59" width="65.088" height="65.088" rx="10.886" ry="10.886" stroke-width="2.6458" style="paint-order:markers stroke fill"/>
<path d="m11.377 278.18c4.026 1.9402 12.874 2.1921 17.333-6.3104-1.1094 0.55198-2.155 0.63416-3.1292 0.12325-0.92489-0.48514-1.1934-1.2039-1.0272-1.9871 0.13522-0.63719 0.65962-1.2207 1.168-1.8166-1.0808 0.57812-2.0961 0.77356-3.1147 0.5943-1.3675-0.24053-2.7129-0.52315-3.4501-1.7461 0.47699-0.99402 1.0604-1.9313 2.8717-2.2165-1.8009-0.0401-3.4856-0.30115-4.881-1.0472-1.3587-0.72643-1.6797-1.3756-2.1038-2.1469 0.79157-0.62008 1.6742-1.0905 2.7121-1.3057-2.6469-0.46551-4.1243-1.7859-5.2162-3.3876-0.32957-0.48453-0.51958-0.98415-0.61532-1.5278 10.328 0.63404 15.443 1.8143 18.575 3.4452 0.16004-3.2327 0.59407-10.577 3.6219-14.003 0.13015 0.35158 0.11153 0.78034-0.04272 1.2818 0.909-0.97349 1.4574-2.2466 2.9853-2.7054 0.05494 0.7859-0.26439 1.5296-1.1324 2.2134 0.87246-0.6992 1.7764-1.3436 2.7594-1.8641 0.91146-0.48206 1.1414 0.29701 0.7174 0.86133-0.86044 1.1456-2.0103 1.6155-3.0485 2.3627 3.5814-1.0273 7.0253-0.23293 10.468 2.7784 1.144 1.0007 2.0401 2.0793 2.5873 3.3989 1.6517-0.0448 3.1876-0.43065 4.6248-1.1824 0.3935-0.20676 0.75742-0.40798 1.0735-0.69986-0.30807 1.0882-0.75856 2.0441-1.6098 2.6804-0.81376 0.6083-1.6317 1.2088-2.6342 1.5531 1.8442 0.11494 3.6683-0.4203 5.4871-1.1365-1.5755 2.9389-3.3339 3.4329-5.0901 3.9559 0.26818 3.5265-0.26714 7.2955-2.6321 11.336-3.1026 5.3006-7.185 8.6471-11.884 10.576-4.4058 1.8088-8.7994 3.1322-14.292 2.3646-4.0722-0.56885-7.7707-1.9512-11.081-4.4425z" stroke-width="2.6458"/>
</g>
</svg>
