<?xml version="1.0" encoding="UTF-8"?>
<svg width="256" height="256" version="1.1" viewBox="0 0 67.733 67.733" xmlns="http://www.w3.org/2000/svg" xmlns:cc="http://creativecommons.org/ns#" xmlns:dc="http://purl.org/dc/elements/1.1/" xmlns:rdf="http://www.w3.org/1999/02/22-rdf-syntax-ns#">
<metadata>
<rdf:RDF>
<cc:Work rdf:about="">
<dc:format>image/svg+xml</dc:format>
<dc:type rdf:resource="http://purl.org/dc/dcmitype/StillImage"/>
<dc:title/>
</cc:Work>
</rdf:RDF>
</metadata>
<g transform="translate(0 -229.27)">
<g transform="matrix(.97219 0 0 .96609 .94173 9.1147)" fill="none" stroke="#fff" stroke-linecap="round" stroke-linejoin="round" stroke-width="2.7301">
<path d="m59.013 246.38 2.9335 4e-5c2.9859 4e-5 5.3979 2.4212 5.3898 5.4287l-0.10601 39.367c-0.0083 3.0075-2.4038 5.4287-5.3898 5.4287h-56.054c-2.9859 0-5.3979-2.4212-5.3898-5.4287l0.10603-39.367c0.0081-3.0075 2.4038-5.4287 5.3898-5.4287l32.303-4e-5" style="paint-order:stroke fill markers"/>
<path d="m57.503 229.56 0.94884 0.55191c1.0513 0.61149 1.409 1.9565 0.80207 3.0157l-22.555 39.359c-0.60699 1.0592-5.6684 4.3723-5.6684 4.3723s0.31723-6.0728 0.9242-7.1319l22.555-39.359c0.60698-1.0592 1.942-1.4196 2.9933-0.80803z" style="paint-order:stroke fill markers"/>
</g>
</g>
</svg>
