<?xml version="1.0" encoding="UTF-8" standalone="no"?>
<!-- Created with Inkscape (http://www.inkscape.org/) -->

<svg
   xmlns:dc="http://purl.org/dc/elements/1.1/"
   xmlns:cc="http://creativecommons.org/ns#"
   xmlns:rdf="http://www.w3.org/1999/02/22-rdf-syntax-ns#"
   xmlns:svg="http://www.w3.org/2000/svg"
   xmlns="http://www.w3.org/2000/svg"
   xmlns:xlink="http://www.w3.org/1999/xlink"
   xmlns:sodipodi="http://sodipodi.sourceforge.net/DTD/sodipodi-0.dtd"
   xmlns:inkscape="http://www.inkscape.org/namespaces/inkscape"
   width="1000"
   height="134"
   viewBox="0 0 264.58333 35.454168"
   version="1.1"
   id="svg8"
   inkscape:version="0.92.2 5c3e80d, 2017-08-06"
   sodipodi:docname="logo-voltaire-white.svg"
   inkscape:export-filename="/Users/damu/Documents/TorturedMind/logo-voltaire-white.png"
   inkscape:export-xdpi="38.686565"
   inkscape:export-ydpi="38.686565">
  <defs
     id="defs2">
    <linearGradient
       id="linearGradient1723">
      <stop
         style="stop-color:#9c612d;stop-opacity:1"
         offset="0"
         id="stop1719" />
      <stop
         style="stop-color:#eac55c;stop-opacity:1"
         offset="1"
         id="stop1721" />
    </linearGradient>
    <linearGradient
       id="linearGradient3762">
      <stop
         id="stop3764"
         offset="0"
         style="stop-color:#ffffff;stop-opacity:1;" />
      <stop
         id="stop3766"
         offset="1"
         style="stop-color:#ffffff;stop-opacity:0.60000002;" />
    </linearGradient>
    <linearGradient
       gradientUnits="userSpaceOnUse"
       y2="1052.3622"
       x2="116"
       y1="1031.3622"
       x1="116"
       id="linearGradient3768"
       xlink:href="#linearGradient3762"
       inkscape:collect="always" />
    <linearGradient
       gradientTransform="translate(22.499995)"
       gradientUnits="userSpaceOnUse"
       y2="1052.3622"
       x2="90"
       y1="1031.3622"
       x1="90"
       id="linearGradient3770"
       xlink:href="#linearGradient3762"
       inkscape:collect="always" />
    <linearGradient
       gradientUnits="userSpaceOnUse"
       y2="1052.3622"
       x2="72"
       y1="1031.3622"
       x1="72"
       id="linearGradient3772"
       xlink:href="#linearGradient3762"
       inkscape:collect="always" />
    <linearGradient
       gradientTransform="translate(-13.591485,-17.6563)"
       y2="1052.3622"
       x2="72"
       y1="1031.3622"
       x1="72"
       gradientUnits="userSpaceOnUse"
       id="linearGradient4472"
       xlink:href="#linearGradient3762"
       inkscape:collect="always" />
    <linearGradient
       y2="1052.3622"
       x2="72"
       y1="1031.3622"
       x1="72"
       gradientTransform="translate(-56.282735,9.365678e-4)"
       gradientUnits="userSpaceOnUse"
       id="linearGradient4501"
       xlink:href="#linearGradient3762"
       inkscape:collect="always" />
    <linearGradient
       y2="1052.3622"
       x2="72"
       y1="1031.3622"
       x1="72"
       gradientTransform="translate(-56.282735,-1031.3613)"
       gradientUnits="userSpaceOnUse"
       id="linearGradient4515"
       xlink:href="#linearGradient3762"
       inkscape:collect="always" />
    <linearGradient
       y2="1052.3622"
       x2="72"
       y1="1031.3622"
       x1="72"
       gradientTransform="matrix(-1,0,0,1,262.47071,9.365678e-4)"
       gradientUnits="userSpaceOnUse"
       id="linearGradient4521"
       xlink:href="#linearGradient3762"
       inkscape:collect="always" />
    <linearGradient
       y2="1052.3622"
       x2="72"
       y1="1031.3622"
       x1="72"
       gradientTransform="translate(-37.470235,-1031.3626)"
       gradientUnits="userSpaceOnUse"
       id="linearGradient4523"
       xlink:href="#linearGradient3762"
       inkscape:collect="always" />
    <linearGradient
       y2="1052.3622"
       x2="72"
       y1="1031.3622"
       x1="72"
       gradientTransform="translate(-50.151759,-35.974541)"
       gradientUnits="userSpaceOnUse"
       id="linearGradient4527"
       xlink:href="#linearGradient3762"
       inkscape:collect="always" />
    <linearGradient
       y2="1052.3622"
       x2="72"
       y1="1031.3622"
       x1="72"
       gradientTransform="matrix(1,0,0,0.99907175,-37.808402,0.96656309)"
       gradientUnits="userSpaceOnUse"
       id="linearGradient4568"
       xlink:href="#linearGradient3762"
       inkscape:collect="always" />
    <filter
       y="-0.25"
       x="-0.25"
       height="1.5"
       width="1.5"
       inkscape:label="Drop shadow"
       id="filter4575">
      <feGaussianBlur
         result="blur"
         stdDeviation="1"
         in="SourceAlpha"
         id="feGaussianBlur4577" />
      <feColorMatrix
         values="1 0 0 0 0 0 1 0 0 0 0 0 1 0 0 0 0 0 0.75 0 "
         type="matrix"
         result="bluralpha"
         id="feColorMatrix4579" />
      <feOffset
         result="offsetBlur"
         dy="2"
         dx="2"
         in="bluralpha"
         id="feOffset4581" />
      <feMerge
         id="feMerge4583">
        <feMergeNode
           in="offsetBlur"
           id="feMergeNode4585" />
        <feMergeNode
           in="SourceGraphic"
           id="feMergeNode4587" />
      </feMerge>
    </filter>
    <linearGradient
       id="linearGradient4639">
      <stop
         id="stop4641"
         offset="0"
         style="stop-color:#ad321c;stop-opacity:1;" />
      <stop
         id="stop4643"
         offset="1"
         style="stop-color:#c59819;stop-opacity:1;" />
    </linearGradient>
    <linearGradient
       id="linearGradient3922">
      <stop
         style="stop-color:#111111;stop-opacity:1;"
         offset="0"
         id="stop3924" />
      <stop
         style="stop-color:#4e4e4e;stop-opacity:1;"
         offset="1"
         id="stop3926" />
    </linearGradient>
    <linearGradient
       inkscape:collect="always"
       xlink:href="#linearGradient3922"
       id="linearGradient3928"
       x1="345.38611"
       y1="205.37711"
       x2="174.97145"
       y2="81.810387"
       gradientUnits="userSpaceOnUse"
       gradientTransform="translate(214)" />
    <linearGradient
       inkscape:collect="always"
       xlink:href="#linearGradient3922"
       id="linearGradient3806"
       gradientUnits="userSpaceOnUse"
       x1="345.38611"
       y1="205.37711"
       x2="174.97145"
       y2="81.810387"
       gradientTransform="translate(22.76579)" />
    <linearGradient
       inkscape:collect="always"
       xlink:href="#linearGradient4639"
       id="linearGradient4607"
       x1="190.95461"
       y1="208.99025"
       x2="83.345695"
       y2="72.317955"
       gradientUnits="userSpaceOnUse"
       gradientTransform="matrix(0.24577861,0,0,0.24577861,249.46021,109.75938)" />
    <linearGradient
       inkscape:collect="always"
       xlink:href="#linearGradient3922"
       id="linearGradient4633"
       gradientUnits="userSpaceOnUse"
       x1="236.2887"
       y1="167.68547"
       x2="207.30772"
       y2="146.82356" />
    <linearGradient
       inkscape:collect="always"
       xlink:href="#linearGradient3922"
       id="linearGradient4635"
       gradientUnits="userSpaceOnUse"
       gradientTransform="translate(79.16829)"
       x1="236.2887"
       y1="167.68547"
       x2="207.30772"
       y2="146.82356" />
    <linearGradient
       inkscape:collect="always"
       xlink:href="#linearGradient3922"
       id="linearGradient4637"
       gradientUnits="userSpaceOnUse"
       gradientTransform="translate(39.584149)"
       x1="236.2887"
       y1="167.68547"
       x2="207.30772"
       y2="146.82356" />
    <linearGradient
       inkscape:collect="always"
       xlink:href="#linearGradient4639"
       id="linearGradient3028"
       gradientUnits="userSpaceOnUse"
       gradientTransform="matrix(0.24577861,0,0,0.24577861,257.89172,115.78795)"
       x1="190.95461"
       y1="208.99025"
       x2="83.345695"
       y2="72.317955" />
    <linearGradient
       inkscape:collect="always"
       xlink:href="#linearGradient3922"
       id="linearGradient3035"
       gradientUnits="userSpaceOnUse"
       gradientTransform="translate(31.197302,6.0285721)"
       x1="345.38611"
       y1="205.37711"
       x2="174.97145"
       y2="81.810387" />
    <linearGradient
       inkscape:collect="always"
       xlink:href="#linearGradient3922"
       id="linearGradient3040"
       gradientUnits="userSpaceOnUse"
       gradientTransform="translate(222.43151,6.0285721)"
       x1="345.38611"
       y1="205.37711"
       x2="174.97145"
       y2="81.810387" />
    <linearGradient
       inkscape:collect="always"
       xlink:href="#linearGradient3922"
       id="linearGradient7124"
       gradientUnits="userSpaceOnUse"
       gradientTransform="translate(261.21328,6.0285721)"
       x1="236.2887"
       y1="167.68547"
       x2="207.30772"
       y2="146.82356" />
    <linearGradient
       inkscape:collect="always"
       xlink:href="#linearGradient3922"
       id="linearGradient7130"
       gradientUnits="userSpaceOnUse"
       x1="236.2887"
       y1="167.68547"
       x2="207.30772"
       y2="146.82356"
       gradientTransform="translate(221.62913,6.0285721)" />
    <linearGradient
       gradientUnits="userSpaceOnUse"
       y2="289.21832"
       x2="195.64528"
       y1="289.21832"
       x1="34.384235"
       id="linearGradient4295"
       xlink:href="#linearGradient4639"
       inkscape:collect="always" />
    <filter
       y="-0.25"
       x="-0.25"
       height="1.5"
       width="1.5"
       inkscape:label="Drop shadow"
       id="filter4575-5">
      <feGaussianBlur
         result="blur"
         stdDeviation="1"
         in="SourceAlpha"
         id="feGaussianBlur4577-1" />
      <feColorMatrix
         values="1 0 0 0 0 0 1 0 0 0 0 0 1 0 0 0 0 0 0.75 0 "
         type="matrix"
         result="bluralpha"
         id="feColorMatrix4579-7" />
      <feOffset
         result="offsetBlur"
         dy="2"
         dx="2"
         in="bluralpha"
         id="feOffset4581-5" />
      <feMerge
         id="feMerge4583-6">
        <feMergeNode
           in="offsetBlur"
           id="feMergeNode4585-0" />
        <feMergeNode
           in="SourceGraphic"
           id="feMergeNode4587-6" />
      </feMerge>
    </filter>
  </defs>
  <sodipodi:namedview
     id="base"
     pagecolor="#8a8a8a"
     bordercolor="#666666"
     borderopacity="1.0"
     inkscape:pageopacity="0"
     inkscape:pageshadow="2"
     inkscape:zoom="1.492908"
     inkscape:cx="541.97381"
     inkscape:cy="6.4320288"
     inkscape:document-units="px"
     inkscape:current-layer="layer1"
     showgrid="false"
     units="px"
     inkscape:object-paths="true"
     showguides="true"
     inkscape:guide-bbox="true" />
  <metadata
     id="metadata5">
    <rdf:RDF>
      <cc:Work
         rdf:about="">
        <dc:format>image/svg+xml</dc:format>
        <dc:type
           rdf:resource="http://purl.org/dc/dcmitype/StillImage" />
        <dc:title />
      </cc:Work>
    </rdf:RDF>
  </metadata>
  <g
     inkscape:label="Layer 1"
     inkscape:groupmode="layer"
     id="layer1"
     transform="translate(0,-261.54583)">
    <path
       style="color:#000000;font-style:normal;font-variant:normal;font-weight:normal;font-stretch:normal;font-size:medium;line-height:normal;font-family:sans-serif;font-variant-ligatures:normal;font-variant-position:normal;font-variant-caps:normal;font-variant-numeric:normal;font-variant-alternates:normal;font-feature-settings:normal;text-indent:0;text-align:start;text-decoration:none;text-decoration-line:none;text-decoration-style:solid;text-decoration-color:#000000;letter-spacing:normal;word-spacing:normal;text-transform:none;writing-mode:lr-tb;direction:ltr;text-orientation:mixed;dominant-baseline:auto;baseline-shift:baseline;text-anchor:start;white-space:normal;shape-padding:0;clip-rule:nonzero;display:inline;overflow:visible;visibility:visible;opacity:1;isolation:auto;mix-blend-mode:normal;color-interpolation:sRGB;color-interpolation-filters:linearRGB;solid-color:#000000;solid-opacity:1;vector-effect:none;fill:#ffffff;fill-opacity:1;fill-rule:nonzero;stroke:none;stroke-width:1.69499958;stroke-linecap:round;stroke-linejoin:round;stroke-miterlimit:4;stroke-dasharray:none;stroke-dashoffset:0;stroke-opacity:1;paint-order:normal;color-rendering:auto;image-rendering:auto;shape-rendering:auto;text-rendering:auto;enable-background:accumulate"
       d="M 908.39648 2.6328125 L 891.57422 12.34375 L 896.14062 20.251953 L 912.96094 10.541016 L 908.39648 2.6328125 z M 420.19727 15.707031 C 415.72729 15.707031 411.19969 15.767703 407.30859 16.097656 C 404.33305 16.390192 399.55167 18.367413 397.19922 22.761719 C 394.84197 27.165208 393.08821 32.700353 388.87109 35.5 C 379.82457 41.506009 369.44242 40.523259 356.75391 41.378906 C 344.06539 42.235839 324.88883 47.929902 325.0332 66.462891 C 325.16715 84.995993 325.0332 97.816574 325.0332 122.90039 C 325.0332 125.85602 328.38618 129.17188 331.37695 129.17188 L 470.94922 129.17188 C 473.93973 129.17188 477.29297 125.85609 477.29297 122.90039 L 477.29297 66.462891 C 477.29297 58.925568 472.30177 51.496854 466.39062 47.650391 C 460.02144 43.507046 452.59282 42.308645 448.54688 34.912109 C 446.44141 31.061376 445.46065 28.529958 442.59766 22.761719 C 440.98244 19.507583 437.25481 17.077775 432.88477 16.294922 C 429.14012 15.841341 424.66746 15.721948 420.19727 15.708984 L 420.19727 15.707031 z M 664.51758 22.324219 L 664.53125 129.17188 L 676.54688 129.17188 L 676.54688 80.722656 L 676.1582 59.830078 L 702.28125 98.650391 L 702.28125 101.39258 L 702.33594 101.45703 L 702.33594 101.33008 L 728.39453 59.830078 L 728.07031 80.851562 L 728.07031 129.17188 L 740.08594 129.17188 L 740.08594 22.324219 L 702.26953 76.845703 L 664.51758 22.324219 z M 940.86719 22.324219 L 940.86719 129.17188 L 952.88281 129.17188 L 952.88281 77.75 L 952.49414 61.152344 L 1000 131.36719 L 1000 26.265625 L 988.04883 26.265625 L 988.04883 76.458984 L 988.37305 94.154297 L 940.86719 22.324219 z M 619.63477 23.095703 L 581.69141 129.17188 L 594.60742 129.17188 L 599.88086 113.80664 L 639.35938 113.80664 L 644.66211 129.17188 L 657.57617 129.17188 L 647.78906 101.80469 L 647.7793 101.79297 L 619.63477 23.095703 z M 775.81836 23.099609 C 772.24393 23.099609 769.03566 23.659624 766.19336 24.779297 C 763.39394 25.89907 761.00444 27.472031 759.02344 29.496094 C 757.04281 31.47712 755.53596 33.845329 754.50195 36.601562 C 753.46798 39.314709 752.95117 42.285666 752.95117 45.515625 C 752.95117 47.453565 753.14382 49.434896 753.53125 51.458984 C 753.9634 53.440011 754.63155 55.52825 755.53516 57.724609 C 756.43935 59.877932 757.60196 62.139183 759.02344 64.507812 C 760.48763 66.876417 762.25309 69.374904 764.32031 72.001953 L 772.6543 82.53125 C 774.67763 85.072126 776.35757 87.376185 777.69336 89.443359 C 779.0718 91.51061 780.16844 93.425813 780.98633 95.191406 C 781.84725 96.913964 782.45043 98.529708 782.79492 100.03711 C 783.18235 101.54446 783.37695 103.00856 783.37695 104.42969 C 783.37695 106.53985 783.03113 108.36948 782.3418 109.91992 C 781.65249 111.42715 780.72704 112.67738 779.56445 113.66797 C 778.40137 114.65838 777.0442 115.38948 775.49414 115.86328 C 773.94295 116.33703 772.32903 116.57422 770.65039 116.57422 C 767.89421 116.57422 765.35301 116.07848 763.02734 115.08789 C 760.74489 114.09745 758.54776 112.97752 756.4375 111.72852 L 750.88672 122.45312 C 753.38471 124.17581 756.35564 125.59712 759.80078 126.7168 C 763.24615 127.83649 766.86467 128.39648 770.6543 128.39648 C 774.31502 128.39648 777.67476 127.83649 780.73242 126.7168 C 783.83312 125.55399 786.50274 123.89549 788.74219 121.74219 C 790.98226 119.58892 792.72631 116.98347 793.97461 113.92578 C 795.22291 110.82503 795.84766 107.33684 795.84766 103.46094 C 795.84766 100.83386 795.54505 98.401505 794.94141 96.162109 C 794.38244 93.879602 793.60828 91.725285 792.61719 89.701172 C 791.6271 87.633997 790.44112 85.6313 789.0625 83.693359 C 787.68423 81.712333 786.22003 79.688269 784.66992 77.621094 L 772.58984 61.730469 C 771.16781 59.835464 769.98355 58.134203 769.03711 56.626953 C 768.13166 55.119728 767.40074 53.741195 766.8418 52.492188 C 766.32556 51.243381 765.95812 50.10201 765.74219 49.068359 C 765.526 47.991774 765.41797 46.959339 765.41797 45.96875 C 765.41797 42.308152 766.47387 39.486911 768.58398 37.505859 C 770.69425 35.481746 773.51544 34.46875 777.04688 34.46875 C 779.15646 34.46875 781.07161 34.81297 782.79492 35.501953 C 784.56072 36.148101 786.19785 36.92381 787.70508 37.828125 L 792.87305 27.816406 C 790.11689 26.179972 787.2955 24.995842 784.41016 24.263672 C 781.52464 23.48844 778.66069 23.099609 775.81836 23.099609 z M 521.04883 26.220703 L 515.42773 26.224609 L 515.42773 129.13086 L 521.04883 129.13086 L 521.04883 129.17188 L 535.48633 129.17188 L 535.48633 129.14062 C 563.83263 129.14062 586.9668 106.04767 586.9668 77.701172 C 586.9668 49.354716 563.83263 26.220703 535.48633 26.220703 L 527.44336 26.220703 L 521.04883 26.220703 z M 218.48633 26.263672 L 206.4707 26.265625 L 206.4707 129.17188 L 218.48633 129.17188 L 218.48633 100.07422 L 226.5293 100.07422 L 226.5293 100.0332 C 230.76032 100.0332 234.80762 99.280849 238.59961 97.957031 L 251.86133 129.17188 L 265.42773 129.17188 L 248.66406 92.445312 C 257.55929 85.699801 263.41992 75.12459 263.41992 63.154297 C 263.41992 42.852829 246.83072 26.263672 226.5293 26.263672 L 218.48633 26.263672 z M 0 26.265625 L 0 129.17188 L 12.015625 129.17188 L 12.015625 100.07422 L 20.058594 100.07422 L 20.058594 100.0332 C 40.360308 100.0332 56.949219 83.457755 56.949219 63.15625 C 56.949219 42.854745 40.360308 26.265625 20.058594 26.265625 L 12.015625 26.265625 L 0 26.265625 z M 68.070312 26.265625 L 68.070312 129.17188 L 121.23828 129.17188 L 121.23828 117.80273 L 80.085938 117.80273 L 80.085938 99.773438 L 110.46484 99.773438 L 110.46484 88.404297 L 80.085938 88.404297 L 80.085938 37.634766 L 121.23828 37.634766 L 121.23828 26.265625 L 68.070312 26.265625 z M 133.25391 26.265625 L 133.25391 37.634766 L 157.84766 37.634766 L 157.84766 129.17188 L 169.86133 129.17188 L 169.86133 37.634766 L 194.45508 37.634766 L 194.45508 26.265625 L 133.25391 26.265625 z M 274.76367 26.265625 L 274.76367 129.17188 L 286.7793 129.17188 L 286.7793 26.265625 L 274.76367 26.265625 z M 802.4668 26.265625 L 802.4668 37.634766 L 827.06055 37.634766 L 827.06055 129.17188 L 839.07617 129.17188 L 839.07617 37.634766 L 863.66992 37.634766 L 863.66992 26.265625 L 802.4668 26.265625 z M 875.68555 26.265625 L 875.68555 129.17188 L 928.85156 129.17188 L 928.85156 117.80273 L 887.69922 117.80273 L 887.69922 99.773438 L 918.08008 99.773438 L 918.08008 88.404297 L 887.69922 88.404297 L 887.69922 37.634766 L 928.85156 37.634766 L 928.85156 26.265625 L 875.68555 26.265625 z M 527.44336 38.240234 L 535.48633 38.240234 L 535.48633 38.269531 C 557.34027 38.269531 574.92383 55.852972 574.92383 77.707031 C 574.92383 99.561053 557.34027 117.1582 535.48633 117.1582 L 527.44336 117.1582 L 527.44336 38.240234 z M 12.015625 38.28125 L 20.058594 38.28125 L 20.058594 38.292969 C 33.867906 38.292969 44.919922 49.345113 44.919922 63.154297 C 44.919922 76.963443 33.867906 88.056641 20.058594 88.056641 L 12.015625 88.056641 L 12.015625 38.28125 z M 218.48633 38.28125 L 226.5293 38.28125 L 226.5293 38.292969 C 240.33831 38.292969 251.39063 49.345151 251.39062 63.154297 C 251.39062 76.963481 240.33831 88.056641 226.5293 88.056641 L 218.48633 88.056641 L 218.48633 38.28125 z M 419.42578 42.976562 C 437.08381 42.976562 451.39844 57.19912 451.39844 74.744141 C 451.39844 81.216997 449.41659 87.178457 446.07031 92.199219 L 446.07031 106.51172 L 435.41016 106.51172 L 435.41016 117.10156 L 403.43945 117.10156 L 403.43945 106.51172 L 392.7832 106.51172 L 392.7832 92.199219 C 389.43798 87.178457 387.45313 81.216997 387.45312 74.744141 C 387.45312 57.19912 401.76772 42.976562 419.42578 42.976562 z M 619.58008 56.498047 L 635.20898 101.79102 L 604.02148 101.79102 L 619.58008 56.498047 z M 406.10352 69.449219 C 400.21758 69.449219 395.44727 74.190659 395.44727 80.039062 C 395.44727 85.887352 400.21758 90.626953 406.10352 90.626953 C 411.98949 90.626953 416.76172 85.887352 416.76172 80.039062 C 416.76172 74.190659 411.98949 69.449219 406.10352 69.449219 z M 432.74609 69.449219 C 426.85982 69.449219 422.08984 74.190659 422.08984 80.039062 C 422.08984 85.887352 426.85982 90.626953 432.74609 90.626953 C 438.63195 90.626953 443.40625 85.887352 443.40625 80.039062 C 443.40625 74.190659 438.63195 69.449219 432.74609 69.449219 z "
       transform="matrix(0.26458334,0,0,0.26458334,0,261.54583)"
       id="path1039" />
  </g>
</svg>
