<?xml version="1.0" encoding="UTF-8"?>
<svg width="1e3" height="134" version="1.1" viewBox="0 0 264.58 35.454" xmlns="http://www.w3.org/2000/svg" xmlns:cc="http://creativecommons.org/ns#" xmlns:dc="http://purl.org/dc/elements/1.1/" xmlns:rdf="http://www.w3.org/1999/02/22-rdf-syntax-ns#" xmlns:xlink="http://www.w3.org/1999/xlink">
<metadata>
<rdf:RDF>
<cc:Work rdf:about="">
<dc:format>image/svg+xml</dc:format>
<dc:type rdf:resource="http://purl.org/dc/dcmitype/StillImage"/>
<dc:title/>
</cc:Work>
</rdf:RDF>
</metadata>
<g transform="translate(0 -261.55)">
<path transform="matrix(.26458 0 0 .26458 0 261.55)" d="m908.4 2.6328-16.822 9.7109 4.5664 7.9082 16.82-9.7109-4.5645-7.9082zm-488.2 13.074c-4.47 0-8.9976 0.060672-12.889 0.39062-2.9755 0.29254-7.7569 2.2698-10.109 6.6641-2.3572 4.4035-4.111 9.9386-8.3281 12.738-9.0465 6.006-19.429 5.0233-32.117 5.8789-12.689 0.85693-31.865 6.551-31.721 25.084 0.13395 18.533 0 31.354 0 56.437 0 2.9556 3.353 6.2715 6.3438 6.2715h139.57c2.9905 0 6.3438-3.3158 6.3438-6.2715v-56.437c0-7.5373-4.9912-14.966-10.902-18.812-6.3692-4.1433-13.798-5.3417-17.844-12.738-2.1055-3.8507-3.0862-6.3822-5.9492-12.15-1.6152-3.2541-5.3428-5.6839-9.7129-6.4668-3.7446-0.45358-8.2173-0.57297-12.688-0.58594v-0.001953zm244.32 6.6172 0.01367 106.85h12.016v-48.449l-0.38868-20.893 26.123 38.82v2.7422l0.05469 0.06445v-0.12695l26.059-41.5-0.32422 21.021v48.32h12.016v-106.85l-37.816 54.521-37.752-54.521zm276.35 0v106.85h12.016v-51.422l-0.38867-16.598 47.506 70.215v-105.1h-11.951v50.193l0.32422 17.695-47.506-71.83zm-321.23 0.77148-37.943 106.08h12.916l5.2734-15.365h39.479l5.3027 15.365h12.914l-9.7871-27.367-0.00976-0.01172-28.145-78.697zm156.18 0.003906c-3.5744 0-6.7827 0.56002-9.625 1.6797-2.7994 1.1198-5.1889 2.6927-7.1699 4.7168-1.9806 1.981-3.4875 4.3492-4.5215 7.1055-1.034 2.7131-1.5508 5.6841-1.5508 8.9141 0 1.9379 0.19265 3.9193 0.58008 5.9434 0.43215 1.981 1.1003 4.0693 2.0039 6.2656 0.90419 2.1533 2.0668 4.4146 3.4883 6.7832 1.4642 2.3686 3.2296 4.8671 5.2969 7.4941l8.334 10.529c2.0233 2.5409 3.7033 4.8449 5.0391 6.9121 1.3784 2.0673 2.4751 3.9825 3.293 5.748 0.86092 1.7226 1.4641 3.3383 1.8086 4.8457 0.38743 1.5074 0.58203 2.9714 0.58203 4.3926 0 2.1102-0.34582 3.9398-1.0352 5.4902-0.68931 1.5072-1.6148 2.7575-2.7774 3.748-1.1631 0.99041-2.5202 1.7215-4.0703 2.1953-1.5512 0.47375-3.1651 0.71094-4.8438 0.71094-2.7562 0-5.2974-0.49574-7.623-1.4863-2.2824-0.99044-4.4796-2.1104-6.5898-3.3594l-5.5508 10.725c2.498 1.7227 5.4689 3.144 8.9141 4.2637 3.4454 1.1197 7.0639 1.6797 10.854 1.6797 3.6607 0 7.0205-0.55999 10.078-1.6797 3.1007-1.1628 5.7703-2.8213 8.0098-4.9746 2.2401-2.1533 3.9841-4.7587 5.2324-7.8164 1.2483-3.1008 1.873-6.5889 1.873-10.465 0-2.6271-0.30261-5.0594-0.90625-7.2988-0.55897-2.2825-1.3331-4.4368-2.3242-6.4609-0.99009-2.0672-2.1761-4.0699-3.5547-6.0078-1.3783-1.981-2.8425-4.0051-4.3926-6.0723l-12.08-15.891c-1.422-1.895-2.6063-3.5963-3.5527-5.1035-0.90545-1.5072-1.6364-2.8858-2.1953-4.1348-0.51624-1.2488-0.88368-2.3902-1.0996-3.4238-0.21619-1.0766-0.32422-2.109-0.32422-3.0996 0-3.6606 1.0559-6.4818 3.166-8.4629 2.1103-2.0241 4.9315-3.0371 8.4629-3.0371 2.1096 0 4.0247 0.34422 5.748 1.0332 1.7658 0.64615 3.4029 1.4219 4.9102 2.3262l5.168-10.012c-2.7562-1.6364-5.5776-2.8206-8.4629-3.5527-2.8855-0.77523-5.7495-1.1641-8.5918-1.1641zm-254.77 3.1211-5.6211 0.003906v102.91h5.6211v0.04102h14.438v-0.03126c28.346 0 51.48-23.093 51.48-51.439 0-28.346-23.134-51.48-51.48-51.48h-8.043-6.3945zm-302.56 0.042969-12.016 0.001953v102.91h12.016v-29.098h8.043v-0.04102c4.231 0 8.2783-0.75235 12.07-2.0762l13.262 31.215h13.566l-16.764-36.727c8.8952-6.7455 14.756-17.321 14.756-29.291 0-20.301-16.589-36.891-36.891-36.891h-8.043zm-218.49 0.001953v102.91h12.016v-29.098h8.043v-0.04102c20.302 0 36.891-16.575 36.891-36.877s-16.589-36.891-36.891-36.891h-8.043-12.016zm68.07 0v102.91h53.168v-11.369h-41.152v-18.029h30.379v-11.369h-30.379v-50.77h41.152v-11.369h-53.168zm65.184 0v11.369h24.594v91.537h12.014v-91.537h24.594v-11.369h-61.201zm141.51 0v102.91h12.016v-102.91h-12.016zm527.7 0v11.369h24.594v91.537h12.016v-91.537h24.594v-11.369h-61.203zm73.219 0v102.91h53.166v-11.369h-41.152v-18.029h30.381v-11.369h-30.381v-50.77h41.152v-11.369h-53.166zm-348.24 11.975h8.043v0.029297c21.854 0 39.438 17.583 39.438 39.438 0 21.854-17.584 39.451-39.438 39.451h-8.043v-78.918zm-515.43 0.041016h8.043v0.011719c13.809 0 24.861 11.052 24.861 24.861 0 13.809-11.052 24.902-24.861 24.902h-8.043v-49.775zm206.47 0h8.043v0.011719c13.809 0 24.861 11.052 24.861 24.861 0 13.809-11.052 24.902-24.861 24.902h-8.043v-49.775zm200.94 4.6953c17.658 0 31.973 14.223 31.973 31.768 0 6.4729-1.9818 12.434-5.3281 17.455v14.313h-10.66v10.59h-31.971v-10.59h-10.656v-14.313c-3.3452-5.0208-5.3301-10.982-5.3301-17.455 0-17.545 14.315-31.768 31.973-31.768zm200.15 13.521 15.629 45.293h-31.188l15.559-45.293zm-213.48 12.951c-5.8859 0-10.656 4.7414-10.656 10.59 0 5.8483 4.7703 10.588 10.656 10.588 5.886 0 10.658-4.7396 10.658-10.588 0-5.8484-4.7722-10.59-10.658-10.59zm26.643 0c-5.8863 0-10.656 4.7414-10.656 10.59 0 5.8483 4.77 10.588 10.656 10.588 5.8859 0 10.66-4.7396 10.66-10.588 0-5.8484-4.7743-10.59-10.66-10.59z" color="#000000" color-rendering="auto" dominant-baseline="auto" fill="#fff" image-rendering="auto" shape-rendering="auto" solid-color="#000000" style="font-feature-settings:normal;font-variant-alternates:normal;font-variant-caps:normal;font-variant-ligatures:normal;font-variant-numeric:normal;font-variant-position:normal;isolation:auto;mix-blend-mode:normal;paint-order:normal;shape-padding:0;text-decoration-color:#000000;text-decoration-line:none;text-decoration-style:solid;text-indent:0;text-orientation:mixed;text-transform:none;white-space:normal"/>
</g>
</svg>
