<?xml version="1.0" encoding="UTF-8"?>
<svg version="1.1" viewBox="0 0 264 24" xmlns="http://www.w3.org/2000/svg" xmlns:cc="http://creativecommons.org/ns#" xmlns:dc="http://purl.org/dc/elements/1.1/" xmlns:rdf="http://www.w3.org/1999/02/22-rdf-syntax-ns#" xmlns:xlink="http://www.w3.org/1999/xlink">
<metadata>
<rdf:RDF>
<cc:Work rdf:about="">
<dc:format>image/svg+xml</dc:format>
<dc:type rdf:resource="http://purl.org/dc/dcmitype/StillImage"/>
<dc:title/>
</cc:Work>
</rdf:RDF>
</metadata>
<g transform="translate(0 -1028.4)">
<path d="m15.408 1031.9-10.576 8.4445 10.576 8.4446" fill="none" stroke="#fff" stroke-linecap="round" stroke-linejoin="round" stroke-width="1.5"/>
<path d="m68.232 1031.9-16.669 16.86m0-16.86 16.669 16.86" fill="none" stroke="#fff" stroke-linecap="round" stroke-linejoin="round" stroke-width="1.5"/>
<path d="m85.46 1041.9 6.8039 6.8926m-5.267-11.099c0 3.1875-2.5546 5.7715-5.7059 5.7715-3.1513 0-5.7059-2.584-5.7059-5.7715 0-3.1873 2.5546-5.7714 5.7059-5.7714 3.1513 0 5.7059 2.5841 5.7059 5.7714z" fill="none" stroke="#fff" stroke-linecap="round" stroke-linejoin="round" stroke-width="1.2"/>
<path d="m100.77 1032.9c-0.82133 0-1.4823 0.6384-1.4823 1.4309v2.8604c0 0.7924 0.661 1.431 1.4823 1.431h4.4486c0.82133 0 1.4823-0.6386 1.4823-1.431v-2.8604c0-0.7925-0.661-1.4309-1.4823-1.4309zm9.9434 0c-0.82134 0-1.4823 0.6384-1.4823 1.4309v2.8604c0 0.7924 0.66099 1.431 1.4823 1.431h4.4485c0.82134 0 1.4823-0.6386 1.4823-1.431v-2.8604c0-0.7925-0.661-1.4309-1.4823-1.4309zm-9.9434 9.6542c-0.82133 0-1.4823 0.6382-1.4823 1.4308v2.8603c0 0.7923 0.661 1.4309 1.4823 1.4309h4.4486c0.82133 0 1.4823-0.6386 1.4823-1.4309v-2.8603c0-0.7926-0.661-1.4308-1.4823-1.4308zm9.9434 0c-0.82134 0-1.4823 0.6382-1.4823 1.4308v2.8603c0 0.7923 0.66099 1.4309 1.4823 1.4309h4.4485c0.82134 0 1.4823-0.6386 1.4823-1.4309v-2.8603c0-0.7926-0.661-1.4308-1.4823-1.4308z" fill="none" stroke="#fff" stroke-linecap="round" stroke-linejoin="round"/>
<ellipse cx="131.99" cy="1040.4" rx="11.349" ry="11.497" fill="none" stroke="#fff" stroke-linecap="round" stroke-linejoin="round" style="paint-order:stroke fill markers"/>
<path d="m31.798 1031.9 10.576 8.4445-10.576 8.4446" fill="none" stroke="#fff" stroke-linecap="round" stroke-linejoin="round" stroke-width="1.5"/>
<path d="m133.83 1032.9h1.8386v2.4797h-1.4747c-0.94829 0-0.97674 0.5709-0.97674 1.2397v1.2398h2.4514l-0.42135 2.4798h-2.0301v7.4391h-3.0643v-7.4391h-1.8386v-2.4798h1.8386v-1.8597c0-2.0915 1.2416-3.0995 3.6772-3.0995z" color="#000000" fill="#fff"/>
<ellipse cx="156.03" cy="1040.4" rx="11.349" ry="11.497" fill="none" stroke="#fff" stroke-linecap="round" stroke-linejoin="round" style="paint-order:stroke fill markers"/>
<ellipse cx="180.06" cy="1040.4" rx="11.349" ry="11.497" fill="none" stroke="#fff" stroke-linecap="round" stroke-linejoin="round" style="paint-order:stroke fill markers"/>
<ellipse cx="204.09" cy="1040.4" rx="11.349" ry="11.497" fill="none" stroke="#fff" stroke-linecap="round" stroke-linejoin="round" style="paint-order:stroke fill markers"/>
<ellipse cx="228.12" cy="1040.4" rx="11.349" ry="11.497" fill="none" stroke="#fff" stroke-linecap="round" stroke-linejoin="round" style="paint-order:stroke fill markers"/>
<path d="m148.68 1042.7c0.95584 0.8941 3.4102 1.7403 5.4075-0.24-0.35916 0.057-0.65905-0.013-0.8867-0.2401-0.21612-0.2164-0.22792-0.4404-0.11229-0.6441 0.094-0.1659 0.29221-0.2826 0.48704-0.4042-0.35346 0.066-0.65487 0.032-0.92417-0.1069-0.36155-0.187-0.71322-0.3837-0.81175-0.7895 0.22112-0.2355 0.46701-0.4456 0.99912-0.3662-0.50053-0.1692-0.94904-0.3897-1.2739-0.7201-0.31628-0.3218-0.34887-0.5311-0.39962-0.7833 0.27621-0.1042 0.56473-0.1574 0.8742-0.1258-0.69983-0.3619-0.99695-0.8597-1.1614-1.4021-0.0495-0.164-0.0588-0.32-0.0375-0.4801 2.8348 1.0824 4.1623 1.8602 4.8954 2.5896 0.32973-0.8876 1.0985-2.8976 2.248-3.5875 5e-3 0.1095-0.0375 0.2273-0.12496 0.3537 0.34023-0.1917 0.60593-0.4989 1.074-0.4926-0.0539 0.2238-0.20883 0.4032-0.51203 0.5179 0.30584-0.1191 0.61562-0.219 0.93664-0.278 0.2976-0.054 0.2933 0.183 0.12483 0.3031-0.3418 0.244-0.70505 0.2743-1.0615 0.3917 1.093 0.027 1.9869 0.551 2.685 1.6927 0.23201 0.3794 0.38775 0.7588 0.4246 1.1749 0.46625 0.1325 0.93015 0.1594 1.3987 0.076 0.1283-0.024 0.24796-0.047 0.36216-0.1014-0.18215 0.2764-0.39248 0.5035-0.68682 0.6063-0.28138 0.099-0.56326 0.1941-0.8742 0.2022 0.50605 0.1937 1.0638 0.2044 1.636 0.1641-0.69999 0.6815-1.2357 0.665-1.7734 0.6569-0.23577 1.007-0.7178 2.0113-1.7359 2.9308-1.3356 1.206-2.7732 1.7814-4.2585 1.9075-1.3926 0.1176-2.739 0.1014-4.2086-0.5938-1.0897-0.5157-2.003-1.2256-2.71-2.2106z" fill="#fff"/>
<path d="m178.47 1040.9-4.2357 3.7667h11.631l-4.324-3.7667-1.2531 1.0888a0.42922 0.41214 0 0 1-0.0176 0.018 0.42922 0.41214 0 0 1-0.0176 0 0.42922 0.41214 0 0 1-0.0176 0.018 0.42922 0.41214 0 0 1-0.0176 0.018 0.42922 0.41214 0 0 1-0.0706 0.035 0.42922 0.41214 0 0 1-0.0352 0 0.42922 0.41214 0 0 1-0.10587 0.018 0.42922 0.41214 0 0 1-0.0352 0 0.42922 0.41214 0 0 1-0.0882-0.018 0.42922 0.41214 0 0 1-0.0706-0.017 0.42922 0.41214 0 0 1-0.0176 0 0.42922 0.41214 0 0 1-0.0352-0.035 0.42922 0.41214 0 0 1-0.0352-0.018 0.42922 0.41214 0 0 1-0.0176-0.018h-0.0176zm-4.8888-4.3383v7.5694l4.271-3.7667zm12.954-0.018-4.3593 3.8026 4.3593 3.8024zm-12.301-0.5178 4.4299 3.9276a0.42922 0.41214 0 0 1 0.0883 0.054l0.0352 0.018 1.2001 1.0889 1.2531-1.0889 0.0352-0.035a0.42922 0.41214 0 0 1 0.0176 0l4.5887-3.9633h-11.648zm-1.1648-0.8211a0.42922 0.41214 0 0 1 0.0352 0 0.42922 0.41214 0 0 1 0.0352 0 0.42922 0.41214 0 0 1 0.0176 0 0.42922 0.41214 0 0 1 0.0352 0h0.0352 13.696 0.0529a0.42922 0.41214 0 0 1 0.0529 0 0.42922 0.41214 0 0 1 0.10588 0.035 0.42922 0.41214 0 0 1 0.0529 0.017 0.42922 0.41214 0 0 1 0.0176 0.018 0.42922 0.41214 0 0 1 0.0176 0.018 0.42922 0.41214 0 0 1 0.0176 0 0.42922 0.41214 0 0 1 0.0352 0.053 0.42922 0.41214 0 0 1 0.0353 0.017 0.42922 0.41214 0 0 1 0 0.018 0.42922 0.41214 0 0 1 0.0176 0.018 0.42922 0.41214 0 0 1 0 0.018 0.42922 0.41214 0 0 1 0.0176 0 0.42922 0.41214 0 0 1 0 0.018 0.42922 0.41214 0 0 1 0.0176 0.018 0.42922 0.41214 0 0 1 0 0.017 0.42922 0.41214 0 0 1 0.0176 0.018 0.42922 0.41214 0 0 1 0 0.018 0.42922 0.41214 0 0 1 0.0176 0.072 0.42922 0.41214 0 0 1 0 0.035 0.42922 0.41214 0 0 1 0 0.018 0.42922 0.41214 0 0 1 0 0.053v9.3368a0.42922 0.41214 0 0 1 0 0.054 0.42922 0.41214 0 0 1 0 0.035 0.42922 0.41214 0 0 1-0.0353 0.1244 0.42922 0.41214 0 0 1-0.0176 0.035 0.42922 0.41214 0 0 1-0.0176 0.018 0.42922 0.41214 0 0 1-0.0176 0.036 0.42922 0.41214 0 0 1-0.0353 0.035 0.42922 0.41214 0 0 1-0.0176 0.018 0.42922 0.41214 0 0 1-0.0176 0 0.42922 0.41214 0 0 1-0.0176 0.035 0.42922 0.41214 0 0 1-0.0352 0.018 0.42922 0.41214 0 0 1-0.15884 0.053 0.42922 0.41214 0 0 1-0.0529 0h-0.0706-13.678-0.0353a0.42922 0.41214 0 0 1-0.0529 0 0.42922 0.41214 0 0 1-0.0706 0 0.42922 0.41214 0 0 1-0.0176 0 0.42922 0.41214 0 0 1-0.0352-0.018 0.42922 0.41214 0 0 1-0.0706-0.035 0.42922 0.41214 0 0 1-0.0706-0.035 0.42922 0.41214 0 0 1 0-0.018 0.42922 0.41214 0 0 1-0.0353-0.018 0.42922 0.41214 0 0 1-0.0352-0.035 0.42922 0.41214 0 0 1-0.0176-0.018 0.42922 0.41214 0 0 1 0-0.018 0.42922 0.41214 0 0 1-0.0176-0.017 0.42922 0.41214 0 0 1-0.053-0.1069 0.42922 0.41214 0 0 1 0-0.018 0.42922 0.41214 0 0 1 0-0.072v-0.017a0.42922 0.41214 0 0 1 0-0.035v-9.3904a0.42922 0.41214 0 0 1 0-0.018 0.42922 0.41214 0 0 1 0.0176-0.018 0.42922 0.41214 0 0 1 0-0.089 0.42922 0.41214 0 0 1 0.0176-0.035 0.42922 0.41214 0 0 1 0.0176-0.053 0.42922 0.41214 0 0 1 0.0176-0.018 0.42922 0.41214 0 0 1 0.0176-0.035 0.42922 0.41214 0 0 1 0.0353-0.018 0.42922 0.41214 0 0 1 0.0352-0.035 0.42922 0.41214 0 0 1 0.0352-0.017 0.42922 0.41214 0 0 1 0-0.018 0.42922 0.41214 0 0 1 0.0706-0.035 0.42922 0.41214 0 0 1 0.0352-0.018 0.42922 0.41214 0 0 1 0.0529-0.018z" color="#000000" fill="#fefefe" stroke="#fff" stroke-width=".3" style="paint-order:markers stroke fill"/>
<ellipse cx="252.15" cy="1040.4" rx="11.349" ry="11.497" fill="none" stroke="#fff" stroke-linecap="round" stroke-linejoin="round" style="paint-order:stroke fill markers"/>
<path d="m244.67 1035.6v9.4079h4.8326s2.95 0.095 2.95-2.7768c0 0 0.12898-2.336-1.7391-2.336 0 0 1.417-0.1069 1.417-1.7902s-1.1594-2.5049-2.6279-2.5049h-2.7825zm9.7191 0.5539v1.1589h3.8314v-1.1589zm-7.5897 1.118h2.7033s0.65698 0 0.65698 0.9789c0 0.9787-0.38626 1.1207-0.82445 1.1207h-2.5358zm9.5877 0.7217c-3.5713 0-3.568 3.6146-3.568 3.6146s-0.24509 3.5963 3.568 3.5963c0 0 3.1776 0.184 3.1776-2.5017h-1.6341s0.0542 1.0117-1.4892 1.0117c0 0-1.6344 0.111-1.6344-1.6371h4.812s0.52656-4.0838-3.2321-4.0838zm0.0362 1.3779c1.4345 0 1.4164 1.4502 1.4164 1.4502h-3.0504s0.19954-1.4502 1.6341-1.4502zm-9.6238 1.4502h2.7033s0.97901-0.013 0.97901 1.2918c0 1.1232-0.76105 1.2176-1.1381 1.2223h-2.5442z" fill="#fff"/>
<g transform="matrix(.019351 0 0 .019351 200.02 1019.9)" fill="#fff">
<path d="m210.58 721.93c-91.224 0-102.66 0.38666-138.49 2.0213-35.752 1.6307-60.169 7.3093-81.535 15.612-22.088 8.584-40.82 20.069-59.494 38.743-18.673 18.673-30.159 37.407-38.743 59.495-8.3031 21.365-13.981 45.783-15.613 81.535-1.6344 35.827-2.0208 47.265-2.0208 138.49 0 91.223 0.38646 102.66 2.0208 138.49 1.6318 35.752 7.3099 60.169 15.613 81.534 8.5839 22.088 20.069 40.82 38.743 59.495 18.674 18.673 37.406 30.159 59.494 38.743 21.366 8.3026 45.783 13.981 81.535 15.612 35.827 1.6344 47.265 2.0214 138.49 2.0214 91.223 0 102.66-0.387 138.49-2.0214 35.752-1.6307 60.169-7.3093 81.535-15.612 22.088-8.5839 40.82-20.069 59.495-38.743 18.673-18.674 30.159-37.407 38.743-59.495 8.3027-21.365 13.981-45.782 15.612-81.534 1.6347-35.827 2.0213-47.265 2.0213-138.49 0-91.224-0.38666-102.66-2.0213-138.49-1.6307-35.752-7.3093-60.169-15.612-81.535-8.584-22.088-20.069-40.821-38.743-59.495-18.675-18.673-37.407-30.159-59.495-38.743-21.365-8.3027-45.783-13.981-81.535-15.612-35.827-1.6347-47.265-2.0213-138.49-2.0213zm0 60.521c89.687 0 100.31 0.34267 135.73 1.9587 32.749 1.4933 50.535 6.9653 62.371 11.565 15.679 6.0933 26.868 13.372 38.621 25.125 11.755 11.755 19.033 22.944 25.127 38.623 4.6 11.836 10.072 29.621 11.565 62.371 1.616 35.419 1.9587 46.043 1.9587 135.73 0 89.687-0.34267 100.31-1.9587 135.73-1.4933 32.749-6.9653 50.535-11.565 62.371-6.0933 15.679-13.372 26.868-25.127 38.621-11.753 11.755-22.943 19.033-38.621 25.127-11.836 4.6-29.621 10.072-62.371 11.565-35.413 1.6163-46.036 1.959-135.73 1.959-89.695 0-100.32-0.3427-135.73-1.959-32.749-1.4932-50.535-6.965-62.371-11.565-15.679-6.0932-26.868-13.372-38.621-25.127-11.754-11.754-19.033-22.943-25.127-38.621-4.6-11.836-10.071-29.621-11.566-62.371-1.6161-35.419-1.9584-46.043-1.9584-135.73 0-89.688 0.34227-100.31 1.9584-135.73 1.4943-32.749 6.9656-50.535 11.566-62.371 6.0932-15.679 13.372-26.868 25.126-38.621 11.754-11.755 22.943-19.033 38.622-25.127 11.836-4.6 29.621-10.072 62.371-11.565 35.419-1.616 46.043-1.9587 135.73-1.9587"/>
<path d="m210.58 1169.8c-61.837 0-111.97-50.128-111.97-111.96 0-61.837 50.128-111.97 111.97-111.97 61.836 0 111.96 50.128 111.96 111.97 0 61.836-50.128 111.96-111.96 111.96zm0-284.45c-95.263 0-172.49 77.224-172.49 172.49 0 95.261 77.224 172.49 172.49 172.49 95.261 0 172.49-77.224 172.49-172.49 0-95.263-77.224-172.49-172.49-172.49"/>
<path d="m430.18 878.53c0 22.261-18.047 40.307-40.308 40.307-22.26 0-40.307-18.045-40.307-40.307 0-22.261 18.047-40.308 40.307-40.308 22.261 0 40.308 18.047 40.308 40.308"/>
</g>
<path d="m235.3 1036.8c-0.17142-0.6381-0.67616-1.1428-1.3238-1.3142-1.1714-0.3048-5.8569-0.3048-5.8569-0.3048s-4.5998-0.019-5.7712 0.2857c-0.64759 0.1714-1.2666 0.6952-1.438 1.3333-0.31427 1.1618-0.2857 3.5713-0.2857 3.5713s-0.0286 2.4094 0.2857 3.5712c0.17142 0.6381 0.79997 1.1619 1.438 1.3333 1.1714 0.3143 5.7712 0.2857 5.7712 0.2857s4.5998 0.019 5.7712-0.2857c0.64759-0.1714 1.2476-0.6952 1.419-1.3333 0.31427-1.1523 0.31427-3.5712 0.31427-3.5712s-0.01-2.4095-0.32379-3.5713z" fill="none" stroke="#fff" stroke-width="1.2"/>
<polygon transform="matrix(.14463 0 0 .14463 216.76 1032.4)" points="103.2 55 63.9 30.8 63.9 79.2" fill="#fff" stroke-width="6.9143"/>
</g>
<style type="text/css">.st0{fill:#FF0000;}
	.st1{fill:#FFFFFF;}
	.st2{fill:#282828;}</style>
</svg>
