<svg width="750" height="200" version="1.1" viewBox="0 0 198.44 52.917" xmlns="http://www.w3.org/2000/svg">
 <path d="m117.28 3.0002v33.508l-19-23.336v26.193h0.9984v-22.992l19 23.371v-36.744h-0.99788zm-95.173 10.104c-1.5145 0-2.7884 0.42432-3.821 1.2733-1.0326 0.849-1.5488 2.0768-1.5488 3.683v0.24082c6e-6 1.0326 0.29845 1.9853 0.89505 2.8572 0.5966 0.87194 1.3422 1.5947 2.2371 2.1684 0.89493 0.57369 1.8704 1.1929 2.926 1.8583 1.0555 0.66545 2.0305 1.308 2.9254 1.9276 0.89493 0.5966 1.641 1.3767 2.2376 2.3405 0.59661 0.9408 0.89453 1.9853 0.89453 3.1327v0.20619c-6.7e-5 1.8357-0.63093 3.3046-1.8929 4.406-1.262 1.1014-2.7532 1.6521-4.4742 1.6521-1.721 0-3.167-0.40198-4.3373-1.2051-1.1473-0.82607-2.0193-1.8929-2.6159-3.2009v1.8588c1.5833 2.3635 3.8094 3.545 6.6777 3.545 2.1799 0 4.004-0.64256 5.4726-1.9276 1.4915-1.285 2.2371-3.0172 2.2371-5.1972v-0.34417c0-1.1014-0.22941-2.1114-0.68834-3.0293-0.436-0.91785-1.0095-1.6863-1.7208-2.3058-0.6884-0.64249-1.4685-1.2394-2.3405-1.7901-0.84907-0.57366-1.7099-1.101-2.5818-1.5829-0.849-0.50485-1.6174-1.0098-2.3058-1.5147-1.6063-1.1932-2.4097-2.5129-2.4097-3.9585v-0.17208c0-1.2161 0.39029-2.1683 1.1705-2.8567 0.80313-0.71133 1.767-1.0671 2.8913-1.0671s2.1339 0.2756 3.0288 0.82632c0.91783 0.55073 1.6406 1.308 2.1684 2.2717v-1.7555c-1.2391-1.5603-2.914-2.3405-5.0251-2.3405zm24.784 0.005685c-3.6944 0-6.8604 1.3197-9.4993 3.9585-2.6388 2.6159-3.9585 5.7251-3.9585 9.3277 0 3.5796 1.2967 6.7117 3.8897 9.3964 2.6159 2.6847 5.7023 4.0272 9.259 4.0272h0.51625c3.6026 0 6.6996-1.3308 9.2926-3.9926 2.5929-2.6847 3.8897-5.8285 3.8897-9.4311 0-3.6255-1.3079-6.7464-3.9238-9.3623-2.6159-2.6159-5.7708-3.9238-9.4652-3.9238h-5.17e-4zm17.703 0.44029v25.815h1.0325v-24.472l12.116 24.954 12.185-24.954v35.023h1.1353v-36.366h-1.5839l-11.634 23.818-11.599-23.818h-1.6521zm60.896 0v25.815h1.1359v-25.815h-1.1359zm30.95 0v25.815h1.0325v-24.472l12.116 24.954 12.185-24.954v24.472h1.1359v-25.815h-1.5844l-11.634 23.818-11.599-23.818h-1.6521zm-22.603 0.003618v18.552c0 2.2259 0.72277 4.0733 2.1684 5.5418 1.4685 1.4686 3.2582 2.203 5.3692 2.203h0.34417l5.2e-4 -5.16e-4c2.0881 0 3.8549-0.73388 5.3005-2.2025 1.4685-1.4915 2.2025-3.3618 2.2025-5.6106v-18.483h-1.1353v18.518c0 1.9734-0.63139 3.6026-1.8934 4.8876-1.2391 1.2621-2.7876 1.8929-4.6463 1.8929-1.8587 0-3.4194-0.64256-4.6814-1.9276-1.2621-1.285-1.8929-2.9025-1.8929-4.853v-18.518h-1.1359zm-86.982 0.55398c3.3961 0 6.2876 1.2166 8.674 3.6489 2.4094 2.4094 3.6143 5.312 3.6143 8.7081 0 3.3731-1.205 6.2758-3.6143 8.7081-2.4094 2.4323-5.3009 3.6489-8.674 3.6489-3.3731 0-6.2636-1.2166-8.673-3.6489-2.4094-2.4323-3.6143-5.335-3.6143-8.7081 0-3.3961 1.205-6.2987 3.6143-8.7081 2.4094-2.4323 5.2999-3.6489 8.673-3.6489zm-8.1335 8.8208v1.1353h16.268v-1.1353h-16.268zm0 2.9688v1.1348h16.268v-1.1348h-16.268zm0 2.9683v1.1353h16.268v-1.1353h-16.268z" fill="#f1f1f1"/>
</svg>
