<?xml version="1.0" encoding="UTF-8" standalone="no"?>
<svg
   xmlns:dc="http://purl.org/dc/elements/1.1/"
   xmlns:cc="http://creativecommons.org/ns#"
   xmlns:rdf="http://www.w3.org/1999/02/22-rdf-syntax-ns#"
   xmlns:svg="http://www.w3.org/2000/svg"
   xmlns="http://www.w3.org/2000/svg"
   xmlns:sodipodi="http://sodipodi.sourceforge.net/DTD/sodipodi-0.dtd"
   xmlns:inkscape="http://www.inkscape.org/namespaces/inkscape"
   version="1.1"
   id="Calque_1"
   x="0px"
   y="0px"
   width="1063.1232"
   height="1264.004"
   viewBox="0 0 1063.1231 1264.004"
   enable-background="new 0 0 313.056 371.719"
   xml:space="preserve"
   inkscape:version="0.48.5 r10040"
   sodipodi:docname="under-construction_geek_man_01.svg"><metadata
     id="metadata15"><rdf:RDF><cc:Work
         rdf:about=""><dc:format>image/svg+xml</dc:format><dc:type
           rdf:resource="http://purl.org/dc/dcmitype/StillImage" /><dc:title /></cc:Work></rdf:RDF></metadata><defs
     id="defs13" /><sodipodi:namedview
     pagecolor="#ffffff"
     bordercolor="#666666"
     borderopacity="1"
     objecttolerance="10"
     gridtolerance="10"
     guidetolerance="10"
     inkscape:pageopacity="0"
     inkscape:pageshadow="2"
     inkscape:window-width="1920"
     inkscape:window-height="1055"
     id="namedview11"
     showgrid="false"
     inkscape:zoom="0.44893375"
     inkscape:cx="262.16295"
     inkscape:cy="393.14889"
     inkscape:window-x="0"
     inkscape:window-y="0"
     inkscape:window-maximized="1"
     inkscape:current-layer="layer3"
     showguides="true"
     inkscape:guide-bbox="true"
     fit-margin-top="0"
     fit-margin-left="0"
     fit-margin-right="0"
     fit-margin-bottom="0"><sodipodi:guide
       orientation="1,0"
       position="536.06669,-185.69289"
       id="guide3007" /><sodipodi:guide
       orientation="0,1"
       position="289.78134,329.8526"
       id="guide4009" /></sodipodi:namedview><g
     inkscape:groupmode="layer"
     id="layer3"
     inkscape:label="background"
     transform="translate(351.78176,-260.60293)"
     style="display:inline"><g
       id="g3986"
       transform="matrix(1.0629921,0,0,1.0629921,-11.320579,-85.994177)"><g
         transform="translate(155.39908,-177.08626)"
         id="g3171"><g
           style="display:inline"
           id="g4435"
           transform="translate(55.658952,806.46315)"><rect
             rx="14.14466"
             ry="14.14466"
             y="600.79651"
             x="-516.35327"
             height="270"
             width="970"
             id="rect4430"
             style="fill:#ffbb00;fill-opacity:1;stroke:none;display:inline" /></g><path
           style="fill:#000000;fill-opacity:1;stroke:none;display:inline"
           d="m -451.18481,1392.2444 c -13.57441,0 -24.5,10.9568 -24.5,24.5312 l 0,250.9688 c 0,13.5744 10.92559,24.5 24.5,24.5 l 950.99999,0 c 13.57441,0 24.5,-10.9256 24.5,-24.5 l 0,-250.9688 c 0,-13.5744 -10.92559,-24.5312 -24.5,-24.5312 l -950.99999,0 z m 5.53125,15 939.93749,0 c 8.32976,0 15.03125,6.7327 15.03125,15.0625 l 0,239.9063 c 0,8.3297 -6.70149,15.0312 -15.03125,15.0312 l -939.93749,0 c -8.32976,0 -15.03125,-6.7015 -15.03125,-15.0312 l 0,-239.9063 c 0,-8.3298 6.70149,-15.0625 15.03125,-15.0625 z"
           id="rect4221"
           inkscape:connector-curvature="0" /><path
           style="font-size:105px;font-style:normal;font-variant:normal;font-weight:bold;font-stretch:normal;text-align:center;line-height:104.99999523%;letter-spacing:-0.33999994px;word-spacing:0px;writing-mode:lr-tb;text-anchor:middle;fill:#000000;fill-opacity:1;stroke:#000000;stroke-width:1.88148153;stroke-miterlimit:4;stroke-opacity:1;stroke-dasharray:none;display:inline;font-family:Liberation Sans;-inkscape-font-specification:Liberation Sans Bold"
           inkscape:connector-curvature="0"
           id="path4706"
           d="m -123.36272,1523.7668 c -4.51175,0 -8.64749,-0.5298 -12.40723,-1.5894 -3.75978,-1.0938 -7.00685,-2.7686 -9.74121,-5.0244 -2.70021,-2.2901 -4.81934,-5.2124 -6.35742,-8.7671 -1.50391,-3.5547 -2.25587,-7.793 -2.25586,-12.7149 l 0,-45.1684 15.12451,0 0,43.9892 c -2e-5,3.042 0.37596,5.6739 1.12793,7.8955 0.75193,2.1876 1.82859,3.9991 3.22998,5.4346 1.40134,1.4014 3.09324,2.4439 5.07569,3.1275 1.98238,0.6494 4.18697,0.9741 6.61377,0.9741 2.46089,0 4.71675,-0.3418 6.76757,-1.0254 2.08492,-0.7178 3.86226,-1.8115 5.33203,-3.2813 1.50386,-1.4697 2.66597,-3.3325 3.48633,-5.5883 0.82026,-2.2559 1.23042,-4.939 1.23047,-8.0494 l 0,-43.4765 15.124508,0 0,44.3994 c -7e-5,4.9561 -0.80329,9.2456 -2.40966,12.8686 -1.60652,3.6231 -3.84528,6.6309 -6.716308,9.0235 -2.87115,2.3584 -6.28912,4.1186 -10.25391,5.2807 -3.93071,1.128 -8.25444,1.692 -12.97119,1.692" /><path
           style="font-size:105px;font-style:normal;font-variant:normal;font-weight:bold;font-stretch:normal;text-align:center;line-height:104.99999523%;letter-spacing:-0.33999994px;word-spacing:0px;writing-mode:lr-tb;text-anchor:middle;fill:#000000;fill-opacity:1;stroke:#000000;stroke-width:1.88148153;stroke-miterlimit:4;stroke-opacity:1;stroke-dasharray:none;display:inline;font-family:Liberation Sans;-inkscape-font-specification:Liberation Sans Bold"
           inkscape:connector-curvature="0"
           id="path4708"
           d="m -33.878502,1522.7413 -31.47949,-55.6274 c 0.17088,1.504 0.32469,3.0079 0.46143,4.5117 0.13669,1.2989 0.23923,2.7003 0.30761,4.2041 0.10252,1.504 0.15379,2.9395 0.15381,4.3067 l 0,42.6049 -13.43262,0 0,-72.2387 17.27784,0 31.94091,56.0888 c -0.17095,-1.4355 -0.32476,-2.9394 -0.46142,-4.5117 -0.13678,-1.333 -0.25641,-2.8369 -0.35889,-4.5117 -0.0684,-1.6748 -0.10259,-3.3667 -0.10254,-5.0757 l 0,-41.9897 13.432619,0 0,72.2387 -17.739259,0" /><path
           style="font-size:105px;font-style:normal;font-variant:normal;font-weight:bold;font-stretch:normal;text-align:center;line-height:104.99999523%;letter-spacing:-0.33999994px;word-spacing:0px;writing-mode:lr-tb;text-anchor:middle;fill:#000000;fill-opacity:1;stroke:#000000;stroke-width:1.88148153;stroke-miterlimit:4;stroke-opacity:1;stroke-dasharray:none;display:inline;font-family:Liberation Sans;-inkscape-font-specification:Liberation Sans Bold"
           inkscape:connector-curvature="0"
           id="path4710"
           d="m 62.06568,1486.0836 c -7e-5,6.0157 -0.90583,11.3135 -2.71728,15.8936 -1.81159,4.5459 -4.28962,8.3569 -7.43408,11.4331 -3.14459,3.0762 -6.87017,5.4004 -11.17676,6.9726 -4.27251,1.5723 -8.88676,2.3584 -13.84277,2.3584 l -29.22364,0 0,-72.2387 26.14746,0 c 5.60543,0 10.74947,0.7007 15.43213,2.102 4.68257,1.4015 8.71577,3.5548 12.09961,6.46 3.38373,2.9053 6.01556,6.5967 7.89551,11.0742 1.87981,4.4776 2.81975,9.7925 2.81982,15.9448 m -15.22705,0 c -5e-5,-4.204 -0.58111,-7.81 -1.74316,-10.8178 -1.12798,-3.0078 -2.71734,-5.4687 -4.76807,-7.3829 -2.05083,-1.9481 -4.51176,-3.3837 -7.38281,-4.3066 -2.83695,-0.9228 -5.98148,-1.3842 -9.43359,-1.3843 l -10.71533,0 0,48.8599 12.81738,0 c 3.04195,0 5.84468,-0.5298 8.4082,-1.5894 2.59761,-1.0595 4.83638,-2.6318 6.71631,-4.7168 1.91401,-2.1191 3.40083,-4.7338 4.46045,-7.8442 1.09369,-3.1103 1.64057,-6.7163 1.64062,-10.8179" /><path
           style="font-size:105px;font-style:normal;font-variant:normal;font-weight:bold;font-stretch:normal;text-align:center;line-height:104.99999523%;letter-spacing:-0.33999994px;word-spacing:0px;writing-mode:lr-tb;text-anchor:middle;fill:#000000;fill-opacity:1;stroke:#000000;stroke-width:1.88148153;stroke-miterlimit:4;stroke-opacity:1;stroke-dasharray:none;display:inline;font-family:Liberation Sans;-inkscape-font-specification:Liberation Sans Bold"
           inkscape:connector-curvature="0"
           id="path4712"
           d="m 73.21005,1522.7413 0,-72.2387 56.80664,0 0,11.6894 -41.68213,0 0,18.1494 38.55469,0 0,11.6895 -38.55469,0 0,19.021 43.78418,0 0,11.6894 -58.90869,0" /><path
           style="font-size:105px;font-style:normal;font-variant:normal;font-weight:bold;font-stretch:normal;text-align:center;line-height:104.99999523%;letter-spacing:-0.33999994px;word-spacing:0px;writing-mode:lr-tb;text-anchor:middle;fill:#000000;fill-opacity:1;stroke:#000000;stroke-width:1.88148153;stroke-miterlimit:4;stroke-opacity:1;stroke-dasharray:none;display:inline;font-family:Liberation Sans;-inkscape-font-specification:Liberation Sans Bold"
           inkscape:connector-curvature="0"
           id="path4714"
           d="m 192.63569,1522.7413 -16.76513,-27.4292 -17.73926,0 0,27.4292 -15.12451,0 0,-72.2387 36.09375,0 c 4.51167,0 8.44233,0.5127 11.79199,1.5381 3.38373,0.9912 6.20355,2.4268 8.45947,4.3066 2.25579,1.8458 3.9306,4.1016 5.02441,6.7676 1.12787,2.6319 1.69183,5.6055 1.6919,8.9209 -7e-5,2.7002 -0.41023,5.1782 -1.23047,7.4341 -0.7862,2.2217 -1.89704,4.2041 -3.33252,5.9472 -1.40143,1.7432 -3.07623,3.2129 -5.02441,4.4092 -1.9483,1.1621 -4.06744,2.0166 -6.35742,2.5635 l 19.53369,30.3515 -17.02149,0 m -1.79443,-50.0903 c -6e-5,-3.5204 -1.16216,-6.1352 -3.48633,-7.8442 -2.29009,-1.709 -5.57133,-2.5634 -9.84375,-2.5635 l -19.37988,0 0,21.3281 19.79004,0 c 2.25581,10e-5 4.18696,-0.2563 5.79345,-0.769 1.64058,-0.5469 2.97359,-1.2988 3.99903,-2.2559 1.05951,-0.9911 1.84565,-2.1533 2.3584,-3.4863 0.51264,-1.333 0.76898,-2.8027 0.76904,-4.4092" /><path
           style="font-size:105px;font-style:normal;font-variant:normal;font-weight:bold;font-stretch:normal;text-align:center;line-height:104.99999523%;letter-spacing:-0.33999994px;word-spacing:0px;writing-mode:lr-tb;text-anchor:middle;fill:#000000;fill-opacity:1;stroke:#000000;stroke-width:1.88148153;stroke-miterlimit:4;stroke-opacity:1;stroke-dasharray:none;display:inline;font-family:Liberation Sans;-inkscape-font-specification:Liberation Sans Bold"
           inkscape:connector-curvature="0"
           id="path4716"
           d="m -354.73131,1622.1222 c 2.83687,10e-5 5.28071,-0.393 7.33154,-1.1792 2.08491,-0.8203 3.87934,-1.8798 5.3833,-3.1787 1.53803,-1.2988 2.80268,-2.7685 3.79394,-4.4091 1.02534,-1.6406 1.86273,-3.2984 2.51221,-4.9732 l 13.17627,4.9732 c -1.05965,2.5976 -2.44392,5.144 -4.15284,7.6391 -1.70905,2.4951 -3.84528,4.6997 -6.40869,6.6138 -2.56353,1.9141 -5.62261,3.4692 -9.17724,4.6655 -3.52056,1.1621 -7.67338,1.7432 -12.45849,1.7432 -6.25492,0 -11.6724,-0.9229 -16.25245,-2.7686 -4.58009,-1.8799 -8.37404,-4.4775 -11.38183,-7.7929 -2.97365,-3.3496 -5.19532,-7.3145 -6.66504,-11.8946 -1.43555,-4.58 -2.15333,-9.5873 -2.15332,-15.0219 -1e-5,-5.6397 0.71777,-10.7324 2.15332,-15.2784 1.46972,-4.5458 3.67431,-8.4081 6.61377,-11.5869 2.93944,-3.2128 6.64793,-5.6737 11.12549,-7.3828 4.51169,-1.7431 9.80953,-2.6147 15.89355,-2.6147 4.71675,0 8.8354,0.4956 12.35596,1.4868 3.55463,0.9913 6.6137,2.3926 9.17724,4.2041 2.59759,1.7774 4.73382,3.8965 6.40869,6.3574 1.70892,2.4268 3.04192,5.1099 3.99902,8.0493 l -13.33007,3.6402 c -0.47857,-1.5381 -1.21344,-3.0078 -2.20459,-4.4092 -0.99127,-1.4355 -2.25591,-2.7002 -3.79394,-3.794 -1.50396,-1.0937 -3.2813,-1.9652 -5.33204,-2.6147 -2.05082,-0.6836 -4.37504,-1.0253 -6.97265,-1.0254 -3.65726,10e-5 -6.80179,0.5982 -9.4336,1.7944 -2.63186,1.1622 -4.80227,2.837 -6.51123,5.0244 -1.67482,2.1876 -2.92238,4.8194 -3.74267,7.8955 -0.78615,3.0421 -1.17922,6.46 -1.1792,10.254 -2e-5,3.7597 0.39305,7.2119 1.1792,10.3564 0.82029,3.1104 2.08494,5.7935 3.79394,8.0493 1.70896,2.2559 3.89646,4.0161 6.5625,5.2808 2.70017,1.2646 5.93014,1.897 9.68995,1.8969" /><path
           style="font-size:105px;font-style:normal;font-variant:normal;font-weight:bold;font-stretch:normal;text-align:center;line-height:104.99999523%;letter-spacing:-0.33999994px;word-spacing:0px;writing-mode:lr-tb;text-anchor:middle;fill:#000000;fill-opacity:1;stroke:#000000;stroke-width:1.88148153;stroke-miterlimit:4;stroke-opacity:1;stroke-dasharray:none;display:inline;font-family:Liberation Sans;-inkscape-font-specification:Liberation Sans Bold"
           inkscape:connector-curvature="0"
           id="path4718"
           d="m -242.6885,1596.5388 c -8e-5,5.6396 -0.83748,10.7666 -2.51221,15.3808 -1.67487,4.6143 -4.08454,8.562 -7.229,11.8433 -3.1446,3.2812 -6.98981,5.8105 -11.53564,7.5879 -4.51177,1.7773 -9.62163,2.666 -15.32959,2.666 -6.04984,0 -11.34769,-0.9229 -15.89356,-2.7686 -4.51174,-1.8799 -8.28859,-4.4775 -11.33057,-7.7929 -3.042,-3.3496 -5.33204,-7.3145 -6.87012,-11.8946 -1.50391,-4.58 -2.25586,-9.5873 -2.25586,-15.0219 0,-5.6397 0.78613,-10.7324 2.3584,-15.2784 1.60644,-4.5458 3.94775,-8.4081 7.02393,-11.5869 3.11033,-3.2128 6.92136,-5.6737 11.43311,-7.3828 4.54587,-1.7431 9.75826,-2.6147 15.63721,-2.6147 5.87886,0 11.07416,0.8716 15.58593,2.6147 4.54584,1.7432 8.35687,4.2213 11.43311,7.4341 3.11028,3.2129 5.46867,7.0923 7.07519,11.6382 1.60637,4.5117 2.40959,9.5703 2.40967,15.1758 m -15.43213,0 c -6e-5,-3.794 -0.46148,-7.2119 -1.38428,-10.254 -0.88873,-3.0761 -2.22173,-5.7079 -3.99902,-7.8955 -1.7774,-2.1874 -3.98198,-3.8622 -6.61377,-5.0244 -2.5977,-1.1962 -5.6226,-1.7943 -9.0747,-1.7944 -3.52055,10e-5 -6.61381,0.5982 -9.27979,1.7944 -2.63186,1.1622 -4.83645,2.837 -6.61377,5.0244 -1.77737,2.1876 -3.11038,4.8194 -3.99903,7.8955 -0.88869,3.0421 -1.33302,6.4599 -1.33301,10.254 -10e-6,3.7597 0.44432,7.2119 1.33301,10.3564 0.92283,3.1104 2.27293,5.7935 4.0503,8.0493 1.77732,2.2559 3.98191,4.0161 6.61377,5.2808 2.6318,1.2646 5.67379,1.897 9.12598,1.8969 3.69136,10e-5 6.87007,-0.6323 9.53613,-1.8969 2.66596,-1.2988 4.85346,-3.0762 6.5625,-5.3321 1.7431,-2.29 3.02484,-4.9902 3.84521,-8.1006 0.82025,-3.1444 1.23041,-6.5625 1.23047,-10.2538" /><path
           style="font-size:105px;font-style:normal;font-variant:normal;font-weight:bold;font-stretch:normal;text-align:center;line-height:104.99999523%;letter-spacing:-0.33999994px;word-spacing:0px;writing-mode:lr-tb;text-anchor:middle;fill:#000000;fill-opacity:1;stroke:#000000;stroke-width:1.88148153;stroke-miterlimit:4;stroke-opacity:1;stroke-dasharray:none;display:inline;font-family:Liberation Sans;-inkscape-font-specification:Liberation Sans Bold"
           inkscape:connector-curvature="0"
           id="path4720"
           d="m -187.6574,1632.9914 -31.47949,-55.6275 c 0.17087,1.504 0.32468,3.0079 0.46142,4.5118 0.1367,1.2988 0.23924,2.7002 0.30762,4.204 0.10252,1.504 0.15379,2.9396 0.15381,4.3067 l 0,42.605 -13.43262,0 0,-72.2388 17.27783,0 31.94092,56.0889 c -0.17095,-1.4355 -0.32476,-2.9394 -0.46143,-4.5117 -0.13677,-1.333 -0.2564,-2.8369 -0.35888,-4.5118 -0.0684,-1.6747 -0.1026,-3.3666 -0.10254,-5.0756 l 0,-41.9898 13.43262,0 0,72.2388 -17.73926,0" /><path
           style="font-size:105px;font-style:normal;font-variant:normal;font-weight:bold;font-stretch:normal;text-align:center;line-height:104.99999523%;letter-spacing:-0.33999994px;word-spacing:0px;writing-mode:lr-tb;text-anchor:middle;fill:#000000;fill-opacity:1;stroke:#000000;stroke-width:1.88148153;stroke-miterlimit:4;stroke-opacity:1;stroke-dasharray:none;display:inline;font-family:Liberation Sans;-inkscape-font-specification:Liberation Sans Bold"
           inkscape:connector-curvature="0"
           id="path4722"
           d="m -97.199072,1612.176 c -7e-5,3.2812 -0.59821,6.2719 -1.79444,8.9721 -1.196348,2.6661 -3.059138,4.9561 -5.588378,6.8701 -2.49517,1.9141 -5.70806,3.4009 -9.63867,4.4605 -3.89653,1.0254 -8.54496,1.5381 -13.94531,1.5381 -4.78519,0 -9.00637,-0.4273 -12.66357,-1.2818 -3.65725,-0.8545 -6.80178,-2.1191 -9.4336,-3.7939 -2.59766,-1.6748 -4.7168,-3.7427 -6.35742,-6.2036 -1.60645,-2.4951 -2.76856,-5.3491 -3.48633,-8.562 l 14.61182,-2.4097 c 0.41014,1.6065 1.00828,3.0762 1.79443,4.4092 0.78611,1.333 1.86277,2.4951 3.22998,3.4863 1.40135,0.9571 3.12742,1.709 5.17823,2.2559 2.08493,0.5127 4.59713,0.769 7.53662,0.769 5.12691,0 9.04048,-0.769 11.74072,-2.3071 2.73432,-1.5723 4.10151,-4.0161 4.10156,-7.3316 -5e-5,-1.9824 -0.54692,-3.6059 -1.64062,-4.8706 -1.0938,-1.2646 -2.54644,-2.3071 -4.35791,-3.1274 -1.81157,-0.8203 -3.89653,-1.5039 -6.25489,-2.0508 -2.35843,-0.5468 -4.81937,-1.0766 -7.38281,-1.5893 -2.05081,-0.4785 -4.10159,-0.9741 -6.15234,-1.4869 -2.05081,-0.5126 -4.01614,-1.1279 -5.896,-1.8457 -1.84572,-0.7177 -3.57179,-1.5722 -5.17822,-2.5634 -1.60646,-0.9912 -3.00783,-2.2046 -4.2041,-3.6402 -1.16212,-1.4697 -2.08497,-3.1786 -2.76856,-5.1269 -0.64942,-1.9482 -0.97413,-4.2383 -0.97412,-6.8701 -10e-6,-3.5889 0.71777,-6.665 2.15332,-9.2286 1.43554,-2.5634 3.41796,-4.6483 5.94727,-6.2548 2.56346,-1.6406 5.60545,-2.8369 9.12597,-3.5889 3.52048,-0.7519 7.3657,-1.1279 11.53565,-1.1279 4.71676,0 8.74995,0.376 12.09961,1.1279 3.38374,0.7178 6.20356,1.8287 8.45947,3.3325 2.28998,1.504 4.08441,3.401 5.3833,5.6909 1.33295,2.2559 2.307068,4.9049 2.922358,7.9468 l -14.663078,1.9995 c -0.752,-3.1103 -2.29009,-5.4516 -4.61426,-7.0239 -2.29008,-1.5722 -5.58842,-2.3583 -9.89502,-2.3584 -2.66605,10e-5 -4.88772,0.2393 -6.66504,0.7178 -1.74319,0.4444 -3.14455,1.0596 -4.2041,1.8457 -1.02541,0.7862 -1.76028,1.709 -2.20459,2.7685 -0.44436,1.0255 -0.66652,2.1192 -0.6665,3.2813 -2e-5,1.7774 0.42722,3.2471 1.28173,4.4092 0.85447,1.1279 2.05076,2.085 3.58887,2.871 1.53806,0.752 3.36667,1.4015 5.48584,1.9483 2.15329,0.5127 4.51168,1.0425 7.0752,1.5893 2.25582,0.4786 4.49458,0.9913 6.71631,1.5381 2.22163,0.5128 4.34077,1.128 6.35742,1.8457 2.01655,0.7178 3.89643,1.5894 5.63965,2.6148 1.7431,1.0254 3.24701,2.2901 4.51171,3.7939 1.29877,1.4698 2.307068,3.23 3.024908,5.2808 0.75188,2.0508 1.12786,4.4775 1.12793,7.2803" /><path
           style="font-size:105px;font-style:normal;font-variant:normal;font-weight:bold;font-stretch:normal;text-align:center;line-height:104.99999523%;letter-spacing:-0.33999994px;word-spacing:0px;writing-mode:lr-tb;text-anchor:middle;fill:#000000;fill-opacity:1;stroke:#000000;stroke-width:1.88148153;stroke-miterlimit:4;stroke-opacity:1;stroke-dasharray:none;display:inline;font-family:Liberation Sans;-inkscape-font-specification:Liberation Sans Bold"
           inkscape:connector-curvature="0"
           id="path4724"
           d="m -53.703602,1572.4421 0,60.5493 -15.12452,0 0,-60.5493 -23.32763,0 0,-11.6895 61.83105,0 0,11.6895 -23.3789,0" /><path
           style="font-size:105px;font-style:normal;font-variant:normal;font-weight:bold;font-stretch:normal;text-align:center;line-height:104.99999523%;letter-spacing:-0.33999994px;word-spacing:0px;writing-mode:lr-tb;text-anchor:middle;fill:#000000;fill-opacity:1;stroke:#000000;stroke-width:1.88148153;stroke-miterlimit:4;stroke-opacity:1;stroke-dasharray:none;display:inline;font-family:Liberation Sans;-inkscape-font-specification:Liberation Sans Bold"
           inkscape:connector-curvature="0"
           id="path4726"
           d="m 27.16731,1632.9914 -16.76514,-27.4292 -17.739263,0 0,27.4292 -15.124509,0 0,-72.2388 36.093752,0 c 4.51167,10e-5 8.44233,0.5128 11.79199,1.5381 3.38373,0.9913 6.20355,2.4268 8.45947,4.3066 2.2558,1.8457 3.9306,4.1017 5.02442,6.7676 1.12786,2.6319 1.69182,5.6055 1.69189,8.9209 -7e-5,2.7003 -0.41022,5.1783 -1.23047,7.4341 -0.7862,2.2217 -1.89704,4.204 -3.33252,5.9473 -1.40143,1.7432 -3.07623,3.2129 -5.02441,4.4091 -1.9483,1.1622 -4.06744,2.0167 -6.35742,2.5635 l 19.53369,30.3516 -17.02148,0 m -1.79444,-50.0903 c -5e-5,-3.5206 -1.16216,-6.1352 -3.48633,-7.8443 -2.29008,-1.7089 -5.57133,-2.5634 -9.84375,-2.5635 l -19.379883,0 0,21.3282 19.790043,0 c 2.25582,0 4.18697,-0.2563 5.79346,-0.7691 1.64057,-0.5468 2.97358,-1.2988 3.99902,-2.2558 1.05952,-0.9912 1.84565,-2.1533 2.3584,-3.4864 0.51264,-1.3329 0.76899,-2.8027 0.76904,-4.4091" /><path
           style="font-size:105px;font-style:normal;font-variant:normal;font-weight:bold;font-stretch:normal;text-align:center;line-height:104.99999523%;letter-spacing:-0.33999994px;word-spacing:0px;writing-mode:lr-tb;text-anchor:middle;fill:#000000;fill-opacity:1;stroke:#000000;stroke-width:1.88148153;stroke-miterlimit:4;stroke-opacity:1;stroke-dasharray:none;display:inline;font-family:Liberation Sans;-inkscape-font-specification:Liberation Sans Bold"
           inkscape:connector-curvature="0"
           id="path4728"
           d="m 83.12125,1634.0168 c -4.51175,0 -8.64748,-0.5298 -12.40722,-1.5894 -3.75979,-1.0937 -7.00686,-2.7685 -9.74121,-5.0244 -2.70021,-2.29 -4.81935,-5.2124 -6.35742,-8.7671 -1.50392,-3.5547 -2.25587,-7.7929 -2.25586,-12.7148 l 0,-45.1685 15.12451,0 0,43.9893 c -2e-5,3.042 0.37595,5.6738 1.12793,7.8955 0.75193,2.1875 1.82859,3.999 3.22998,5.4346 1.40134,1.4013 3.09323,2.4438 5.07568,3.1274 1.98239,0.6494 4.18698,0.9741 6.61377,0.9741 2.4609,0 4.71676,-0.3418 6.76758,-1.0254 2.08491,-0.7177 3.86226,-1.8115 5.33203,-3.2812 1.50386,-1.4697 2.66596,-3.3325 3.48633,-5.5884 0.82026,-2.2558 1.23041,-4.9389 1.23047,-8.0493 l 0,-43.4766 15.12451,0 0,44.3994 c -7e-5,4.9561 -0.80329,9.2457 -2.40967,12.8687 -1.60651,3.623 -3.84528,6.6309 -6.71631,9.0234 -2.87115,2.3584 -6.28911,4.1187 -10.2539,5.2808 -3.93071,1.1279 -8.25444,1.6919 -12.9712,1.6919" /><path
           style="font-size:105px;font-style:normal;font-variant:normal;font-weight:bold;font-stretch:normal;text-align:center;line-height:104.99999523%;letter-spacing:-0.33999994px;word-spacing:0px;writing-mode:lr-tb;text-anchor:middle;fill:#000000;fill-opacity:1;stroke:#000000;stroke-width:1.88148153;stroke-miterlimit:4;stroke-opacity:1;stroke-dasharray:none;display:inline;font-family:Liberation Sans;-inkscape-font-specification:Liberation Sans Bold"
           inkscape:connector-curvature="0"
           id="path4730"
           d="m 162.35157,1622.1222 c 2.83687,10e-5 5.28072,-0.393 7.33154,-1.1792 2.08491,-0.8203 3.87935,-1.8798 5.3833,-3.1787 1.53804,-1.2988 2.80268,-2.7685 3.79395,-4.4091 1.02533,-1.6406 1.86273,-3.2984 2.51221,-4.9732 l 13.17627,4.9732 c -1.05965,2.5976 -2.44392,5.144 -4.15284,7.6391 -1.70905,2.4951 -3.84528,4.6997 -6.40869,6.6138 -2.56353,1.9141 -5.62261,3.4692 -9.17724,4.6655 -3.52056,1.1621 -7.67339,1.7432 -12.4585,1.7432 -6.25492,0 -11.67239,-0.9229 -16.25244,-2.7686 -4.5801,-1.8799 -8.37404,-4.4775 -11.38184,-7.7929 -2.97364,-3.3496 -5.19532,-7.3145 -6.66504,-11.8946 -1.43555,-4.58 -2.15332,-9.5873 -2.15332,-15.0219 0,-5.6397 0.71777,-10.7324 2.15332,-15.2784 1.46972,-4.5458 3.67431,-8.4081 6.61377,-11.5869 2.93944,-3.2128 6.64793,-5.6737 11.12549,-7.3828 4.51169,-1.7431 9.80954,-2.6147 15.89356,-2.6147 4.71675,0 8.8354,0.4956 12.35595,1.4868 3.55464,0.9913 6.61371,2.3926 9.17725,4.2041 2.59759,1.7774 4.73382,3.8965 6.40869,6.3574 1.70892,2.4268 3.04192,5.1099 3.99902,8.0493 l -13.33007,3.6402 c -0.47858,-1.5381 -1.21344,-3.0078 -2.20459,-4.4092 -0.99127,-1.4355 -2.25592,-2.7002 -3.79395,-3.794 -1.50396,-1.0937 -3.2813,-1.9652 -5.33203,-2.6147 -2.05083,-0.6836 -4.37504,-1.0253 -6.97266,-1.0254 -3.65726,10e-5 -6.80179,0.5982 -9.43359,1.7944 -2.63186,1.1622 -4.80227,2.837 -6.51123,5.0244 -1.67483,2.1876 -2.92238,4.8194 -3.74268,7.8955 -0.78615,3.0421 -1.17921,6.46 -1.1792,10.254 -1e-5,3.7597 0.39305,7.2119 1.1792,10.3564 0.8203,3.1104 2.08494,5.7935 3.79395,8.0493 1.70896,2.2559 3.89646,4.0161 6.5625,5.2808 2.70016,1.2646 5.93014,1.897 9.68994,1.8969" /><path
           style="font-size:105px;font-style:normal;font-variant:normal;font-weight:bold;font-stretch:normal;text-align:center;line-height:104.99999523%;letter-spacing:-0.33999994px;word-spacing:0px;writing-mode:lr-tb;text-anchor:middle;fill:#000000;fill-opacity:1;stroke:#000000;stroke-width:1.88148153;stroke-miterlimit:4;stroke-opacity:1;stroke-dasharray:none;display:inline;font-family:Liberation Sans;-inkscape-font-specification:Liberation Sans Bold"
           inkscape:connector-curvature="0"
           id="path4732"
           d="m 236.76257,1572.4421 0,60.5493 -15.12451,0 0,-60.5493 -23.32763,0 0,-11.6895 61.83105,0 0,11.6895 -23.37891,0" /><path
           style="font-size:105px;font-style:normal;font-variant:normal;font-weight:bold;font-stretch:normal;text-align:center;line-height:104.99999523%;letter-spacing:-0.33999994px;word-spacing:0px;writing-mode:lr-tb;text-anchor:middle;fill:#000000;fill-opacity:1;stroke:#000000;stroke-width:1.88148153;stroke-miterlimit:4;stroke-opacity:1;stroke-dasharray:none;display:inline;font-family:Liberation Sans;-inkscape-font-specification:Liberation Sans Bold"
           inkscape:connector-curvature="0"
           id="path4734"
           d="m 268.00458,1632.9914 0,-72.2388 15.12451,0 0,72.2388 -15.12451,0" /><path
           style="font-size:105px;font-style:normal;font-variant:normal;font-weight:bold;font-stretch:normal;text-align:center;line-height:104.99999523%;letter-spacing:-0.33999994px;word-spacing:0px;writing-mode:lr-tb;text-anchor:middle;fill:#000000;fill-opacity:1;stroke:#000000;stroke-width:1.88148153;stroke-miterlimit:4;stroke-opacity:1;stroke-dasharray:none;display:inline;font-family:Liberation Sans;-inkscape-font-specification:Liberation Sans Bold"
           inkscape:connector-curvature="0"
           id="path4736"
           d="m 367.0249,1596.5388 c -8e-5,5.6396 -0.83748,10.7666 -2.51221,15.3808 -1.67487,4.6143 -4.08454,8.562 -7.229,11.8433 -3.1446,3.2812 -6.98981,5.8105 -11.53564,7.5879 -4.51177,1.7773 -9.62163,2.666 -15.32959,2.666 -6.04984,0 -11.34769,-0.9229 -15.89356,-2.7686 -4.51174,-1.8799 -8.28859,-4.4775 -11.33057,-7.7929 -3.042,-3.3496 -5.33204,-7.3145 -6.87011,-11.8946 -1.50391,-4.58 -2.25587,-9.5873 -2.25586,-15.0219 -10e-6,-5.6397 0.78613,-10.7324 2.3584,-15.2784 1.60643,-4.5458 3.94774,-8.4081 7.02392,-11.5869 3.11034,-3.2128 6.92137,-5.6737 11.43311,-7.3828 4.54587,-1.7431 9.75826,-2.6147 15.6372,-2.6147 5.87886,0 11.07417,0.8716 15.58594,2.6147 4.54584,1.7432 8.35687,4.2213 11.43311,7.4341 3.11028,3.2129 5.46867,7.0923 7.07519,11.6382 1.60637,4.5117 2.40959,9.5703 2.40967,15.1758 m -15.43213,0 c -6e-5,-3.794 -0.46149,-7.2119 -1.38428,-10.254 -0.88873,-3.0761 -2.22173,-5.7079 -3.99902,-7.8955 -1.7774,-2.1874 -3.98199,-3.8622 -6.61377,-5.0244 -2.5977,-1.1962 -5.6226,-1.7943 -9.07471,-1.7944 -3.52054,10e-5 -6.6138,0.5982 -9.27978,1.7944 -2.63187,1.1622 -4.83645,2.837 -6.61377,5.0244 -1.77737,2.1876 -3.11037,4.8194 -3.99902,7.8955 -0.8887,3.0421 -1.33303,6.4599 -1.33301,10.254 -2e-5,3.7597 0.44431,7.2119 1.33301,10.3564 0.92283,3.1104 2.27292,5.7935 4.05029,8.0493 1.77732,2.2559 3.9819,4.0161 6.61377,5.2808 2.6318,1.2646 5.67379,1.897 9.12598,1.8969 3.69136,10e-5 6.87007,-0.6323 9.53613,-1.8969 2.66596,-1.2988 4.85346,-3.0762 6.5625,-5.3321 1.7431,-2.29 3.02484,-4.9902 3.84521,-8.1006 0.82025,-3.1444 1.23041,-6.5625 1.23047,-10.2538" /><path
           style="font-size:105px;font-style:normal;font-variant:normal;font-weight:bold;font-stretch:normal;text-align:center;line-height:104.99999523%;letter-spacing:-0.33999994px;word-spacing:0px;writing-mode:lr-tb;text-anchor:middle;fill:#000000;fill-opacity:1;stroke:#000000;stroke-width:1.88148153;stroke-miterlimit:4;stroke-opacity:1;stroke-dasharray:none;display:inline;font-family:Liberation Sans;-inkscape-font-specification:Liberation Sans Bold"
           inkscape:connector-curvature="0"
           id="path4738"
           d="m 422.05603,1632.9914 -31.47949,-55.6275 c 0.17088,1.504 0.32468,3.0079 0.46142,4.5118 0.1367,1.2988 0.23924,2.7002 0.30762,4.204 0.10252,1.504 0.15379,2.9396 0.15381,4.3067 l 0,42.605 -13.43262,0 0,-72.2388 17.27783,0 31.94092,56.0889 c -0.17095,-1.4355 -0.32476,-2.9394 -0.46142,-4.5117 -0.13678,-1.333 -0.25641,-2.8369 -0.35889,-4.5118 -0.0684,-1.6747 -0.1026,-3.3666 -0.10254,-5.0756 l 0,-41.9898 13.43262,0 0,72.2388 -17.73926,0" /></g></g></g><g
     transform="translate(351.78176,420.0403)"
     style="display:inline"
     inkscape:label="man"
     id="g4116"
     inkscape:groupmode="layer"><g
       style="display:inline"
       id="g4471"
       transform="matrix(1.0596452,0,0,1.0596452,-422.76972,-711.37478)"><g
         id="g4467"><path
           style="font-size:12px;fill:#ff0000;fill-rule:evenodd;stroke-width:3pt;display:inline"
           sodipodi:nodetypes="cccccccc"
           id="path590"
           d="M 118.37603,1155.5025 C 81.091297,1152.45 55.703947,1109.1179 72.040917,1075.2249 139.61306,957.91018 448.02356,428.07748 522.11571,298.12702 c 21.28588,-30.76328 71.50629,-31.08328 92.69002,0.0117 67.81142,117.17651 374.91259,646.55345 450.40697,775.69438 15.9988,33.8157 -7.7832,79.8745 -45.3039,82.6728 -135.38356,0.1381 -751.94628,-1.8127 -901.53277,-1.0031 z"
           inkscape:connector-curvature="0" /><path
           style="font-size:12px;fill:#ffbb00;fill-opacity:1;fill-rule:evenodd;stroke:none;display:inline"
           sodipodi:nodetypes="cccc"
           id="path605"
           d="m 218.32612,1053.2324 710.5085,-2.0558 L 571.74379,423.89674 218.32612,1053.2324 z"
           inkscape:connector-curvature="0" /></g></g><path
       style="fill:#000000;fill-opacity:1;fill-rule:evenodd;stroke:none"
       d="m 192.29114,-12.678385 c -23.00583,0.591731 -33.31896,20.9996593 -34.11907,35.320439 -0.14116,2.526753 1.63249,7.397427 4.50516,10.271761 1.43634,1.437162 3.61503,4.8048 5.55636,5.436224 1.94134,0.631423 4.59068,3.560925 5.94681,4.65533 2.7123,2.18881 3.75338,2.137583 5.19595,4.925639 1.44258,2.788056 1.87322,10.455292 4.56523,13.755749 1.31616,1.613659 4.33564,-2.242285 6.51746,-0.570653 5.60433,4.293822 3.76142,1.715122 5.19595,3.333817 2.86906,3.23739 2.4061,2.257106 6.36729,3.153611 7.18172,0.699508 8.99555,-8.612844 16.39877,-10.722277 1.41264,1.329356 2.26121,2.783732 2.82324,4.294918 -0.43668,8.826553 -3.67423,20.017049 0,24.868472 6.95879,35.333425 3.06055,23.538335 6.24715,46.072745 -16.92142,3.67076 -29.17112,10.752 -45.26182,2.19251 -12.7803,-6.79933 -11.69429,-17.00211 -26.94085,-7.869 -2.73455,1.63893 -8.36781,3.05245 -5.61643,6.7277 4.40041,0.50514 16.7898,-1.36508 16.84929,6.75774 -16.61494,0.0573 -21.58866,-2.66007 -40.42628,-2.25258 -2.03295,2.08235 -0.18252,8.04408 -3.36385,8.98028 -22.19407,2.36524 -27.850288,-11.81564 -40.426286,-19.07184 0.738644,-7.868 -1.463026,-18.7171 1.141306,-24.7183 2.845684,4.63954 2.340808,12.64196 5.616431,16.84929 6.073029,1.20675 6.683078,-3.05071 12.344129,-2.25258 C 92.610737,74.156891 83.611032,28.426351 71.102387,-9.374602 c -2.284401,-1.466063 -7.457706,1.6969092 -11.23286,2.252579 9.578768,40.14598 16.153694,82.674133 14.596712,132.451643 -2.847924,9.12414 -14.732208,9.24465 -15.738019,20.21315 -22.448883,-0.74651 -4.231206,0.61456 -26.730605,-0.18021 l 0,17.96056 16.969429,0 c -0.01999,64.36737 -0.770918,151.6942 -0.02999,217.92951 5.472457,-0.51525 12.547771,0 18.110735,0 0,-56.22884 -0.0019,-157.58869 0.660757,-216.63803 l 130.229104,0 c 4.6283,0.8857 2.10165,-5.38861 6.7277,-4.50516 9.06801,5.15478 24.91829,3.54228 32.55728,10.12159 l 0,8.98028 c -26.78306,8.14078 -53.1834,18.4674 -77.45868,29.19343 -7.27305,3.21388 -19.98818,7.30385 -23.577,12.34413 -4.87862,6.8577 -2.01341,15.05898 -3.36385,24.68827 -6.75035,26.78903 -30.87535,88.5714 -30.87535,88.5714 l 4.77547,2.52289 4.77547,2.52289 c 0,0 -11.20183,9.69426 -22.165386,13.3653 -9.863148,3.30259 -20.625041,12.51058 -12.704546,13.06496 15.110574,1.05766 34.238482,0.89256 48.595642,-4.65533 1.55473,2.93549 -1.30487,3.3919 1.9222,4.65533 3.22707,1.26344 15.62273,0.13134 20.24318,0 2.29907,-9.64035 -1.38433,-13.04499 -1.08124,-21.26435 0.39514,-10.64184 7.08534,-22.21285 10.09155,-33.66854 3.13755,-11.95074 5.68414,-23.39716 10.12159,-33.66855 l -1.05125,-5.49629 c 4.17927,20.5888 7.89027,41.28034 11.68338,61.9309 7.51552,2.52575 14.60918,1.08106 22.19541,4.29492 0.14257,3.17011 2.3727,5.97889 2.25258,9.19052 -13.0138,18.30328 -22.6159,20.69369 -22.6159,20.69369 9.60347,-2.37869 -5.16548,0.77772 -4.47512,7.26833 0.69038,6.49062 23.69713,-2.25258 23.69713,-2.25258 4.23203,-4.29491 8.96793,-3.85855 13.15506,-8.5598 1.88029,3.99572 0.94723,3.21128 3.87444,2.46282 2.92721,-0.74846 9.73585,-1.48316 12.10386,-2.73313 1.26829,-13.11069 -0.78277,-20.10136 -5.85671,-30.96546 l 3.18365,-0.0601 c -8.7794,-28.71695 -17.72468,-58.34227 -24.56813,-88.15093 0,0 44.15713,-3.31815 57.30561,-0.75086 -1.50585,22.07151 0,52.87686 0,76.88803 -1.27619,23.22251 0.54223,38.82797 -10.69224,40.15598 -9.48556,1.12126 -32.113,8.93385 -40.8768,11.11272 0.31543,3.80209 0.54441,4.56085 -0.12014,9.34069 l 10.84241,0 c 3.15529,-3e-5 2.64447,-3.2076 5.46626,-6.90791 6.54682,-2.69697 29.92815,-4.7669 41.17715,-5.49629 18.11289,-2.92313 36.76413,2.6326 64.42376,5.55636 2.98263,0.94071 5.40619,6.84784 5.40619,6.84784 l 11.32296,-0.12013 c 0,0 0.85324,-4.75612 0.54062,-9.10042 -18.99816,-5.32316 -43.1895,-5.41044 -61.72067,-11.20283 -11.68788,-0.0218 -11.71341,-7.67585 -11.71341,-38.02353 l 0,-34.56958 c 0.70384,-13.5167 0.0162,-29.25914 0.57066,-42.799 11.87439,-0.0988 25.98769,4.45572 34.80985,-1.11128 12.05166,-7.6049 10.59112,-9.27697 13.09499,-27.54153 2.50385,-18.26455 6.28909,-56.27547 8.22942,-74.63545 0.67578,-6.38846 4.46029,-35.9022 5.37616,-42.85907 -1.07686,-0.154718 -2.20799,-0.478244 -4.26488,-0.901032 -5.57526,30.318102 -8.32883,70.757532 -12.70455,102.447292 -2.54596,18.44585 -4.40477,40.2401 -23.21658,35.62078 13.33935,-14.31708 18.93925,-40.79251 16.87933,-68.86884 2.23534,-26.17645 -3.42819,-38.5213 -7.98915,-67.06679 -1.57156,-9.843696 -18.08989,-36.260338 -23.33672,-42.528692 -3.07276,-3.674297 -17.0657,-14.478603 -22.85617,-18.861595 l 0.66076,-0.840963 c -8.26526,-2.453074 -14.89022,-6.261944 -21.77493,-9.280626 -2.86585,-19.7782729 -17.00276,-32.605503 -28.53267,-39.825597 -5.15008,-1.414336 -9.85582,-1.971716 -14.11616,-1.862132 z"
       id="path4118"
       inkscape:connector-curvature="0" /></g></svg>